<svg version="1.1" xmlns="http://www.w3.org/2000/svg" style="display: block;" viewBox="0 0 2048 1365" width="1536" height="1024" preserveAspectRatio="none">
<defs>
	<linearGradient id="Gradient1" gradientUnits="userSpaceOnUse" x1="1444.26" y1="338.979" x2="1410.36" y2="313.209">
		<stop class="stop0" offset="0" stop-opacity="1" stop-color="rgb(48,114,158)"/>
		<stop class="stop1" offset="1" stop-opacity="1" stop-color="rgb(71,145,181)"/>
	</linearGradient>
	<linearGradient id="Gradient2" gradientUnits="userSpaceOnUse" x1="1493.73" y1="860.774" x2="1422.36" y2="876.647">
		<stop class="stop0" offset="0" stop-opacity="1" stop-color="rgb(39,95,136)"/>
		<stop class="stop1" offset="1" stop-opacity="1" stop-color="rgb(54,123,159)"/>
	</linearGradient>
	<linearGradient id="Gradient3" gradientUnits="userSpaceOnUse" x1="1300.61" y1="1180.03" x2="1234.82" y2="1116.9">
		<stop class="stop0" offset="0" stop-opacity="1" stop-color="rgb(47,104,143)"/>
		<stop class="stop1" offset="1" stop-opacity="1" stop-color="rgb(66,136,168)"/>
	</linearGradient>
	<linearGradient id="Gradient4" gradientUnits="userSpaceOnUse" x1="1155.94" y1="980.152" x2="1124.5" y2="932.126">
		<stop class="stop0" offset="0" stop-opacity="1" stop-color="rgb(44,98,137)"/>
		<stop class="stop1" offset="1" stop-opacity="1" stop-color="rgb(58,121,155)"/>
	</linearGradient>
	<linearGradient id="Gradient5" gradientUnits="userSpaceOnUse" x1="1131.06" y1="1118.5" x2="1052.85" y2="1098.48">
		<stop class="stop0" offset="0" stop-opacity="1" stop-color="rgb(39,88,127)"/>
		<stop class="stop1" offset="1" stop-opacity="1" stop-color="rgb(65,130,164)"/>
	</linearGradient>
	<linearGradient id="Gradient6" gradientUnits="userSpaceOnUse" x1="1583.29" y1="646.014" x2="1523" y2="626.101">
		<stop class="stop0" offset="0" stop-opacity="1" stop-color="rgb(47,106,144)"/>
		<stop class="stop1" offset="1" stop-opacity="1" stop-color="rgb(62,128,161)"/>
	</linearGradient>
	<linearGradient id="Gradient7" gradientUnits="userSpaceOnUse" x1="991.603" y1="1179.32" x2="966.653" y2="1199.47">
		<stop class="stop0" offset="0" stop-opacity="1" stop-color="rgb(47,100,138)"/>
		<stop class="stop1" offset="1" stop-opacity="1" stop-color="rgb(59,125,158)"/>
	</linearGradient>
</defs>
<path transform="translate(0,0)" fill="rgb(137,200,220)" d="M 0 0 L 2048 0 L 2048 887.122 L 2048 1365 L 0 1365 L 0 886.985 L 0 0 z"/>
<path transform="translate(0,0)" fill="rgb(254,220,165)" d="M 1871.8 766.951 C 1874.63 770.09 1874.01 770.663 1874.2 775.776 L 1891.22 775.88 C 1891.49 800.155 1891.56 824.431 1891.42 848.706 C 1891.4 856.467 1890.82 881.801 1892.2 887.462 C 1910.05 886.434 1931.74 886.943 1949.96 887.023 C 1982.64 887.344 2015.32 887.377 2048 887.122 L 2048 1365 L 0 1365 L 0 886.985 L 142.933 886.966 L 142.805 961.852 C 142.795 970.868 142.264 993.513 143.681 1001.3 C 144.808 1007.49 147.648 1013.24 151.88 1017.9 C 157.814 1024.45 165.437 1028.7 174.304 1028.84 C 190.089 1029.09 206.02 1028.99 221.81 1028.99 L 310.628 1028.96 L 583.474 1028.97 L 778.454 1029 L 841.181 1029.04 C 866.463 1029.04 902.032 1034.77 908.055 1000.32 C 910.282 987.591 909.197 971.67 909.178 958.524 L 909.097 885.152 L 978.535 885.04 L 983.3 903.025 C 979.681 904.043 976.183 904.586 974.288 908.045 C 969.875 916.102 979.007 940.285 981.807 949.732 C 973.809 953.031 954.89 960.092 951.792 968.705 C 946.211 985.349 954.077 1004.85 959.012 1020.79 C 962.327 1031.5 965.956 1042.04 969.86 1052.4 C 980.336 1080.2 1001.88 1070.03 1023.93 1067.42 C 1017.34 1104.66 1039.91 1174.6 1081.33 1183.72 C 1083.59 1184.26 1086.33 1183.9 1088.86 1184.45 C 1127.96 1192.99 1159.66 1185.34 1196.34 1171.25 C 1202.2 1199.86 1212.69 1218.73 1243.75 1223.2 C 1318.35 1237.21 1335.61 1188.39 1396.7 1164.31 C 1414.89 1157.14 1466.66 1149.25 1488.19 1145.37 C 1517.01 1157.23 1544.62 1160.5 1575.73 1159.97 C 1584.87 1169.69 1589.44 1171.24 1602.68 1169.26 C 1609.04 1165.77 1610.83 1164.09 1615.85 1158.9 C 1642.65 1167.56 1641.86 1151.45 1658.28 1136.49 C 1662.42 1132.72 1661.12 1124.7 1660.68 1119.95 C 1653.84 1096.84 1623.72 1084.87 1603.69 1074.45 C 1596.21 1031.67 1574.58 977.625 1554.15 939.127 C 1546.13 924.028 1533.81 908.424 1526 893.043 C 1525.44 891.941 1525.75 888.11 1525.88 886.81 C 1572.59 885.63 1623.63 886.872 1670.81 886.873 C 1671.28 850.102 1670.93 812.5 1670.99 775.673 L 1681.79 775.969 C 1681.9 771.042 1681.46 770.191 1684.25 767.121 L 1832.46 767.04 L 1871.8 766.951 z"/>
<path transform="translate(0,0)" fill="rgb(236,193,136)" d="M 1874.2 775.776 L 1891.22 775.88 C 1891.49 800.155 1891.56 824.431 1891.42 848.706 C 1891.4 856.467 1890.82 881.801 1892.2 887.462 C 1892.69 889.419 1892.56 888.689 1892.24 890.808 C 1887.05 893.255 1849.32 892.006 1840.67 891.9 C 1837.64 856.123 1841.93 811.78 1839.22 776.096 C 1850.07 776.178 1863.6 776.628 1874.2 775.776 z"/>
<path transform="translate(0,0)" fill="rgb(233,179,118)" d="M 1660.68 1119.95 C 1675.22 1120.07 1685.37 1122.23 1698.37 1127.28 C 1709.27 1131.5 1720.14 1142.68 1707.14 1151.27 C 1686.96 1164.59 1627.98 1172.08 1605.08 1169.58 C 1604.28 1169.5 1603.48 1169.39 1602.68 1169.26 C 1609.04 1165.77 1610.83 1164.09 1615.85 1158.9 C 1642.65 1167.56 1641.86 1151.45 1658.28 1136.49 C 1662.42 1132.72 1661.12 1124.7 1660.68 1119.95 z"/>
<path transform="translate(0,0)" fill="rgb(233,179,118)" d="M 1871.8 766.951 C 1874.63 770.09 1874.01 770.663 1874.2 775.776 C 1863.6 776.628 1850.07 776.178 1839.22 776.096 C 1787.28 775.346 1733.86 775.978 1681.79 775.969 C 1681.9 771.042 1681.46 770.191 1684.25 767.121 L 1832.46 767.04 L 1871.8 766.951 z"/>
<path transform="translate(0,0)" fill="rgb(29,56,89)" d="M 845.273 1108.07 C 868.463 1106.71 927.405 1103.73 911.389 1143.34 C 917.605 1144.86 934.312 1149.06 931.535 1157.32 C 915.839 1173.11 877.387 1164.69 858.757 1159.13 C 834.728 1154.58 773.5 1150.56 828.148 1119.6 C 833.914 1116.34 839.852 1111.96 845.273 1108.07 z"/>
<path transform="translate(0,0)" fill="rgb(233,179,118)" d="M 858.757 1159.13 C 867.277 1159.2 881.435 1157.74 889.849 1156.07 C 900.592 1153.94 905.354 1152.13 911.389 1143.34 C 917.605 1144.86 934.312 1149.06 931.535 1157.32 C 915.839 1173.11 877.387 1164.69 858.757 1159.13 z"/>
<path transform="translate(0,0)" fill="rgb(46,103,141)" d="M 849.359 1117.28 C 858.653 1116.82 876.796 1119.84 887.035 1119.58 C 890.933 1119.48 898.393 1122.82 901.141 1126.3 C 898.863 1132.35 881.934 1129.51 873.699 1135.66 C 871.336 1139.46 872.209 1143.55 872.64 1148.05 C 863.493 1148.27 822.915 1144.49 818.161 1138.45 C 820.682 1134.13 844.505 1119.48 849.359 1117.28 z"/>
<path transform="translate(0,0)" fill="rgb(46,103,141)" d="M 895.535 1137.31 C 898.646 1136.77 899.811 1136.21 902.466 1137.53 L 902.492 1139.21 C 898.008 1144.75 895.431 1145.09 888.759 1146.59 C 883.589 1147.56 880.372 1149.26 877.358 1144.47 C 880.777 1138.45 889.387 1138.1 895.535 1137.31 z"/>
<path transform="translate(0,0)" fill="rgb(29,56,89)" d="M 1440.84 1222.39 C 1427.9 1220.19 1411.13 1218.47 1398.85 1214.96 C 1368.69 1206.34 1409.12 1181.91 1419.33 1177.69 C 1437.9 1180.65 1454.05 1182.82 1472.79 1184.2 C 1482.1 1190.61 1495.66 1200.05 1500.97 1209.63 C 1508.19 1210.17 1527.27 1212.47 1526.06 1222.37 C 1519.53 1229.58 1495.38 1229.21 1485.9 1230.54 C 1473.73 1232.24 1456.28 1227.72 1446.14 1227.85 L 1440.84 1222.39 z"/>
<path transform="translate(0,0)" fill="rgb(233,179,118)" d="M 1500.97 1209.63 C 1508.19 1210.17 1527.27 1212.47 1526.06 1222.37 C 1519.53 1229.58 1495.38 1229.21 1485.9 1230.54 C 1473.73 1232.24 1456.28 1227.72 1446.14 1227.85 C 1456.51 1225.66 1466.84 1224.62 1477.28 1223 C 1487.18 1221.46 1498.25 1220.9 1500.97 1209.63 z"/>
<path transform="translate(0,0)" fill="rgb(46,103,141)" d="M 1419.67 1188.61 C 1427 1188.51 1454.22 1192.64 1462.64 1193.75 C 1457 1199.97 1451.66 1205.81 1445.76 1211.8 C 1430.54 1209.95 1415.37 1207.68 1400.26 1205.01 C 1405.96 1199.19 1413.25 1193.72 1419.67 1188.61 z"/>
<path transform="translate(0,0)" fill="rgb(46,103,141)" d="M 1473.46 1198.61 C 1477.21 1200.29 1488 1208.87 1491.17 1211.64 C 1485.13 1212.74 1477.94 1213.49 1471.77 1214.28 C 1467.26 1214.49 1460.54 1216.01 1455.91 1216.91 C 1461.4 1210.63 1467.59 1204.56 1473.46 1198.61 z"/>
<path transform="translate(0,0)" fill="rgb(233,179,118)" d="M 1757.29 824.076 C 1758.14 824.052 1759 824.039 1759.85 824.036 C 1792.7 823.979 1785 868.346 1784.56 890.954 L 1763.75 891.08 L 1737.48 890.994 C 1737.32 882.698 1737.17 874.099 1737.05 865.837 C 1736.73 844.857 1735.85 832.336 1757.29 824.076 z"/>
<path transform="translate(0,0)" fill="rgb(29,56,89)" d="M 974.968 1167.2 C 983.916 1169.23 1003.13 1171.7 1008.91 1178.25 C 1010.84 1180.45 1009.86 1185.19 1009.49 1188.18 L 1010.4 1191.12 C 1017.87 1194.78 1030.62 1196.63 1035.07 1202.01 C 1037.09 1216.78 995.136 1209.85 987.246 1205.83 C 976.629 1205.81 955.733 1206.5 949.383 1196.22 C 948.012 1193.96 947.629 1191.24 948.325 1188.69 C 950.769 1179.81 967.067 1171.35 974.968 1167.2 z"/>
<path transform="translate(0,0)" fill="rgb(233,179,118)" d="M 987.246 1205.83 C 1001.91 1203.71 1006.41 1204.45 1009.49 1188.18 L 1010.4 1191.12 C 1017.87 1194.78 1030.62 1196.63 1035.07 1202.01 C 1037.09 1216.78 995.136 1209.85 987.246 1205.83 z"/>
<path transform="translate(0,0)" fill="url(#Gradient7)" d="M 974.12 1178.07 C 981.136 1179.32 1002.34 1182.54 1000.86 1192.01 C 994.58 1196.54 989.288 1195.97 981.75 1196.18 C 974.993 1196.64 957.421 1197.83 959.303 1187.33 C 962.206 1182.89 969.281 1180.17 974.12 1178.07 z"/>
<path transform="translate(0,0)" fill="rgb(236,193,136)" d="M 1710.37 1064.47 C 1717.47 1064.73 1725.72 1064.84 1730.39 1071.05 C 1730.68 1078.82 1719.02 1077.66 1713.08 1077.97 C 1706.34 1077.91 1694.39 1078.44 1690.92 1071.82 L 1692.16 1069.5 C 1698.31 1065.37 1703.02 1065.29 1710.37 1064.47 z"/>
<path transform="translate(0,0)" fill="rgb(236,193,136)" d="M 690.683 1084.21 C 699.342 1082.93 707.492 1088.09 714.701 1092.3 C 706.668 1095.43 702.882 1095.83 694.238 1096.74 C 687.412 1097.3 678.714 1098.32 673.465 1093.05 C 672.918 1085.83 685.109 1085.21 690.683 1084.21 z"/>
<path transform="translate(0,0)" fill="rgb(29,56,89)" d="M 1125.78 1220.97 C 1133.03 1220.41 1148.37 1226.64 1143.81 1235.02 C 1140.59 1237.21 1138.42 1236.89 1134.49 1237.06 C 1127.91 1236.91 1120.65 1237.51 1115.28 1233.82 C 1111.87 1227.41 1121 1223.77 1125.78 1220.97 z"/>
<path transform="translate(0,0)" fill="rgb(236,193,136)" d="M 1904.13 943.965 C 1909.99 943.763 1923.46 946.279 1925.84 952.407 L 1924.78 954.223 C 1921.26 956.185 1916.67 955.834 1912.55 955.912 C 1906.73 955.781 1891.88 956.463 1888.45 952.026 C 1890.49 947.719 1899.61 945.463 1904.13 943.965 z"/>
<path transform="translate(0,0)" fill="rgb(236,193,136)" d="M 1791.58 1049.1 C 1796.44 1048.77 1805.55 1047.54 1809.45 1050.47 C 1809.22 1053.37 1809.37 1052.4 1806.53 1055.01 C 1801.9 1055.36 1794.01 1056.64 1790.35 1054.31 C 1789.82 1051.22 1789.8 1052.4 1791.58 1049.1 z"/>
<path transform="translate(0,0)" fill="rgb(29,56,89)" d="M 1559.21 1204.08 C 1563.61 1204.64 1567.45 1205.67 1567.51 1210.64 C 1564.97 1213.44 1565.45 1212.61 1561.18 1213.83 C 1557.04 1213.17 1552.71 1213.31 1551.83 1208.59 C 1553.82 1205.57 1555.74 1205.34 1559.21 1204.08 z"/>
<path transform="translate(0,0)" fill="rgb(29,56,89)" d="M 1405.69 351.484 C 1398.61 342.962 1394.41 335.566 1395.54 323.911 C 1396.37 315.19 1400.73 307.185 1407.59 301.742 C 1414.77 295.909 1423.98 293.169 1433.18 294.128 C 1441.37 295 1448.85 299.201 1453.85 305.748 C 1474.36 332.135 1451.4 362.569 1417.98 357.711 C 1414.61 370.954 1409.16 389.381 1404.66 402.409 C 1503.1 421.961 1556.6 462.686 1562.06 567.511 C 1573.95 570.557 1580.45 574.092 1587.09 585.055 C 1606.66 617.41 1596.07 714.55 1542.7 704.053 C 1523.48 764.847 1477.73 777.577 1420.21 783.171 C 1411.03 784.064 1401.05 784.559 1391.95 785.826 C 1423.6 791.342 1460.53 787.455 1487 808.059 C 1491.75 811.756 1495.07 818.391 1499.32 822.709 C 1521.61 842.013 1530.68 855.829 1525.88 886.81 C 1525.75 888.11 1525.44 891.941 1526 893.043 C 1533.81 908.424 1546.13 924.028 1554.15 939.127 C 1574.58 977.625 1596.21 1031.67 1603.69 1074.45 C 1623.72 1084.87 1653.84 1096.84 1660.68 1119.95 C 1661.12 1124.7 1662.42 1132.72 1658.28 1136.49 C 1641.86 1151.45 1642.65 1167.56 1615.85 1158.9 C 1610.83 1164.09 1609.04 1165.77 1602.68 1169.26 C 1589.44 1171.24 1584.87 1169.69 1575.73 1159.97 C 1544.62 1160.5 1517.01 1157.23 1488.19 1145.37 C 1466.66 1149.25 1414.89 1157.14 1396.7 1164.31 C 1335.61 1188.39 1318.35 1237.21 1243.75 1223.2 C 1212.69 1218.73 1202.2 1199.86 1196.34 1171.25 C 1159.66 1185.34 1127.96 1192.99 1088.86 1184.45 C 1086.33 1183.9 1083.59 1184.26 1081.33 1183.72 C 1039.91 1174.6 1017.34 1104.66 1023.93 1067.42 C 1001.88 1070.03 980.336 1080.2 969.86 1052.4 C 965.956 1042.04 962.327 1031.5 959.012 1020.79 C 954.077 1004.85 946.211 985.349 951.792 968.705 C 954.89 960.092 973.809 953.031 981.807 949.732 C 979.007 940.285 969.875 916.102 974.288 908.045 C 976.183 904.586 979.681 904.043 983.3 903.025 L 978.535 885.04 C 974.767 868.104 967.645 844.478 965.346 828.346 C 970.116 820.017 974.229 815.912 980.924 809.054 C 971.877 797.417 956.43 784.58 949.676 774.909 C 959.866 777.863 996.374 797.805 991.843 812.231 C 990.167 817.568 981.086 826.363 976.891 830.835 C 980.621 849.843 988.272 870.299 991.238 885.77 C 995.543 884.506 1031.42 885.157 1038.22 885.169 L 1164.43 885.499 C 1170.22 877.427 1175.28 870.282 1181.74 862.745 C 1183.25 808.219 1210.18 793.814 1256.94 779.571 C 1207.02 774.168 1136.06 773.03 1101.3 730.901 C 1072.33 695.784 1075.46 633.767 1080.67 591.416 C 1087.12 538.969 1096.78 479.863 1140.94 445.471 C 1204.63 395.866 1299.05 389.425 1376.1 398.484 C 1380.5 399.003 1384.9 399.549 1389.3 400.12 C 1394.21 385.374 1400.18 365.665 1405.69 351.484 z"/>
<path transform="translate(0,0)" fill="rgb(233,179,118)" d="M 1467.44 1092.33 C 1482.12 1091.59 1498.47 1092.33 1512.11 1098.27 C 1504.12 1107.89 1495.49 1116.16 1496.65 1129.62 C 1497.69 1141.71 1506.06 1152.49 1519.25 1150.87 C 1531.35 1149.38 1538.35 1137.61 1544.15 1128.31 C 1558.85 1138.68 1564.78 1145.93 1575.73 1159.97 C 1544.62 1160.5 1517.01 1157.23 1488.19 1145.37 C 1466.66 1149.25 1414.89 1157.14 1396.7 1164.31 C 1335.61 1188.39 1318.35 1237.21 1243.75 1223.2 C 1286.82 1221.91 1288.83 1205.24 1315.77 1179.36 C 1327.17 1168.42 1354.65 1150.96 1368.4 1143.15 C 1380.55 1137.23 1399.88 1125.07 1413.02 1122.73 C 1438.48 1118.21 1456.1 1120.31 1467.44 1092.33 z"/>
<path transform="translate(0,0)" fill="rgb(254,220,165)" d="M 991.238 885.77 C 995.543 884.506 1031.42 885.157 1038.22 885.169 L 1164.43 885.499 C 1148.59 908.949 1133.18 924.652 1103.85 930.242 C 1096.84 931.578 1089.7 932.176 1082.56 932.024 C 1076.17 926.125 1070.58 921.841 1061.35 922.571 C 1049.64 923.5 1032.28 930.303 1020.69 934.254 C 1017.96 924.797 1014.54 903.761 1006.54 899.333 C 1003.57 897.69 998.434 898.757 995.015 899.27 L 991.238 885.77 z"/>
<path transform="translate(0,0)" fill="rgb(254,220,165)" d="M 1466.82 1054.33 C 1495.32 1035.34 1492.59 1008.4 1495.72 976.955 C 1515.9 1006.86 1523.35 1050.9 1525.17 1086.24 C 1520.65 1090.21 1516.3 1093.92 1512.11 1098.27 C 1498.47 1092.33 1482.12 1091.59 1467.44 1092.33 C 1470.95 1079.08 1471.82 1067.26 1466.82 1054.33 z"/>
<path transform="translate(0,0)" fill="rgb(233,179,118)" d="M 1173.72 1145.39 C 1179.95 1146.49 1187.25 1148.2 1193.42 1147.4 L 1194.94 1144.32 C 1194.93 1154.27 1195.42 1161.31 1196.34 1171.25 C 1159.66 1185.34 1127.96 1192.99 1088.86 1184.45 C 1086.33 1183.9 1083.59 1184.26 1081.33 1183.72 C 1109.84 1181.76 1115.04 1173.19 1138.28 1160.61 C 1145.92 1156.48 1164.88 1149.03 1173.72 1145.39 z"/>
<path transform="translate(0,0)" fill="rgb(254,220,165)" d="M 1173.72 1145.39 C 1178.9 1142.81 1190.96 1133.7 1195.01 1137.75 L 1194.94 1144.32 L 1193.42 1147.4 C 1187.25 1148.2 1179.95 1146.49 1173.72 1145.39 z"/>
<path transform="translate(0,0)" fill="rgb(91,167,200)" d="M 1176.23 436.268 C 1181.95 432.587 1196.35 426.812 1202.98 424.373 C 1256.33 404.738 1327.1 403.091 1383.57 410.448 C 1381.27 411.959 1374.53 416.336 1372.91 418.154 C 1368.06 423.603 1364.59 434.523 1357.85 438.357 C 1352.86 441.196 1343.14 441.23 1337.76 444.273 C 1333.51 446.676 1329.64 450.614 1328.3 455.409 C 1330.67 456.186 1349.29 441.807 1356.7 445.308 C 1361.87 451.786 1348.47 476.536 1359.8 488.151 C 1365.16 484.755 1353.28 470.385 1362.1 459.402 C 1365.38 455.32 1368.15 437.935 1372.52 430.636 C 1385.39 409.181 1403.08 412.763 1423.42 417.982 C 1509.89 437.544 1547.14 480.855 1551.91 568.551 C 1534.78 576.412 1521.28 589.56 1515.85 607.666 C 1506.76 638.012 1506.66 677.457 1532.02 699.294 C 1520.05 748.74 1480.93 764.338 1434.77 770.511 C 1427.83 771.439 1420.12 771.858 1413.29 772.963 C 1399.14 773.262 1384.47 775.228 1370.17 774.835 C 1301.93 772.956 1232.17 769.346 1165.19 755.54 C 1132.53 748.807 1155.37 737.338 1148.95 726.441 C 1146.44 728.163 1147.34 728.081 1144.73 728.08 C 1139.26 722.348 1137.93 713.259 1136.48 705.796 C 1133.68 691.397 1149.67 692.35 1148.3 678.199 L 1147.04 677.357 C 1142.72 679.511 1142.4 682.752 1139.54 685.438 C 1133.35 691.257 1132.32 691.625 1130.04 699.879 L 1112.46 695.779 C 1119.27 700.699 1121.35 701.8 1129.19 705.032 C 1132.43 718.032 1133.42 723.753 1141.06 735.068 L 1140.17 746.415 C 1081.85 719.674 1085.92 656.132 1090.28 602.18 C 1091.6 585.786 1093.7 570.197 1097.34 554.134 C 1108.32 498.971 1123.78 462.738 1176.23 436.268 z"/>
<path transform="translate(0,0)" fill="rgb(49,115,153)" d="M 1423.42 417.982 C 1509.89 437.544 1547.14 480.855 1551.91 568.551 C 1534.78 576.412 1521.28 589.56 1515.85 607.666 C 1506.76 638.012 1506.66 677.457 1532.02 699.294 C 1520.05 748.74 1480.93 764.338 1434.77 770.511 C 1427.83 771.439 1420.12 771.858 1413.29 772.963 C 1414.88 768.732 1418.48 766.678 1422.15 763.924 L 1421.67 762.844 C 1420.59 759.455 1420.3 760.382 1421.41 757.857 C 1423.59 756.913 1425.96 755.461 1427.67 753.832 C 1445.15 737.208 1471.43 723.656 1474.25 697.928 C 1473.58 694.445 1471.87 686.183 1472.95 683.116 C 1483.42 683.121 1483.22 681.965 1489.62 674.05 C 1489.85 671.999 1491.91 666.994 1492.34 662.937 C 1493.38 653.164 1493.19 642.265 1495.12 632.748 C 1496.7 624.949 1501.02 615.237 1502.31 607.209 C 1505.17 589.447 1502.19 568.108 1501.64 549.987 C 1500.72 544.943 1497.25 539.716 1496.83 534.634 C 1496.19 526.924 1496.51 519.259 1495.62 511.527 C 1494.78 504.28 1489.92 496.563 1485.57 490.954 C 1479.27 482.85 1482.25 473.421 1483.94 464.646 C 1477.25 457.023 1466.18 451.066 1461.43 445.441 C 1450.75 432.77 1433.56 427.161 1423.42 417.982 z"/>
<path transform="translate(0,0)" fill="rgb(29,56,89)" d="M 1489.62 674.05 C 1490.68 682.628 1485.34 686.015 1479.9 692.041 C 1484.18 722.901 1495.55 712.727 1480.85 747.408 C 1481.56 738.718 1482.15 729.476 1483.34 720.896 C 1477.63 711.217 1475.85 709.162 1474.25 697.928 C 1473.58 694.445 1471.87 686.183 1472.95 683.116 C 1483.42 683.121 1483.22 681.965 1489.62 674.05 z"/>
<path transform="translate(0,0)" fill="rgb(46,103,141)" d="M 1516.55 538.749 C 1518.85 541.391 1519.48 542.662 1519.84 546.008 C 1518.5 549.673 1519.44 548.449 1516.31 550.664 C 1512.35 548.358 1512.93 549.482 1511.36 545.997 C 1512.01 542.665 1514.07 541.237 1516.55 538.749 z"/>
<path transform="translate(0,0)" fill="rgb(137,200,220)" d="M 1176.23 436.268 L 1177.77 437.649 C 1176.61 442.658 1167.82 449.232 1163.94 453.385 C 1140.07 478.891 1121.84 506.086 1108.04 538.197 C 1105.8 543.405 1103.17 550.635 1099.99 555.214 C 1097.87 555.115 1098.69 555.532 1097.34 554.134 C 1108.32 498.971 1123.78 462.738 1176.23 436.268 z"/>
<path transform="translate(0,0)" fill="rgb(29,56,89)" d="M 1407.54 750.296 C 1399.97 735.043 1382.34 741.386 1378.28 726.855 L 1379.19 725.956 C 1384.15 728.377 1388.18 731.469 1393.53 732.951 C 1405.53 736.273 1409.61 742.355 1416.8 751.83 C 1414.37 752.046 1410.09 750.865 1407.54 750.296 z"/>
<path transform="translate(0,0)" fill="rgb(46,103,141)" d="M 1407.54 750.296 C 1410.09 750.865 1414.37 752.046 1416.8 751.83 C 1418.9 754.062 1420.12 755.077 1421.41 757.857 C 1420.3 760.382 1420.59 759.455 1421.67 762.844 C 1414.06 759.121 1412.42 757.293 1407.54 750.296 z"/>
<path transform="translate(0,0)" fill="rgb(29,56,89)" d="M 1386.18 563.31 C 1413.01 560.658 1436.94 580.168 1439.76 606.981 C 1442.57 633.794 1423.2 657.847 1396.41 660.82 C 1369.38 663.819 1345.08 644.252 1342.25 617.211 C 1339.41 590.169 1359.12 565.985 1386.18 563.31 z"/>
<path transform="translate(0,0)" fill="rgb(46,103,141)" d="M 1371.48 586.347 C 1372.45 586.627 1373.95 587.292 1374.94 587.689 L 1375.87 590.39 C 1375.13 595.722 1371.26 599.206 1367.35 602.501 C 1365.22 602.369 1365.59 602.307 1363.58 601.463 L 1362.61 599.009 C 1363.36 593.32 1367.39 589.938 1371.48 586.347 z"/>
<path transform="translate(0,0)" fill="rgb(29,56,89)" d="M 1170.58 554.291 C 1196.91 553.322 1219.06 573.825 1220.13 600.149 C 1221.2 626.473 1200.79 648.708 1174.47 649.883 C 1148 651.064 1125.62 630.511 1124.54 604.04 C 1123.46 577.569 1144.1 555.264 1170.58 554.291 z"/>
<path transform="translate(0,0)" fill="rgb(46,103,141)" d="M 1158.87 573.896 L 1159.7 574.853 C 1162.25 583.195 1154.59 588.544 1147.89 591.314 C 1143.34 581.686 1151.29 577.487 1158.87 573.896 z"/>
<path transform="translate(0,0)" fill="rgb(29,56,89)" d="M 1266.51 660.211 C 1291.9 658.176 1319.71 668.22 1332.45 690.733 C 1352.3 725.788 1301.4 703.641 1290.19 700.689 C 1272.18 697.904 1255.12 698.5 1237.7 704.354 C 1219.62 710.431 1209.51 703.517 1221.92 685.995 C 1232.81 670.614 1248.22 663.518 1266.51 660.211 z"/>
<path transform="translate(0,0)" fill="rgb(29,56,89)" d="M 1206.48 500.925 C 1208.93 500.587 1209.06 500.771 1211.38 501.385 C 1225.55 519.341 1156.6 531.613 1146.06 532.345 C 1141.36 531.716 1138.17 529.592 1138.67 524.456 C 1141.86 520.104 1156.24 518.63 1162 517.43 C 1178.43 514.008 1191.83 508.999 1206.48 500.925 z"/>
<path transform="translate(0,0)" fill="rgb(29,56,89)" d="M 1382.05 513.493 C 1388.96 515.265 1394.43 523.793 1400.45 527.073 C 1413.28 534.064 1428.28 537.259 1441.09 543.704 C 1443.36 544.848 1443.69 546.571 1444.17 548.573 C 1443.34 551.652 1442.13 552.208 1439.56 554.404 C 1424.99 553.189 1381.22 536.108 1377.87 520.377 C 1378.84 515.89 1378.57 517.184 1382.05 513.493 z"/>
<path transform="translate(0,0)" fill="rgb(49,115,153)" d="M 1428.84 444.323 C 1434.09 444.571 1440.24 443.749 1442.85 448.805 C 1442.29 451.959 1441.48 452.401 1439.21 454.895 C 1433.86 456.415 1429.74 457.998 1426.22 453.164 C 1425.71 449.446 1427.11 447.602 1428.84 444.323 z"/>
<path transform="translate(0,0)" fill="rgb(67,139,175)" d="M 1258.87 586.687 C 1264.48 586.777 1267.26 586.971 1270.11 591.919 C 1270.3 595.367 1269.75 595.709 1267.72 598.768 C 1261.9 597.339 1255.14 593.212 1258.87 586.687 z"/>
<path transform="translate(0,0)" fill="rgb(49,115,153)" d="M 1447.57 501.217 C 1449.56 500.998 1449.43 500.949 1451.26 501.752 C 1453 505.58 1453.43 507.102 1450.96 510.561 L 1448.57 509.764 C 1445.57 508.032 1441.97 506.422 1440.12 503.686 C 1442.56 501.419 1443.84 501.855 1447.57 501.217 z"/>
<path transform="translate(0,0)" fill="rgb(67,139,175)" d="M 1167.4 485.468 C 1168.7 485.792 1169.06 486.078 1170.27 486.668 C 1171.44 491.616 1168.74 495.289 1166.15 499.256 C 1163.65 497.352 1163.36 497.303 1162.45 494.448 C 1162.71 490.887 1165.15 488.466 1167.4 485.468 z"/>
<path transform="translate(0,0)" fill="rgb(29,56,89)" d="M 1222.87 452.054 C 1223.84 453.085 1223.38 452.816 1223.34 455.063 C 1219.73 461 1214.89 462.435 1208.38 462.225 L 1207.71 460.826 C 1213.52 457.824 1217.39 455.605 1222.87 452.054 z"/>
<path transform="translate(0,0)" fill="rgb(49,115,153)" d="M 1428.21 692.51 C 1430.92 694.707 1429.25 698.171 1428.65 701.366 C 1426.37 699.311 1427.79 695.374 1428.21 692.51 z"/>
<path transform="translate(0,0)" fill="rgb(91,167,200)" d="M 1266.04 788.719 L 1268.51 787.966 C 1278.09 797.525 1262.26 807.371 1294.85 824.057 C 1309.13 826.552 1325.03 828.871 1339.57 827.911 C 1354.03 825.296 1366.68 821.383 1375.3 808.53 C 1375.92 807.617 1376.51 806.681 1377.06 805.724 L 1376.37 794.865 C 1404.98 795.17 1452.52 801.317 1478.01 814.578 C 1450.61 813.811 1435.74 814.339 1419.76 838.95 C 1408.61 863.756 1407.56 890.496 1425.35 912.377 C 1437.1 923.661 1443.99 925.749 1460.64 925.491 C 1462.32 925.463 1464.01 925.369 1465.68 925.209 C 1472.78 936.133 1481 951.953 1487.1 963.782 C 1486.01 981.638 1483.58 1002.96 1480.13 1020.48 C 1474.7 1048.1 1445.86 1052.51 1421.67 1055.69 C 1379.1 1061.26 1323.92 1057 1281.22 1050.54 C 1265.57 1047.64 1220.66 1042.38 1211.92 1027.54 C 1202.51 1011.57 1199.69 966.597 1198.48 947.333 C 1196.78 920.484 1188.46 873.957 1192.83 848.504 C 1193.99 835.021 1200.8 826.895 1208.09 815.972 C 1208.74 813.56 1210.71 812.096 1212.9 811.208 C 1230.51 799.318 1245.17 793.297 1266.04 788.719 z"/>
<path transform="translate(0,0)" fill="rgb(49,115,153)" d="M 1425.35 912.377 C 1437.1 923.661 1443.99 925.749 1460.64 925.491 C 1462.32 925.463 1464.01 925.369 1465.68 925.209 C 1472.78 936.133 1481 951.953 1487.1 963.782 C 1486.01 981.638 1483.58 1002.96 1480.13 1020.48 C 1474.7 1048.1 1445.86 1052.51 1421.67 1055.69 C 1421.68 1038.78 1423.95 1025.21 1427.71 1008.88 C 1419.62 985.564 1424.51 984.588 1423.6 962.516 C 1422.69 940.67 1420.59 935.857 1425.35 912.377 z"/>
<path transform="translate(0,0)" fill="rgb(49,115,153)" d="M 1376.37 794.865 C 1404.98 795.17 1452.52 801.317 1478.01 814.578 C 1450.61 813.811 1435.74 814.339 1419.76 838.95 C 1406.23 839.185 1389.35 839.398 1376.06 836.829 C 1361.55 834.025 1355.39 826.757 1339.57 827.911 C 1354.03 825.296 1366.68 821.383 1375.3 808.53 C 1375.92 807.617 1376.51 806.681 1377.06 805.724 L 1376.37 794.865 z"/>
<path transform="translate(0,0)" fill="rgb(49,115,153)" d="M 1266.04 788.719 L 1268.51 787.966 C 1278.09 797.525 1262.26 807.371 1294.85 824.057 C 1283.64 824.218 1252.16 823.916 1243.42 817.132 C 1240.99 815.243 1241.03 812.055 1240.8 809.107 L 1231.29 815.582 C 1225.54 813.626 1218.9 812.448 1212.9 811.208 C 1230.51 799.318 1245.17 793.297 1266.04 788.719 z"/>
<path transform="translate(0,0)" fill="rgb(137,200,220)" d="M 1266.04 788.719 C 1266.16 795.502 1246.79 805.516 1240.8 809.107 L 1231.29 815.582 C 1225.54 813.626 1218.9 812.448 1212.9 811.208 C 1230.51 799.318 1245.17 793.297 1266.04 788.719 z"/>
<path transform="translate(0,0)" fill="rgb(137,200,220)" d="M 1208.09 815.972 C 1212.8 814.692 1220.52 817.636 1225.38 819.12 C 1209.1 833.168 1201.73 849.034 1193.59 868.823 C 1192.82 860.557 1193.23 855.952 1192.83 848.504 C 1193.99 835.021 1200.8 826.895 1208.09 815.972 z"/>
<path transform="translate(0,0)" fill="rgb(38,88,124)" d="M 1208.09 815.972 C 1208.74 813.56 1210.71 812.096 1212.9 811.208 C 1218.9 812.448 1225.54 813.626 1231.29 815.582 C 1234.07 816.608 1237.33 817.482 1238.48 820.278 C 1243.13 831.576 1242.11 834.117 1251.2 843.346 C 1248.91 843.846 1247.85 843.216 1245.63 842.444 C 1239.66 836.854 1238.2 828.093 1234.15 820.858 C 1231.79 820.427 1227.5 819.782 1225.38 819.12 C 1220.52 817.636 1212.8 814.692 1208.09 815.972 z"/>
<path transform="translate(0,0)" fill="rgb(29,56,89)" d="M 1230.86 866.11 C 1244.9 864.952 1266.68 868.779 1281.78 869.879 C 1306.07 872.048 1330.43 873.36 1354.7 875.798 C 1369.23 877.96 1375.83 879.762 1377.35 895.661 C 1378.14 907.91 1377.95 921.111 1376.95 933.384 C 1375.71 948.543 1380.31 966.067 1366.4 975.725 C 1345.08 981.002 1270.59 963.795 1244.73 964.532 C 1241.34 964.628 1228.72 960.175 1227.25 956.207 C 1218.51 932.639 1219.87 900.78 1221.13 875.759 C 1221.35 871.576 1228.11 867.679 1230.86 866.11 z"/>
<path transform="translate(0,0)" fill="rgb(233,179,118)" d="M 1233.15 875.071 C 1241.8 874.771 1266.29 878.674 1276.74 879.933 C 1301.94 882.972 1339.36 882.729 1363.09 888.241 C 1371.7 894.578 1367.91 956.75 1363.3 966.422 C 1346.17 969.935 1301.35 958.953 1281.65 958.54 C 1273.8 958.376 1240.34 954.922 1235.35 951.209 C 1229.09 940.406 1231.79 918.355 1230.74 905.843 C 1230.05 897.578 1227.56 881.134 1233.15 875.071 z"/>
<path transform="translate(0,0)" fill="rgb(197,107,43)" d="M 1233.86 923.256 C 1236.5 922.914 1239.16 922.746 1241.82 922.75 C 1275.98 922.694 1315.31 932.331 1349.73 934.298 C 1354.15 934.55 1359.2 934.888 1362.35 938.023 L 1361.13 940.369 C 1355.96 941.689 1346.64 942.174 1341.54 941.853 C 1327.31 940.956 1239.64 932.959 1233.53 926.357 L 1233.86 923.256 z"/>
<path transform="translate(0,0)" fill="rgb(197,107,43)" d="M 1231.66 894.923 C 1244.54 894.046 1358.61 905.01 1364.02 908.039 C 1365.49 908.863 1365.18 909.092 1365.58 910.6 L 1363.83 912.978 C 1363.31 913.057 1362.79 913.135 1362.28 913.214 L 1361.45 913.312 C 1354.18 914.22 1344.55 912.535 1336.93 911.838 C 1310.52 909.422 1281.88 910.093 1256.71 901.796 C 1252.96 900.558 1243.64 904.987 1233.55 901.74 C 1231.28 899.104 1231.95 898.922 1231.66 894.923 z"/>
<path transform="translate(0,0)" fill="rgb(67,139,175)" d="M 1217.09 853.71 C 1220.45 853.763 1221.3 853.537 1224.21 854.975 C 1226.23 859.546 1218.97 865.178 1216.85 871.893 C 1214.92 873.59 1214.98 873.713 1212.42 874.496 L 1210.67 873.243 C 1208.91 866.88 1212.57 858.283 1217.09 853.71 z"/>
<path transform="translate(0,0)" fill="rgb(67,139,175)" d="M 1384.77 855.436 C 1387.89 854.46 1391.22 856.154 1392.27 859.251 C 1393.32 862.348 1391.7 865.716 1388.63 866.837 C 1386.58 867.585 1384.28 867.163 1382.63 865.735 C 1380.98 864.306 1380.23 862.095 1380.67 859.956 C 1381.12 857.818 1382.68 856.088 1384.77 855.436 z"/>
<path transform="translate(0,0)" fill="rgb(49,115,153)" d="M 1258.32 976.454 C 1262.08 976.944 1263.04 978.27 1264.43 981.423 C 1263.36 986.012 1263.83 984.568 1260.18 988.197 C 1256.18 988.78 1257.29 989.229 1254.45 987.557 L 1253.86 985.066 C 1254.67 980.72 1255.66 979.806 1258.32 976.454 z"/>
<path transform="translate(0,0)" fill="rgb(46,103,141)" d="M 1222.85 979.303 C 1226.25 980.527 1226.98 981.117 1228.64 984.201 C 1229.29 988.097 1228.85 988.861 1227.46 992.621 C 1223.41 991.452 1222.55 990.633 1220.79 987.09 C 1220.67 983.37 1221.17 982.681 1222.85 979.303 z"/>
<path transform="translate(0,0)" fill="rgb(67,139,175)" d="M 1310.76 1018.43 C 1316.5 1021.33 1312.43 1028.75 1309.38 1032.25 C 1305.47 1029.93 1306.41 1031.23 1305.3 1027.59 C 1306.09 1023.68 1308.24 1021.61 1310.76 1018.43 z"/>
<path transform="translate(0,0)" fill="rgb(67,139,175)" d="M 1371.16 1015.48 C 1373.03 1016 1372.63 1015.93 1374.34 1016.94 L 1374.98 1019.93 C 1373.93 1024.45 1373.46 1025.05 1370.87 1028.71 C 1367.04 1026.37 1367.96 1027.66 1366.85 1024.06 C 1367.51 1020.17 1368.92 1018.64 1371.16 1015.48 z"/>
<path transform="translate(0,0)" fill="rgb(67,139,175)" d="M 1408.03 909.498 C 1411.18 911.087 1411 911.338 1411.73 914.399 C 1410.87 918.045 1409.85 918.94 1407.48 921.776 C 1404.87 919.702 1404.51 919.63 1403.58 916.599 C 1404.08 913.407 1405.85 911.99 1408.03 909.498 z"/>
<path transform="translate(0,0)" fill="rgb(67,139,175)" d="M 1396 981.406 C 1399.23 981.73 1399.93 981.519 1402.16 983.587 C 1402.1 986.901 1401.43 986.849 1399.43 989.918 C 1396.27 989.285 1396.03 989.33 1393.49 987.501 C 1393.27 984.198 1393.65 984.897 1396 981.406 z"/>
<path transform="translate(0,0)" fill="rgb(38,88,124)" d="M 1059.77 932.233 C 1080.04 931.404 1088.33 973.58 1092.45 988.656 C 1095.77 1000.8 1102.24 1027.46 1095.67 1038.45 C 1094.03 1039.64 1092.28 1040.43 1090.25 1040.4 C 1076.97 1040.21 1066.79 1039.08 1053.26 1041.95 C 1043.43 1044.04 1038.9 1051.14 1030.58 1054.86 C 1022.19 1058.6 1007.79 1060.1 998.255 1061.55 C 974.319 1066.41 969.717 1013.35 961.629 997.265 C 954.766 983.619 959.463 969.52 974.761 963.327 C 1001.36 952.559 1031.49 939.431 1059.77 932.233 z"/>
<path transform="translate(0,0)" fill="rgb(29,56,89)" d="M 1017.84 962.559 C 1026.11 966.275 1031.27 969.586 1038.76 974.421 C 1034.12 982.86 1031.7 985.359 1024.33 991.62 C 1022.24 988.274 1020.54 984.542 1018.82 980.982 L 1004.76 984.637 C 998.366 986.435 988.569 989.833 982.265 989.722 C 980.4 988.262 980.854 987.8 980.102 984.85 C 984.152 969.946 1017.4 982.379 1017.84 962.559 z"/>
<path transform="translate(0,0)" fill="rgb(29,56,89)" d="M 1062.85 938.294 C 1070.07 941.194 1089.88 1022.59 1088.73 1034.3 C 1080.62 1027.4 1063.22 952.033 1062.85 938.294 z"/>
<path transform="translate(0,0)" fill="rgb(254,220,165)" d="M 1189.39 964.711 C 1193.75 979.475 1191.47 1003.03 1197.43 1019.21 C 1203.46 1035.57 1205.97 1038.87 1221.04 1047.3 C 1188.72 1057.76 1159.59 1071.03 1128.32 1081.54 C 1124.53 1079.62 1121.92 1073.35 1119.21 1069.59 C 1112.81 1060.67 1107.66 1055.53 1098.55 1049.22 C 1111.04 1037.52 1109.69 1030.2 1108.15 1014.02 C 1142.98 1004.91 1167.05 993.408 1189.39 964.711 z"/>
<path transform="translate(0,0)" fill="rgb(49,115,153)" d="M 1570.41 1080.43 C 1587.34 1078.99 1603.62 1086.79 1618.13 1094.7 C 1628.58 1100.39 1658.05 1115.64 1649.83 1131.2 C 1645.01 1128.56 1648.09 1123.81 1645.19 1119.33 C 1641.82 1114.12 1636.7 1109.79 1631.93 1106.01 C 1626.72 1105.68 1620.04 1106.05 1614.71 1106.21 C 1624.63 1113.13 1635.9 1121.62 1638.95 1133.96 C 1642.92 1150.04 1624.66 1159.4 1616.85 1141.82 C 1611.04 1128.73 1602.16 1111.71 1585.1 1114.48 L 1584.09 1114.65 C 1591.97 1122.34 1616.33 1145.32 1603.04 1157.8 C 1592.44 1167.76 1575.52 1142.06 1568.29 1136.13 C 1562.69 1131.53 1547.73 1116.84 1540.43 1116.96 C 1530.27 1120.15 1530.15 1138.87 1519.2 1141.67 C 1515.95 1141.48 1514.41 1140.54 1511.96 1138.37 C 1501.51 1129.12 1505.96 1117.58 1513.84 1108.8 C 1530.25 1090.54 1546.05 1082.14 1570.41 1080.43 z"/>
<path transform="translate(0,0)" fill="rgb(67,139,175)" d="M 1231.6 1097.1 C 1234.55 1097.34 1236.82 1098.21 1239.4 1100.05 C 1267.1 1119.81 1281.46 1172.06 1264.02 1202.11 C 1260.17 1208.73 1253.55 1211.32 1246.32 1212.57 C 1223.96 1210.85 1213.42 1196.03 1208.65 1174.97 C 1203.53 1152.35 1202.42 1103.47 1231.6 1097.1 z"/>
<path transform="translate(0,0)" fill="url(#Gradient6)" d="M 1555.29 580.138 C 1574.1 578.923 1582.01 592.106 1584.35 609.179 C 1587.91 635.079 1583.29 690.118 1551.09 694.739 C 1508.32 692.879 1512.33 595.189 1555.29 580.138 z"/>
<path transform="translate(0,0)" fill="rgb(29,56,89)" d="M 1567.24 605.553 C 1580.2 612.094 1574.11 640.705 1570.65 651.215 C 1568.29 658.369 1566.23 661.199 1560.73 665.948 C 1545.76 654.045 1554.68 617.702 1567.24 605.553 z"/>
<path transform="translate(0,0)" fill="rgb(67,139,175)" d="M 1048.39 1052.93 C 1051.68 1052.65 1054.42 1052.31 1057.21 1054.57 C 1079.2 1072.47 1089.54 1108.93 1094.93 1135.54 C 1096.89 1145.19 1097.13 1162.85 1091.25 1171 C 1089.25 1173.76 1086.05 1173.62 1082.76 1173.94 C 1081.78 1173.75 1080.8 1173.53 1079.83 1173.28 C 1053.59 1166.53 1040.46 1127.94 1035.48 1103.93 C 1031.48 1084.61 1029.14 1064.1 1048.39 1052.93 z"/>
<path transform="translate(0,0)" fill="rgb(46,103,141)" d="M 1473.6 917.09 C 1489 884.408 1512.8 884.055 1528.7 915.319 C 1535.8 929.298 1546.03 942.974 1552.95 958.045 C 1533.09 959.05 1521.67 966.664 1510.67 983.07 C 1504.42 971.964 1497.96 959.54 1491.49 948.735 C 1496.54 940.472 1501.93 935.619 1510.7 931.396 L 1513.1 930.537 L 1517.27 928.498 L 1517.72 927.117 C 1508.49 923.3 1493.9 936.146 1487.36 941.824 C 1483.62 935.306 1476.43 923.54 1473.6 917.09 z"/>
<path transform="translate(0,0)" fill="rgb(38,88,124)" d="M 1510.7 931.396 L 1513.1 930.537 C 1517.35 932.388 1520.39 930.389 1522.41 931.319 C 1545.75 942.087 1513.85 960.465 1508.05 943.187 C 1507.46 941.447 1510.27 934.318 1510.7 931.396 z"/>
<path transform="translate(0,0)" fill="rgb(46,103,141)" d="M 1484.72 835.234 C 1504.09 833.872 1514.27 849.052 1517.49 866.514 C 1518.56 872.306 1517.71 878.562 1517.17 884.415 C 1498.34 880.246 1486.83 884.661 1473.45 898.051 C 1470.27 902.162 1466.99 907.883 1464.22 912.4 C 1441.81 886.366 1448.79 844.612 1484.72 835.234 z"/>
<path transform="translate(0,0)" fill="rgb(67,139,175)" d="M 1551.35 967.637 C 1553.98 967.876 1557.81 967.656 1559.02 969.659 C 1568.91 986.099 1575.29 1012.18 1582.74 1029.2 C 1578.82 1030.73 1574.26 1030.07 1569.91 1029.88 L 1565.43 1029.72 C 1553.15 1031.18 1540.05 1033.8 1527.8 1036.01 C 1524.95 1022.02 1520.74 1007.03 1517.12 993.123 C 1524.65 976.36 1533.18 970.746 1551.35 967.637 z"/>
<path transform="translate(0,0)" fill="rgb(49,115,153)" d="M 1551.35 967.637 C 1553.98 967.876 1557.81 967.656 1559.02 969.659 C 1568.91 986.099 1575.29 1012.18 1582.74 1029.2 C 1578.82 1030.73 1574.26 1030.07 1569.91 1029.88 L 1565.43 1029.72 L 1567.88 1028.67 C 1569.61 1024.82 1556.64 981.483 1554.92 973.936 C 1554.59 972.477 1552.34 969.018 1551.35 967.637 z"/>
<path transform="translate(0,0)" fill="url(#Gradient5)" d="M 1061.95 1049.08 C 1064.21 1049.01 1066.48 1049.04 1068.74 1049.16 C 1116.49 1052.11 1127.96 1116.26 1124.82 1154.34 L 1118.71 1160.87 C 1113.29 1164.46 1110.86 1165.82 1104.95 1168.5 C 1106.64 1126.18 1097.04 1076.51 1061.95 1049.08 z"/>
<path transform="translate(0,0)" fill="rgb(67,139,175)" d="M 1312.36 1092.46 C 1331.45 1096.85 1337.89 1102.51 1344.98 1120.74 C 1346.23 1130.07 1346.46 1135.06 1344.63 1144.32 C 1334.79 1152.88 1321.55 1162.64 1310.96 1170.62 C 1310.88 1160.29 1310.54 1147.02 1308.37 1136.92 C 1302.62 1119.09 1300.87 1116.08 1288.63 1101.53 C 1297.23 1097.85 1303.48 1095.28 1312.36 1092.46 z"/>
<path transform="translate(0,0)" fill="rgb(49,115,153)" d="M 1344.98 1120.74 C 1346.23 1130.07 1346.46 1135.06 1344.63 1144.32 C 1334.79 1152.88 1321.55 1162.64 1310.96 1170.62 C 1310.88 1160.29 1310.54 1147.02 1308.37 1136.92 C 1321.46 1130.62 1331.32 1125.8 1344.98 1120.74 z"/>
<path transform="translate(0,0)" fill="url(#Gradient4)" d="M 1142.57 923.797 C 1156.54 927.053 1175.32 954.047 1171.53 968.27 C 1169.47 975.984 1148.06 988.493 1140.8 991.98 C 1138.16 993.256 1136.38 993.899 1133.6 994.887 C 1131.06 993.466 1131.36 984.39 1131.09 981.033 C 1129.52 961.166 1124.24 952.118 1110.7 939.02 C 1122.9 935.498 1132.11 930.802 1142.57 923.797 z"/>
<path transform="translate(0,0)" fill="rgb(38,88,124)" d="M 1235.56 1051.79 C 1238.24 1051.84 1261.25 1056.97 1266.52 1057.76 C 1289.45 1061.23 1313.81 1065.38 1336.92 1066.63 C 1328.84 1071.82 1321.84 1075.39 1313.3 1079.74 C 1302.98 1084.03 1288.73 1092.61 1278.99 1095.05 C 1270.98 1092.6 1266.54 1089.81 1257.41 1087.71 C 1251.47 1073.54 1246.3 1065.28 1232.53 1056.79 C 1230.91 1055.79 1230.61 1056.38 1229.81 1054.59 L 1235.56 1051.79 z"/>
<path transform="translate(0,0)" fill="rgb(49,115,153)" d="M 1167.88 1076.96 C 1187.72 1074.91 1202.75 1099.77 1197.62 1117.36 C 1195.25 1125.49 1180.21 1131.33 1172.98 1134.94 C 1168.42 1137.11 1162.94 1139.32 1158.24 1141.36 C 1158.6 1119.85 1160.37 1102.44 1145.44 1085.29 C 1152.29 1083.1 1161 1079.56 1167.88 1076.96 z"/>
<path transform="translate(0,0)" fill="rgb(67,139,175)" d="M 1582.74 1029.2 L 1584.5 1035.46 C 1587.15 1047.17 1590.22 1058.31 1593.4 1069.87 C 1586.54 1068.42 1584.28 1067.93 1577.36 1067.96 C 1559.77 1067.5 1548.3 1072.05 1533.3 1080.14 C 1533.08 1066.25 1531.41 1056.83 1529.09 1043.13 C 1542.91 1038.29 1555.59 1037.35 1570.09 1035.94 L 1569.91 1029.88 C 1574.26 1030.07 1578.82 1030.73 1582.74 1029.2 z"/>
<path transform="translate(0,0)" fill="rgb(49,115,153)" d="M 1582.74 1029.2 L 1584.5 1035.46 C 1587.15 1047.17 1590.22 1058.31 1593.4 1069.87 C 1586.54 1068.42 1584.28 1067.93 1577.36 1067.96 L 1580.25 1066.57 C 1575.78 1057.44 1573.36 1046.04 1571.24 1036.15 L 1570.09 1035.94 L 1569.91 1029.88 C 1574.26 1030.07 1578.82 1030.73 1582.74 1029.2 z"/>
<path transform="translate(0,0)" fill="rgb(29,56,89)" d="M 1582.74 1029.2 L 1584.5 1035.46 C 1579.69 1035.88 1576.05 1036.14 1571.24 1036.15 L 1570.09 1035.94 L 1569.91 1029.88 C 1574.26 1030.07 1578.82 1030.73 1582.74 1029.2 z"/>
<path transform="translate(0,0)" fill="url(#Gradient3)" d="M 1246.76 1096 C 1286.66 1097.73 1307.24 1142.07 1300.22 1178.68 C 1298.79 1186.14 1291.59 1193.28 1286.19 1198.35 C 1280.02 1202.77 1277.67 1204.06 1270.77 1207.27 C 1289.97 1177.5 1279.88 1124.07 1253.21 1100.95 C 1251.28 1099.27 1248.83 1097.54 1246.76 1096 z"/>
<path transform="translate(0,0)" fill="url(#Gradient2)" d="M 1463.2 823.312 C 1475.04 822.926 1481.96 824.125 1493 828.235 C 1481.06 828.76 1472.47 829.323 1462.04 836.158 C 1451.93 842.721 1444.88 853.07 1442.48 864.881 C 1438.78 882.772 1442.99 898.524 1452.69 913.553 L 1454.35 915.893 L 1453.72 917.121 C 1449.07 917.648 1442.25 914.015 1438.48 911.338 C 1417.49 896.392 1417.27 860.233 1431.51 840.731 C 1439.71 829.505 1449.99 825.44 1463.2 823.312 z"/>
<path transform="translate(0,0)" fill="rgb(49,115,153)" d="M 1392.53 1067.46 C 1414.66 1065.44 1424.08 1090.62 1414.79 1109.31 C 1410.07 1112.25 1393.17 1119.43 1387.29 1122.11 L 1386.62 1113.72 L 1386.54 1112.96 C 1384.5 1095.8 1376.78 1086.12 1361.05 1078.16 C 1357.39 1076.3 1351.46 1074.99 1348.71 1072.19 C 1353.05 1068.78 1384.36 1068.02 1392.53 1067.46 z"/>
<path transform="translate(0,0)" fill="url(#Gradient1)" d="M 1427.3 303.157 C 1433.99 303.043 1440.41 305.804 1444.92 310.741 C 1449.44 315.677 1451.62 322.314 1450.91 328.967 C 1449.68 340.527 1440.13 349.42 1428.51 349.825 C 1415.55 350.276 1404.7 340.071 1404.37 327.103 C 1404.03 314.135 1414.33 303.379 1427.3 303.157 z"/>
<path transform="translate(0,0)" fill="rgb(38,88,124)" d="M 1457.25 1058.23 L 1458.49 1058.71 C 1465.17 1073.37 1458.48 1095.77 1445.1 1104.38 C 1440.59 1107.28 1429.77 1112.55 1424.6 1111.7 L 1424.36 1109.72 C 1428.96 1089.05 1427.15 1083.21 1416.53 1066.41 C 1430.31 1065.45 1443.9 1061.66 1457.25 1058.23 z"/>
<path transform="translate(0,0)" fill="rgb(67,139,175)" d="M 1317.74 1085.15 C 1342.04 1077.32 1361.75 1081.59 1375.83 1104.26 C 1387.21 1127.41 1369.58 1130.3 1353.98 1140.53 C 1354.02 1130.12 1353.94 1126.2 1352.9 1116.02 C 1347.91 1097.77 1335.04 1089.28 1317.74 1085.15 z"/>
<path transform="translate(0,0)" fill="rgb(49,115,153)" d="M 1375.83 1104.26 C 1387.21 1127.41 1369.58 1130.3 1353.98 1140.53 C 1354.02 1130.12 1353.94 1126.2 1352.9 1116.02 C 1358.4 1112.8 1373.06 1108.58 1375.83 1104.26 z"/>
<path transform="translate(0,0)" fill="rgb(49,115,153)" d="M 1181.63 877.721 C 1183.55 879.866 1187.95 942.504 1187.96 950.297 L 1180.75 961.046 C 1179.27 955.705 1177.64 950.931 1175.83 945.687 C 1170.42 932.649 1161.9 924.914 1150.91 916.912 C 1164.88 903.591 1171.17 893.858 1181.63 877.721 z"/>
<path transform="translate(0,0)" fill="rgb(49,115,153)" d="M 1182.87 1070.53 C 1195.53 1065.55 1210.53 1057.67 1223.32 1060.86 C 1235.19 1067.27 1240.65 1074.1 1247.31 1085.77 C 1228.25 1084.82 1219.05 1085.57 1206.29 1101.02 C 1203.96 1090.96 1202.78 1088.59 1196.62 1080.29 C 1192.44 1076.36 1187.69 1073.59 1182.87 1070.53 z"/>
<path transform="translate(0,0)" fill="rgb(67,139,175)" d="M 1182.87 1070.53 C 1195.53 1065.55 1210.53 1057.67 1223.32 1060.86 C 1219.45 1064.24 1200.96 1078.3 1196.62 1080.29 C 1192.44 1076.36 1187.69 1073.59 1182.87 1070.53 z"/>
<path transform="translate(0,0)" fill="rgb(46,103,141)" d="M 1090.72 940.799 C 1100.35 941.131 1106.81 946.83 1112.23 954.519 C 1119.88 965.38 1125.98 981.849 1123.97 995.333 C 1123.46 998.737 1122.44 998.68 1119.83 1000.24 L 1106.7 1003.35 C 1102.49 982.568 1097.26 964.124 1089.63 944.448 C 1088.93 942.643 1089.67 942.428 1090.72 940.799 z"/>
<path transform="translate(0,0)" fill="rgb(38,88,124)" d="M 1279.05 780.231 C 1288.06 780.425 1305.66 782.473 1315.41 783.13 C 1328.78 784.032 1356.05 783.862 1367.62 786.812 L 1368.37 788.396 C 1365.79 790.898 1365.6 791.885 1364.96 795.398 C 1347.69 800.92 1300.1 796.421 1282.84 791.891 C 1280.52 786.802 1280.09 785.701 1279.05 780.231 z"/>
<path transform="translate(0,0)" fill="rgb(38,88,124)" d="M 1280.58 799.575 C 1311.57 802.018 1333.86 812.778 1368.59 803.463 C 1366.5 806.067 1364.21 808.486 1361.95 810.95 C 1361.55 811.176 1361.14 811.399 1360.74 811.62 C 1342.1 821.787 1314.86 822.484 1295.04 814.352 C 1287.45 811.237 1284.34 806.624 1280.58 799.575 z"/>
<path transform="translate(0,0)" fill="rgb(38,88,124)" d="M 1128.3 1092.86 C 1133.49 1092.98 1136.95 1092.27 1141.4 1095.84 C 1150.6 1103.21 1153.82 1137.84 1146.9 1145.9 C 1143.81 1147.75 1137.93 1150.06 1134.42 1151.55 C 1134.43 1125.28 1134.42 1118.11 1128.3 1092.86 z"/>
<path transform="translate(0,0)" fill="rgb(38,88,124)" d="M 998.488 910.142 L 1000.46 910.103 C 1004.78 913.591 1009.06 931.625 1010.79 937.6 L 995.336 943.646 L 992.399 944.255 C 988.252 939.766 984.83 921.091 983.235 914.002 L 998.488 910.142 z"/>
<path transform="translate(0,0)" fill="rgb(254,254,242)" d="M 142.933 886.966 L 142.961 663.437 L 142.856 599.131 C 142.841 587.909 142.48 575.052 143.594 563.96 C 144.181 558.106 148.127 551.118 152.341 546.912 C 161.443 537.827 171.616 536.134 184.01 536.121 C 234.932 536.068 285.887 536.108 336.803 536.119 L 637.809 536.162 L 795.31 536.102 C 822.006 536.089 848.802 535.727 875.466 536.583 C 890.691 537.071 906.443 549.244 907.963 564.883 C 910.468 590.658 909.212 618.165 909.093 644.218 C 923.013 657.39 938.461 669.681 952.678 683.039 C 938.593 695.947 923.33 708.031 909.121 721.217 L 909.097 885.152 L 909.178 958.524 C 909.197 971.67 910.282 987.591 908.055 1000.32 C 902.032 1034.77 866.463 1029.04 841.181 1029.04 L 778.454 1029 L 583.474 1028.97 L 310.628 1028.96 L 221.81 1028.99 C 206.02 1028.99 190.089 1029.09 174.304 1028.84 C 165.437 1028.7 157.814 1024.45 151.88 1017.9 C 147.648 1013.24 144.808 1007.49 143.681 1001.3 C 142.264 993.513 142.795 970.868 142.805 961.852 L 142.933 886.966 z"/>
<path transform="translate(0,0)" fill="rgb(29,56,89)" d="M 275.023 613.221 C 295.3 612.204 312.206 621.232 316.663 641.695 C 322.688 669.361 315.331 694.682 286.412 702.131 C 243.034 706.215 230.146 662.846 248.253 629.16 C 253.32 619.734 264.829 615.105 275.023 613.221 z"/>
<path transform="translate(0,0)" fill="rgb(254,254,242)" d="M 276.546 628.052 C 303.65 627.016 304.752 658.964 296.454 677.558 C 293.727 683.669 288.667 686.245 282.531 688.063 C 255.809 688.196 254.181 658.475 262.106 639.108 C 264.797 632.529 270.107 630.044 276.546 628.052 z"/>
<path transform="translate(0,0)" fill="rgb(29,56,89)" d="M 393.579 764.101 C 401.504 763.639 404.724 766.064 412.1 769.141 C 416.917 763.512 422.745 764.897 429.527 765.213 C 428.262 782.211 429.145 799.149 428.924 816.094 C 428.753 829.144 426.131 840.037 415.39 847.981 C 406.613 854.472 380.482 852.384 375.382 844.031 L 376.345 841.655 L 382.051 831.52 C 400.099 842.475 410.239 840.612 412.93 818.012 C 376.643 849.896 348.571 779.028 393.579 764.101 z"/>
<path transform="translate(0,0)" fill="rgb(254,254,242)" d="M 395.991 777.88 C 412.327 776.678 415.462 788.335 412.295 802.031 C 410.96 807.809 408.707 808.738 403.884 811.523 C 382.379 813.417 381.938 788.846 395.991 777.88 z"/>
<path transform="translate(0,0)" fill="rgb(29,56,89)" d="M 398.989 637.12 C 403.898 637.009 408.507 636.749 413.377 637.424 C 413.941 639.855 414.026 640.737 415.281 642.967 C 421.222 642.394 425.318 637.738 429.316 637.006 C 457.857 631.783 462.614 670.28 453.344 688.859 C 448.96 697.647 443.961 700.092 435.776 702.614 C 426.15 702.075 424.356 701.14 415.95 696.158 L 415.993 724.884 L 399.729 724.888 C 400.025 695.63 399.778 666.369 398.989 637.12 z"/>
<path transform="translate(0,0)" fill="rgb(254,254,242)" d="M 424.125 650.966 C 446.398 649.441 445.497 678.385 432.667 688.265 C 413.016 691.25 413.166 671.399 416.717 658.145 C 417.832 653.982 420.587 652.984 424.125 650.966 z"/>
<path transform="translate(0,0)" fill="rgb(29,56,89)" d="M 525.42 862.51 L 542.015 862.423 L 542.001 950.321 C 537.437 950.525 533.087 950.965 528.622 950.035 L 526.888 945.078 C 520.893 945.362 521.296 952.211 504.279 951.843 C 471.726 943.604 478.029 868.033 525.413 891.99 L 525.42 862.51 z"/>
<path transform="translate(0,0)" fill="rgb(254,254,242)" d="M 508.837 901.126 C 527.315 900.227 528.583 910.855 525.726 926.555 C 524.524 933.161 522.622 934.34 517.094 937.782 C 496.743 938.57 494.89 910.286 508.837 901.126 z"/>
<path transform="translate(0,0)" fill="rgb(29,56,89)" d="M 243.891 742.881 C 261.204 742.696 294.542 738.718 300.436 758.837 C 306.707 780.242 299.295 797.503 276.17 799.995 L 260.955 800.001 L 260.94 827.881 L 243.91 827.931 L 243.891 742.881 z"/>
<path transform="translate(0,0)" fill="rgb(254,254,242)" d="M 261.056 757.249 C 267.096 757.105 272.347 756.645 278.025 759.31 C 287.569 763.79 285.974 775.363 281.352 783.111 C 275.121 786.8 268.135 785.946 260.89 785.906 L 261.056 757.249 z"/>
<path transform="translate(0,0)" fill="rgb(29,56,89)" d="M 351.393 637.126 C 354.2 636.833 359.314 636.334 361.959 636.609 C 395.423 640.088 399.669 691.608 366.541 701.874 C 360.074 702.326 351.31 703.148 345.66 699.771 C 320.402 684.673 322.834 646.825 351.393 637.126 z"/>
<path transform="translate(0,0)" fill="rgb(254,254,242)" d="M 355.821 650.094 C 377.504 650.195 376.675 681.268 362.378 688.793 C 345.11 688.49 342.88 673.778 346.802 659.431 C 348.224 654.231 351.062 652.238 355.821 650.094 z"/>
<path transform="translate(0,0)" fill="rgb(29,56,89)" d="M 620.827 764.223 C 636.091 763.363 649.414 768.096 653.822 783.721 C 659.505 803.868 653.981 822.764 633.252 829.107 C 600.213 831.933 587.993 807.168 601.039 777.123 C 604.244 769.742 613.231 766.032 620.827 764.223 z"/>
<path transform="translate(0,0)" fill="rgb(254,254,242)" d="M 620.866 778.155 C 636.063 776.953 640.144 785.744 639.207 800.145 C 638.783 806.662 636.207 811.587 630.931 815.613 C 607.361 817.969 608.387 788.442 620.866 778.155 z"/>
<path transform="translate(0,0)" fill="rgb(29,56,89)" d="M 303.56 887.129 C 309.672 886.626 317.67 886.046 323.075 889.05 C 348.248 903.042 346.387 942.002 318.159 951.427 C 271.465 957.639 269.317 896.602 303.56 887.129 z"/>
<path transform="translate(0,0)" fill="rgb(254,254,242)" d="M 307.789 900.104 C 329.408 900.797 328.335 933.117 312.025 938.904 C 305.518 938.129 301.487 936.964 299.034 930.289 C 295.005 919.323 295.939 905.193 307.789 900.104 z"/>
<path transform="translate(0,0)" fill="rgb(29,56,89)" d="M 462.295 764.231 C 488.635 761.914 494.478 777.993 495.493 800.578 C 488.17 800.818 459.907 799.33 456.298 801.537 C 456.041 803.84 456.285 806.171 457.013 808.371 C 461.28 820.862 478.306 812.306 485.059 809.345 L 487.082 810.616 L 493.814 817.655 C 453.096 861.331 411.262 781.625 462.295 764.231 z"/>
<path transform="translate(0,0)" fill="rgb(254,254,242)" d="M 464.019 777.03 C 472.181 776.465 483.813 782.399 478.501 789.996 L 474.25 790.313 C 468.999 790.39 459.746 791.829 456.502 787.312 C 457.131 781.992 459.795 780.397 464.019 777.03 z"/>
<path transform="translate(0,0)" fill="rgb(29,56,89)" d="M 329.771 764.238 C 367.585 761.348 356.513 791.352 359.284 815.529 C 359.518 817.573 363.992 818.279 366.273 822.136 C 366.267 823.454 366.541 824.946 365.765 825.945 C 358.878 834.806 350.623 827.462 344.951 823.383 C 342.236 823.373 335.691 828.663 327.062 830.394 C 323.791 829.497 320.455 828.458 317.195 827.491 C 309.662 822.747 307.563 817.301 308.416 808.686 C 310.264 790.041 333.351 794.652 342.177 788.09 C 342.792 785.124 342.318 782.917 340.55 780.401 C 334.733 772.127 323.053 779.982 318.137 783.112 L 310.3 773.264 C 317.545 768.055 321.143 766.431 329.771 764.238 z"/>
<path transform="translate(0,0)" fill="rgb(254,254,242)" d="M 339.569 799.966 C 342.208 800.197 341.043 799.701 343.043 801.786 C 344.015 811.019 338.055 816.362 329.454 817.536 C 324.857 814.652 323.503 813.805 324.2 808.497 C 328.159 802.86 333.178 801.868 339.569 799.966 z"/>
<path transform="translate(0,0)" fill="rgb(29,56,89)" d="M 562.718 764.036 C 593.655 763.51 585.932 805.96 585.872 827.917 L 569.105 827.961 C 569.23 818.617 569.41 809.112 569.52 799.778 C 569.691 785.316 568.608 773.431 550.995 780.792 C 546.357 786.895 548.4 818.648 548.571 827.903 L 531.956 827.96 C 532.032 807.001 531.947 786.043 531.7 765.085 C 535.308 765.045 543.691 764.425 546.119 765.952 L 547.175 771.076 C 548.988 771.078 557.559 765.272 562.718 764.036 z"/>
<path transform="translate(0,0)" fill="rgb(29,56,89)" d="M 447.192 887.169 C 448.755 886.941 450.327 886.785 451.905 886.703 C 481.015 885.024 473.664 930.438 473.614 950.304 L 457.146 950.496 C 456.929 937.855 458.466 922.556 456.778 910.072 C 455.469 900.399 449.61 900.212 441.63 901.917 C 433.221 910.096 436.304 938.133 436.485 950.299 L 420.005 950.526 C 420.052 929.647 419.991 908.767 419.823 887.887 C 426.664 887.772 431.706 886.172 435.535 892.713 C 437.92 892.986 444.355 888.709 447.192 887.169 z"/>
<path transform="translate(0,0)" fill="rgb(29,56,89)" d="M 387.795 887.908 L 404.061 887.873 L 404.058 906.075 L 404.101 950.328 C 397.277 950.602 391.123 952.607 389.346 945.158 C 388.912 944.822 388.479 944.485 388.045 944.149 C 351.328 970.318 348.994 928.804 350.594 902.923 C 350.691 901.355 350.654 892.379 350.687 887.881 L 367.104 887.871 C 367.096 893.513 360.816 952.985 383.54 934.713 C 390.804 928.872 388.051 899.074 387.795 887.908 z"/>
<path transform="translate(0,0)" fill="rgb(29,56,89)" d="M 491.08 636.346 C 501.906 637.046 505.235 638.651 512.803 646.268 L 503.973 655.133 C 497.908 650.097 485.744 643.646 481.76 654.481 C 483.314 658.116 490.047 660.903 493.644 661.746 C 524.187 668.906 519.162 699.717 489.146 702.553 C 481.367 702.254 468.943 701.58 466.653 693.171 C 467.243 688.991 470.186 686.388 473.034 683.016 C 479.952 687.699 494.531 695.171 498.595 683.194 C 495.431 676.043 477.973 675.203 472.774 669.99 C 455.61 652.783 473.327 638.043 491.08 636.346 z"/>
<path transform="translate(0,0)" fill="rgb(29,56,89)" d="M 262.287 861.098 C 269.284 860.84 276.752 859.274 279.996 866.702 C 279.049 878.706 271.686 874.211 265.214 876.164 C 262.484 879.292 261.129 886.017 263.955 888.869 C 267.946 888.724 270.112 888.177 273.361 890.345 C 275.715 893.494 275.041 896.896 274.946 901.064 L 262.692 901.209 L 262.824 948.83 L 262.228 949.664 C 258.798 950.989 250.318 950.514 246.216 950.492 C 246.271 940.931 247.496 912.519 245.219 902.257 C 244.702 899.928 240.207 902.549 236.453 898.946 C 235.147 894.985 235.333 893.989 235.601 889.923 C 239.046 887.382 239.713 890.065 244.877 888.435 C 251.378 874.694 242.561 867.446 262.287 861.098 z"/>
<path transform="translate(0,0)" fill="rgb(29,56,89)" d="M 680.367 748.256 C 682.036 747.931 682.084 748.119 683.844 748.302 C 685.96 751.597 684.994 761.661 684.804 766.054 L 700.047 765.961 L 700.047 778.636 L 684.86 778.771 C 684.84 785.803 684.084 806.377 685.331 812.148 C 688.231 816.647 698.3 813.675 701.549 822.91 C 700.064 827.022 701.131 825.632 697.516 828.132 C 653.074 837.038 676.272 794.467 667.825 779.01 C 665.532 778.647 663.235 778.31 660.934 778 C 657.617 774.85 657.239 768.535 660.273 765.647 C 663.86 766.194 664.884 766.792 667.82 764.492 C 670.004 760.641 669.243 755.047 669.072 750.439 L 680.367 748.256 z"/>
<path transform="translate(0,0)" fill="rgb(29,56,89)" d="M 562.107 680.452 C 567.573 679.886 572.535 683.673 573.434 689.094 C 574.332 694.516 570.856 699.7 565.499 700.928 C 561.731 701.791 557.795 700.492 555.28 697.556 C 552.765 694.619 552.088 690.53 553.521 686.94 C 554.954 683.349 558.261 680.85 562.107 680.452 z"/>
<path transform="translate(0,0)" fill="rgb(29,56,89)" d="M 530.476 680.61 C 535.814 679.52 541.077 682.773 542.488 688.035 C 543.9 693.296 540.971 698.747 535.804 700.474 C 532.172 701.689 528.167 700.788 525.404 698.136 C 522.641 695.484 521.578 691.518 522.642 687.84 C 523.707 684.161 526.724 681.377 530.476 680.61 z"/>
<path transform="translate(0,0)" fill="rgb(29,56,89)" d="M 591.629 680.763 C 597.018 679.824 602.166 683.378 603.199 688.75 C 604.232 694.123 600.768 699.332 595.415 700.458 C 591.868 701.204 588.194 699.978 585.806 697.251 C 583.418 694.525 582.687 690.722 583.894 687.304 C 585.101 683.886 588.058 681.386 591.629 680.763 z"/>
<path transform="translate(0,0)" fill="rgb(254,220,165)" d="M 1684.25 767.121 C 1685.55 765.161 1687.97 757.904 1688.8 755.371 C 1701.8 715.823 1734.3 693.293 1775.34 690.345 C 1812.91 698.89 1831.29 729.895 1832.46 767.04 L 1684.25 767.121 z"/>
<path transform="translate(0,0)" fill="rgb(236,193,136)" d="M 1775.34 690.345 C 1826.63 689.619 1860.13 717.312 1871.8 766.951 L 1832.46 767.04 C 1831.29 729.895 1812.91 698.89 1775.34 690.345 z"/>
<path transform="translate(0,0)" fill="rgb(254,254,242)" d="M 525.227 233.423 C 591.197 234.448 615.781 283.408 620.673 341.611 C 626.259 408.07 612.984 490.088 530.572 496.215 C 462.546 497.052 436.268 444.664 432.57 384.872 C 428.417 317.753 442.24 237.916 525.227 233.423 z"/>
<path transform="translate(0,0)" fill="rgb(137,200,220)" d="M 520.513 284.106 C 563.19 282.173 564.878 328.813 564.476 360.562 C 564.087 391.242 566.876 437.469 532.258 449.328 C 502.03 453.619 490.857 424.641 489.309 399.718 C 487.293 367.273 479.896 295.689 520.513 284.106 z"/>
<path transform="translate(0,0)" fill="rgb(254,254,242)" d="M 742.827 237.225 C 761.146 236.695 781.491 237.125 799.964 237.123 L 799.909 394.073 L 834.096 394.104 L 834.038 440.086 L 799.799 440.195 C 800.198 457.014 799.922 474.777 799.899 491.672 C 787.508 491.78 761.606 492.687 750.855 491.463 C 748.756 489.26 749.399 488.725 749.192 485.043 L 749.189 440.633 C 715.992 440.927 682.793 440.874 649.597 440.475 C 649.457 433.657 648.422 404.703 650.276 400.573 C 657.503 384.467 670.582 362.587 679.768 346.882 C 700.965 310.648 721.168 272.92 742.827 237.225 z"/>
<path transform="translate(0,0)" fill="rgb(137,200,220)" d="M 748.649 304.706 C 749.81 309.238 749.416 330.995 749.393 336.319 L 749.331 393.036 L 701.275 393.042 C 701.185 390.255 743.839 314.122 748.649 304.706 z"/>
<path transform="translate(0,0)" fill="rgb(254,254,242)" d="M 300.069 237.104 L 356.02 237.106 L 356.045 393.943 L 390.782 394.004 L 390.696 440.805 C 379.532 440.438 367.272 440.675 356.023 440.672 L 356.096 491.74 C 349.16 491.797 308.258 492.964 305.251 490.533 L 304.963 486.25 L 304.99 440.74 C 272.852 441.408 238.84 440.867 206.562 440.838 C 206.262 434.104 205.239 404.533 207.318 400.749 C 237.103 346.569 268.852 290.395 300.069 237.104 z"/>
<path transform="translate(0,0)" fill="rgb(137,200,220)" d="M 304.476 306.665 C 306.018 310.894 304.994 381.713 304.989 393.021 L 257.526 393.044 C 257.544 391.291 300.083 314.926 304.476 306.665 z"/>
</svg>