<svg version="1.1" xmlns="http://www.w3.org/2000/svg" style="display: block;" viewBox="0 0 2048 1365" width="1536" height="1024" preserveAspectRatio="none">
<defs>
	<linearGradient id="Gradient1" gradientUnits="userSpaceOnUse" x1="1733.72" y1="561.025" x2="1739.92" y2="565.754">
		<stop class="stop0" offset="0" stop-opacity="0.12549" stop-color="rgb(23,141,217)"/>
		<stop class="stop1" offset="1" stop-opacity="0.164706" stop-color="rgb(30,140,214)"/>
	</linearGradient>
	<linearGradient id="Gradient2" gradientUnits="userSpaceOnUse" x1="1517.78" y1="689.801" x2="1527.79" y2="729.229">
		<stop class="stop0" offset="0" stop-opacity="0.227451" stop-color="rgb(18,133,214)"/>
		<stop class="stop1" offset="1" stop-opacity="0.262745" stop-color="rgb(17,128,204)"/>
	</linearGradient>
	<linearGradient id="Gradient3" gradientUnits="userSpaceOnUse" x1="1366.51" y1="857.775" x2="1304.75" y2="839.88">
		<stop class="stop0" offset="0" stop-opacity="0.117647" stop-color="rgb(30,141,213)"/>
		<stop class="stop1" offset="1" stop-opacity="0.227451" stop-color="rgb(14,132,210)"/>
	</linearGradient>
</defs>
<path transform="translate(0,0)" fill="rgb(19,161,254)" d="M 658.856 518.364 C 702.011 419.58 765.76 352.019 864.866 307.309 C 955.319 266.574 1058.24 263.377 1151.04 298.419 C 1238.26 331.6 1308.88 389.716 1355.72 470.701 C 1366.6 489.52 1373.28 504.667 1382.12 524.458 C 1477.07 547.427 1595.4 548.708 1687.58 514.712 C 1703.98 508.886 1719.46 501.428 1735.03 493.718 C 1741.96 490.284 1758.2 477.378 1765.38 480.997 C 1779.1 487.903 1763.1 513.797 1758.48 522.911 C 1754.42 529.174 1751.08 535.283 1747.45 541.791 C 1736.01 556.613 1725.96 573.308 1713.33 589.571 C 1707.87 594.578 1700.93 603.768 1695.57 609.556 C 1686.45 619.386 1677.2 628.434 1667.64 637.809 C 1663.35 641.479 1658.64 645.341 1654.63 649.266 L 1646.15 655.77 C 1577.88 710.706 1492.24 740.625 1404.86 740.98 C 1401.32 740.994 1396.83 740.904 1393.45 741.605 C 1392.47 741.859 1392.07 744.685 1391.66 746.109 C 1374.07 812.488 1349.4 859.31 1304.77 912.262 C 1297.17 921.28 1278.5 938.259 1273.81 944.18 C 1264.71 952.187 1255.52 960.087 1246.24 967.882 C 1230.48 978.896 1216.96 988.329 1200 997.775 C 1124.11 1040.05 1033.13 1049.53 948.234 1036.25 C 934.39 1034.08 916.228 1029.42 902.343 1026.06 C 880.667 1018.54 857.587 1009.44 837.408 998.405 C 831.671 995.373 825.643 991.729 819.988 988.459 C 807.19 980.878 796.322 972.948 784.247 964.225 C 738.878 926.316 701.535 883.39 677.373 828.629 C 671.501 815.609 666.21 802.335 661.515 788.846 C 659.07 781.75 646.841 737.952 643.848 735.518 C 636.499 734.469 626.701 730.852 619.293 728.813 C 603.249 724.397 582.585 718.069 566.324 715.942 C 540.84 709.326 487.214 705.832 460.909 706.444 C 392.647 708.635 332.268 721.112 271.363 752.818 C 264.341 756.473 259.649 758.044 251.783 758.942 C 249.273 757.941 246.917 756.858 244.972 754.91 C 242.593 752.522 241.282 749.272 241.339 745.901 C 241.597 725.329 304.549 654.704 321.597 638.69 C 422.301 544.094 524.811 516.405 658.856 518.364 z"/>
<path transform="translate(0,0)" fill="rgb(122,212,254)" d="M 994.548 285.409 C 999.685 284.473 1016.98 284.493 1022.64 284.51 C 1070.62 284.652 1120.12 295.569 1164.19 314.916 C 1264.54 358.967 1332.42 430.666 1373.67 530.84 C 1388.83 536.066 1411.55 540.547 1427.62 543.013 C 1514.94 556.419 1612.12 553.894 1694.96 521.926 C 1709.12 516.425 1722.94 510.065 1736.33 502.883 C 1741.64 500.004 1755.92 490.111 1760.56 490.34 L 1761.43 492.62 C 1759.75 509.767 1723.26 562.277 1712.21 576.307 C 1703.44 587.32 1694.12 597.881 1684.28 607.949 C 1608.2 686.257 1504.1 734.354 1393.95 731.073 C 1383.07 730.749 1383.75 737.88 1381.44 746.814 C 1364.65 812.147 1331.11 871.971 1284.14 920.388 C 1216.99 990.902 1124.12 1031.17 1026.75 1031.97 C 952.306 1032.23 888.62 1019.1 824.494 980.102 C 730.094 922.686 678.39 835.462 652.409 730.834 C 530.213 686.783 397.482 682.642 279.208 738.121 C 272.847 741.105 260.225 749.162 253.744 748.879 C 252.57 747.987 251.057 747.254 251.288 745.414 C 252.974 731.973 279.482 700.281 287.423 690.396 C 360.151 599.874 454.464 544.778 569.892 531.833 C 587.999 529.749 606.197 528.563 624.421 528.279 C 635.557 528.152 652.615 529.094 663.064 527.819 L 664.38 527.649 C 669.36 517.379 673.177 506.403 678.39 496.023 C 740.22 372.909 857.647 297.014 994.548 285.409 z"/>
<path transform="translate(0,0)" fill="rgb(252,254,254)" d="M 1001.03 291.421 C 1047.79 287.616 1100.13 297.288 1143.77 313.571 C 1221.54 342.092 1287.75 395.444 1332.15 465.373 C 1348.09 490.614 1356.85 509.782 1368.99 536.403 C 1378.42 539.398 1409.39 546.434 1419.04 547.951 C 1516.13 563.209 1626.46 560.427 1716.74 518.643 C 1727.47 513.68 1743.91 505.826 1753.25 499.264 C 1750.4 506.698 1745.15 514.647 1741.21 521.726 C 1723.28 553.953 1703.63 578.807 1678.11 605.305 C 1618.53 667.169 1539.84 708.502 1454.87 721.619 C 1430.27 725.415 1405.17 724.877 1380.3 725.101 C 1376.01 736.829 1372.37 757.214 1367.2 772.244 C 1347.5 828.651 1315.33 879.883 1273.07 922.12 C 1200.51 994.714 1114.46 1026.07 1012.75 1026.07 C 859.208 1029.25 722.861 924.888 673.364 781.962 C 667.145 764.005 663.176 745.453 657.032 727.733 C 652.761 725.215 646.066 722.412 641.208 720.746 C 543.949 687.397 434.801 680.489 335.73 710.029 C 307.98 718.303 281.944 730.94 256.107 742.88 C 262.237 731.727 274.857 716.38 282.995 705.879 C 357.911 609.219 450.648 550.354 573.425 537.505 C 591.605 535.56 609.876 534.584 628.161 534.583 C 640.761 534.528 656.716 535.368 668.874 533.938 C 673.014 526.422 679.24 509.452 683.674 500.271 C 697.302 472.31 714.486 446.227 734.798 422.67 C 791.674 356.67 869.428 312.127 955.131 296.447 C 970.76 293.617 985.246 292.651 1001.03 291.421 z"/>
<path transform="translate(0,0)" fill="rgb(19,161,254)" d="M 310.383 700.868 C 388.086 600.415 496.208 549.561 622.88 550.59 C 632.97 550.672 671.085 554.699 677.584 551.373 C 682.7 548.754 695.005 512.399 700.366 503.14 C 707.001 491.682 713.251 480.483 721.092 468.81 C 758.382 413.791 809.894 369.914 870.144 341.851 C 953.982 303.001 1047.41 297.095 1134.42 329.06 C 1213.9 357.639 1281.21 412.555 1325.17 484.683 C 1339 507.717 1346.83 526.807 1357.93 550.786 C 1364.92 554.435 1393.4 560.204 1403.13 562.094 C 1478.11 576.658 1560.94 577.305 1635.98 562.743 C 1656.63 558.735 1681.33 551.825 1701.57 545.905 C 1685.91 575.22 1648.99 612.77 1621.97 631.814 C 1571.56 669.369 1511.06 696.863 1448.12 703.493 C 1434.78 704.831 1421.39 705.598 1407.98 705.792 C 1394.42 706.014 1380 704.594 1366.64 705.663 C 1360.5 706.155 1359.85 732.122 1358.63 737.236 C 1340.33 813.361 1292.41 889.421 1230.2 937.05 C 1158.62 991.476 1068.79 1016.16 979.442 1005.95 C 979.217 1005.92 978.992 1005.89 978.767 1005.86 C 959.921 1007.29 908.947 992.483 891.012 985.208 C 800.789 949.16 729.255 877.751 693.049 787.591 C 687.792 774.11 683.368 760.319 679.802 746.295 C 677.686 737.943 673.884 720.233 670.724 713.016 L 670.265 711.995 C 653.468 702.686 616.608 694.944 596.926 690.606 C 505.129 670.374 399.216 666.724 310.383 700.868 z"/>
<path transform="translate(0,0)" fill="rgb(122,212,254)" d="M 310.383 700.868 C 388.086 600.415 496.208 549.561 622.88 550.59 C 632.97 550.672 671.085 554.699 677.584 551.373 C 682.7 548.754 695.005 512.399 700.366 503.14 C 707.001 491.682 713.251 480.483 721.092 468.81 C 758.382 413.791 809.894 369.914 870.144 341.851 C 953.982 303.001 1047.41 297.095 1134.42 329.06 C 1213.9 357.639 1281.21 412.555 1325.17 484.683 C 1339 507.717 1346.83 526.807 1357.93 550.786 C 1364.92 554.435 1393.4 560.204 1403.13 562.094 C 1478.11 576.658 1560.94 577.305 1635.98 562.743 C 1656.63 558.735 1681.33 551.825 1701.57 545.905 C 1685.91 575.22 1648.99 612.77 1621.97 631.814 C 1619.73 628.987 1620.25 628.501 1619.62 624.676 C 1626.31 617.649 1637.12 610.73 1644.56 603.896 C 1659.64 590.067 1670.65 575.877 1682.87 559.736 C 1582.67 589.731 1473.2 587.341 1371.92 563.861 C 1346.28 557.915 1348.02 547.09 1337.68 524.953 C 1264.65 368.694 1089.78 282.175 922.223 331.491 C 831.733 357.688 755.503 419.034 710.559 501.828 C 703.216 515.363 696.866 529.919 691.511 544.355 C 685.015 561.863 676.645 561.739 658.883 560.234 C 555.312 551.453 450.42 578.492 371.336 647.924 C 357.642 659.934 345.333 672.698 332.628 685.866 C 425.791 658.465 520.165 665.218 613.798 686.766 C 632.388 691.501 652.315 695.234 669.693 703.336 C 676.783 706.641 680.861 715.166 682.238 722.22 C 701.675 821.778 762.797 905.197 850.75 955.64 C 882.589 973.9 917.579 989.103 954.373 995.155 C 961.434 996.442 982.931 998.271 986.877 999.501 C 985.325 1004.27 981.093 1002.39 978.767 1005.86 C 959.921 1007.29 908.947 992.483 891.012 985.208 C 800.789 949.16 729.255 877.751 693.049 787.591 C 687.792 774.11 683.368 760.319 679.802 746.295 C 677.686 737.943 673.884 720.233 670.724 713.016 L 670.265 711.995 C 653.468 702.686 616.608 694.944 596.926 690.606 C 505.129 670.374 399.216 666.724 310.383 700.868 z"/>
<path transform="translate(0,0)" fill="rgb(122,212,254)" d="M 1007.51 336.5 C 1010.25 335.572 1012.43 335.529 1015.22 335.487 C 1119.15 334.055 1223.26 389.397 1284.37 472.726 C 1298.77 492.354 1310.61 505.582 1321.74 528.247 C 1327.39 539.747 1343.28 567.717 1354.38 571.688 C 1379.77 580.773 1409.9 586.339 1436.66 590.683 C 1456.56 597.222 1478.4 594.536 1498.45 597.718 C 1529.01 602.572 1558.3 596.391 1589.14 597.555 C 1592.95 597.699 1614.31 591.203 1616.72 594.017 C 1625.96 604.775 1601.53 610.714 1595.63 615.04 C 1590.15 621.938 1596.75 617.94 1591.4 619.989 L 1590.84 617.883 C 1588.85 618.293 1586.46 622.416 1584.66 624.108 C 1582.39 626.237 1579.18 625.936 1575.99 626.385 C 1573.68 624.611 1536.59 644.713 1531.83 647.945 C 1529.08 649.819 1527.63 646.652 1526.05 647.722 C 1516.16 654.446 1510.5 659.23 1498.03 660.432 L 1496.03 658.567 C 1466.49 676.85 1451.19 665.062 1420.68 670.665 C 1394.99 675.384 1351.9 672.281 1338.15 696.268 C 1327.86 714.211 1329.95 738.3 1325.78 758.697 C 1324.84 763.24 1324.88 770.018 1322.53 773.769 L 1321.68 773.507 C 1321.63 771.121 1321.96 771.772 1321.02 769.823 C 1298.2 819.526 1284.27 843.781 1245.49 884.045 C 1218.88 911.679 1195.99 930.341 1161.45 948.118 C 1155.99 950.932 1149.13 954.844 1143.71 957.25 C 1139.8 958.984 1130.39 959.89 1126.23 961.821 C 1105.14 971.625 1070.18 980.493 1046.67 981.568 C 1022.56 986.802 986.916 982.322 962.658 978.049 C 943.67 974.704 924.617 970.314 906.96 962.465 C 900.296 959.502 894.028 955.68 887.444 952.542 C 846.887 933.214 830.035 922.326 797.255 891.591 C 789.124 883.967 780.495 876.429 773.353 867.854 C 764.326 857.015 758.049 844.889 750.247 833.299 C 745.394 826.091 739.534 819.508 734.997 812.091 C 729.846 803.669 725.872 793.843 721.84 784.799 C 716.791 773.474 711.119 761.886 706.955 750.219 C 701.717 735.543 700.648 717.939 690.782 705.247 C 667.443 675.223 522.781 652.69 484.422 651.682 C 465.229 651.178 444.83 650.318 425.703 651.467 C 422.212 651.677 419.974 653.396 416.799 654.301 C 413.202 655.325 406.574 655.088 402.877 654.668 C 400.209 654.365 399.061 653.849 397.43 651.782 C 398.265 640.653 414.661 638.869 422.008 633.307 C 479.914 589.47 553.015 579.376 623.383 572.347 C 641.973 570.49 675.525 577.017 692.77 564.136 C 719.053 535.065 729.415 492.411 757.694 463.717 C 760.56 459.694 762.815 454.902 765.872 451.026 C 817.724 385.271 925.732 334.501 1007.51 336.5 z"/>
<path transform="translate(0,0)" fill="rgb(19,161,254)" d="M 1057.1 392.398 C 1087.91 387.599 1152.5 420.623 1175.65 440.486 C 1187.03 450.253 1232.89 488.636 1238.89 499.912 C 1257.36 534.607 1282.09 574.258 1280.1 614.679 C 1281.19 622.104 1283 630.023 1283.27 637.561 C 1284.35 667.689 1283.49 702.969 1276.19 732.205 C 1266.86 769.562 1242.24 811.227 1217.92 840.868 C 1206.8 854.428 1176.86 881.386 1162.29 890.25 C 1157.31 893.061 1152.27 895.772 1147.18 898.381 C 1124.64 909.694 1097.58 916.789 1073.77 906.966 C 970.193 862.961 958.807 734.415 1005.93 644.252 C 1009.5 637.413 1013.84 631.112 1017.75 624.611 C 1050.58 570.046 1086.86 513.239 1055.68 448.842 C 1052.79 441.925 1047.04 436.694 1044.02 429.858 C 1036.36 412.506 1039.43 399.953 1057.1 392.398 z"/>
<path transform="translate(0,0)" fill="rgb(122,212,254)" d="M 1058.95 402.987 C 1068.48 402.663 1081.83 406.465 1090.95 409.647 C 1143.27 427.911 1193.06 462.614 1224.44 508.729 C 1265.26 568.314 1280.84 641.631 1267.77 712.666 C 1254.17 782.98 1211.36 842.005 1152.44 881.675 C 1149.95 883.252 1147.4 884.751 1144.82 886.168 C 1125.57 896.705 1103.76 905.024 1082.07 898.224 C 1052.1 888.827 1022.91 859.426 1008.86 831.917 C 975.78 767.165 991.358 694.414 1025.29 633.537 C 1041.83 603.658 1063.21 572.621 1073 539.817 C 1083.49 504.668 1084.16 464.481 1061.33 434.03 C 1057.99 429.576 1052.15 424.198 1049.83 419.308 C 1048.67 416.861 1048.57 414.046 1049.55 411.521 C 1051.36 406.816 1054.6 404.745 1058.95 402.987 z"/>
<path transform="translate(0,0)" fill="rgb(252,254,254)" d="M 1060.62 409.85 C 1062.56 409.796 1065.71 409.851 1067.59 410.355 C 1284.88 468.765 1334.76 743.213 1151.37 873.411 C 1124.89 891.393 1096.06 901.553 1066.54 883.557 C 1036.41 865.188 1014.09 834.115 1004.55 800.485 C 982.846 723.936 1020.28 653.617 1059.58 590.253 C 1086.92 545.504 1103.12 476.535 1069.06 431.458 C 1063.03 423.471 1054.94 419.574 1060.62 409.85 z"/>
<path transform="translate(0,0)" fill="rgb(122,212,254)" d="M 1107.73 449.009 C 1115.01 451.653 1124.14 456.873 1130.7 461.105 C 1213.21 514.387 1257.2 624.537 1232.14 719.72 C 1218.59 771.224 1178.95 828.657 1132.71 855.345 C 1114.71 866.626 1097.24 874.937 1077.62 862.103 C 1043.64 839.878 1025.34 801.154 1023.5 761.611 C 1020.53 697.726 1060.97 649.587 1087.5 595.192 C 1112.13 544.713 1121.6 503.645 1107.73 449.009 z"/>
<path transform="translate(0,0)" fill="rgb(19,161,254)" d="M 1120.65 463.775 C 1123.69 465.226 1130.28 470.13 1133.2 472.235 C 1158.63 490.581 1179.32 514.094 1195.74 540.71 C 1228.17 592.824 1238.61 655.674 1224.77 715.474 C 1212.15 768.041 1173.69 821.639 1127.51 849.869 C 1085.17 878.996 1054.93 838.037 1040.26 801.36 C 1005.46 714.319 1082.75 642.56 1109.63 565.814 C 1123.88 525.125 1124.78 505.211 1120.65 463.775 z"/>
<path transform="translate(0,0)" fill="rgb(122,212,254)" d="M 1139.81 500.187 C 1140.01 500.195 1140.21 500.2 1140.4 500.21 C 1141.92 500.283 1144.69 500.458 1145.95 501.341 C 1149.86 504.081 1153.05 517.767 1155.3 522.434 C 1161.53 535.414 1172.48 546.017 1178.1 559.286 C 1182.84 570.498 1186.14 592.081 1194.03 600.589 C 1195.85 602.561 1197.79 604.917 1198.95 607.359 C 1204.47 618.961 1202.64 714.585 1197.75 728.764 C 1197.11 730.609 1198.78 730.538 1199.42 732.48 L 1193.85 736.071 C 1192.06 734.424 1192.4 733.108 1191.93 730.229 C 1190.23 735.325 1191.08 730.189 1188.01 734.695 C 1187.53 745.249 1179.58 754.774 1177.09 764.428 C 1175.07 772.205 1166.36 777.002 1166.84 780.731 L 1168.49 781.954 C 1167.36 784.779 1166.88 785.056 1164.73 787.323 C 1160.39 788.823 1161.13 787.38 1157.42 786.944 C 1151.61 786.259 1149.84 800.384 1145.89 804.747 C 1136.1 815.549 1124.69 821.623 1113.78 831.671 C 1113.4 833.529 1112.32 834.917 1111.29 836.546 C 1106.95 838.345 1095.3 839.399 1090.65 836.935 C 1083.7 835.779 1078.48 820.707 1076.15 818.977 C 1060.66 807.438 1064.33 806.465 1063.47 788.387 C 1062.84 775.242 1050.45 768.621 1057.48 753.282 C 1062.16 743.041 1060.96 721.814 1064.49 708.263 C 1069.17 704.702 1067.36 702.877 1070.15 700.774 C 1070.7 702.312 1070.9 703.177 1071.83 704.522 C 1072.33 700.771 1072.93 690.612 1076.21 688.749 L 1077.23 691.305 L 1078.23 689.16 L 1076.75 687.459 C 1084.95 683.642 1089.96 660.747 1095.51 652.133 C 1111.13 627.934 1123.22 604.048 1130.73 576.173 C 1131.78 572.292 1134.45 567.903 1136.16 564.244 C 1139.62 550.712 1142.98 532.157 1140.95 518.58 C 1139.11 512.14 1137.01 506.836 1139.81 500.187 z"/>
<path transform="translate(0,0)" fill="rgb(19,161,254)" d="M 943.49 389.5 C 973.045 389.238 1010.8 390.536 1025.76 424.527 C 1028.15 437.408 1036.45 448.116 1040 459.924 C 1055.07 510.091 1028.4 553.805 1001.61 592.322 C 978.585 625.423 968.167 650.7 955.315 686.835 C 951.92 696.38 953.75 702.613 949.419 711.565 C 940.877 751.888 950.309 802.676 964.904 840.681 C 969.148 855.32 995.88 887.29 997.316 900.721 C 1003.59 959.409 932.473 923.844 914.939 917.594 L 914.233 917.347 C 845.822 893.691 784.57 831.851 759.057 764.288 C 756.291 756.963 752.325 749.565 749.731 742.364 C 748.867 739.965 750.074 730.949 749.206 726.546 C 747.012 724.3 748.296 724.865 745.305 724.629 L 744.63 727.275 C 743.268 719.91 740.353 711.692 739.595 704.392 C 736.607 675.592 740.62 645.654 742.567 616.838 C 742.659 615.471 746.377 605.133 746.997 603.128 L 746.926 604.003 C 750.076 594.589 751.761 578.146 754.973 570.606 C 778.692 514.923 808.163 458.891 860.874 425.628 C 875.004 416.711 886.264 404.626 903.418 399.07 C 916.88 394.71 929.792 392.193 943.49 389.5 z"/>
<path transform="translate(0,0)" fill="rgb(122,212,254)" d="M 949.031 410.397 C 954.883 409.768 960.783 409.738 966.641 410.307 C 997.375 413.092 1018.76 434.516 1025.46 464.094 C 1038.02 521.047 990.298 570.255 962.332 615.724 C 916.424 690.361 913.285 776.92 951.806 855.612 C 955.607 863.376 959.847 870.277 964.29 877.639 C 969.278 885.904 986.594 902.442 985.7 911.835 C 977.214 926.777 926.691 903.181 915.423 898.162 C 753.199 821.682 705.079 635.993 819.48 493.043 C 851.935 452.488 895.38 416.136 949.031 410.397 z"/>
<path transform="translate(0,0)" fill="rgb(252,254,254)" d="M 953.333 417.4 C 988.798 415.884 1015.53 439.308 1018.35 474.586 C 1021.94 528.648 976.064 574.185 950.675 619.292 C 906.115 698.464 904.894 786.272 947.996 866.422 C 952.935 875.606 972.937 900.65 973.668 906.848 L 972.286 908.549 C 961.246 910.762 925.057 893.596 913.537 888.337 C 890.616 877.33 869.187 863.452 849.768 847.038 C 741.916 754.655 738.64 595.026 831.497 490.059 C 863.791 453.554 902.682 421.002 953.333 417.4 z"/>
<path transform="translate(0,0)" fill="rgb(122,212,254)" d="M 944.554 443.197 C 963.283 441.354 979.031 448.326 986.334 466.443 C 1003 506.823 962.453 552.946 940.776 586.044 C 878.878 680.551 878.262 762.711 922.531 865.755 C 910.223 861.515 897.196 852.856 886.49 845.633 C 781.321 770.942 759.246 631.855 835.044 527.64 C 861.254 491.603 898.577 451.542 944.554 443.197 z"/>
<path transform="translate(0,0)" fill="rgb(19,161,254)" d="M 945.805 451.339 C 979.5 446.764 989.038 486.081 977.853 510.251 C 954.243 561.266 915.209 601.529 896.735 656.098 C 875.86 717.762 881.024 792.24 908.836 850.892 C 899.147 844.218 889.623 837.308 880.272 830.167 C 838.52 798.036 810.39 751.368 801.476 699.444 C 791.426 640.706 807.586 579.654 842.195 531.769 C 866.117 498.672 903.65 458.481 945.805 451.339 z"/>
<path transform="translate(0,0)" fill="rgb(122,212,254)" d="M 956.487 466.631 L 959.18 468.845 C 960.097 472.856 962.903 477.33 964.962 481.041 C 964.879 484.333 958.773 489.069 958.78 489.787 C 959.019 515.82 935.943 536.951 923.962 558.433 C 920.173 565.226 920.499 576.249 916.652 583.717 C 916.569 580.86 916.89 575.863 915.345 573.828 C 903.642 578.185 885.846 636.207 878.739 648.88 C 876.309 653.212 878.624 663.833 876.146 670.262 L 874.806 670.631 L 873.89 666.963 C 865.632 674.151 864.258 761.563 870.614 776.988 C 874.987 787.601 884.215 807.692 886.366 818.589 L 885.446 819.817 C 879.107 818.387 867.307 805.456 866.74 798.765 C 863.077 794.289 851.199 779.446 849.258 775.009 C 850.065 762.587 845.152 765.212 840.803 756.757 C 838.809 749.02 831.05 736.088 829.549 728.983 C 826.096 712.649 821.423 691.169 819.864 675.026 L 819.669 676.023 C 818.066 666.33 820.028 642.362 822.485 632.772 L 822.65 633.757 C 827.867 624.736 831.818 596.526 837.489 583.147 C 851.247 550.693 873.141 530.147 896.508 504.682 C 913.028 486.678 926.947 476.9 951.473 472.571 C 952.619 472.369 953.732 468.624 956.487 466.631 z"/>
<path transform="translate(0,0)" fill="rgb(17,128,206)" fill-opacity="0.25098" d="M 251.783 758.942 C 259.649 758.044 264.341 756.473 271.363 752.818 C 332.268 721.112 392.647 708.635 460.909 706.444 L 462.102 706.939 C 474.06 711.974 472.535 713.8 487.137 711.514 C 489.961 711.071 504.051 714.584 507.976 714.399 C 523.003 713.692 550.76 720.965 564.428 719.344 L 566.324 715.942 C 582.585 718.069 603.249 724.397 619.293 728.813 C 626.701 730.852 636.499 734.469 643.848 735.518 C 644.902 740.538 645.441 739.658 644.059 744.085 C 636.937 750.552 623.426 738.715 613.995 738.52 C 604.502 738.322 593.901 732.763 583.971 731.056 C 517.136 719.568 443.445 712.506 376.209 728.334 C 354.377 733.272 332.952 739.862 312.119 748.046 C 296.289 754.392 280.722 761.474 264.736 767.446 C 259.513 769.398 257.115 764.603 257.209 760.118 L 256.323 758.913 C 254.38 759.05 253.731 759.214 251.783 758.942 z"/>
<path transform="translate(0,0)" fill="rgb(25,136,211)" fill-opacity="0.203922" d="M 1273.81 944.18 L 1273.91 948.263 C 1277.64 950.161 1279.91 948.307 1285.07 948.322 C 1271.34 961.826 1252.39 981.007 1236.3 991.216 C 1172.7 1031.57 1096.48 1055 1021 1053.47 C 964.608 1052.33 898.674 1042.23 848.337 1016.03 C 844.886 1006.75 835.847 1012.43 837.408 998.405 C 857.587 1009.44 880.667 1018.54 902.343 1026.06 L 896.711 1027.61 L 897.153 1027.72 L 896.724 1029.29 C 1007.1 1066.26 1138.98 1049.94 1236.32 985.35 C 1240.11 982.835 1251.29 973.499 1252.05 968.924 L 1250.49 967.459 L 1246.24 967.882 C 1255.52 960.087 1264.71 952.187 1273.81 944.18 z"/>
<path transform="translate(0,0)" fill="url(#Gradient3)" d="M 1391.66 746.109 C 1392.27 747.351 1392.82 748.094 1392.95 749.413 C 1393.73 753.915 1392.92 752.604 1395.53 755.456 C 1398.83 755.749 1401.6 753.452 1404.64 751.615 C 1423.26 752.699 1446.75 749.864 1466.16 750.009 L 1465.37 753.029 C 1460.74 753.923 1445.1 753.559 1439.37 753.716 C 1428.03 754.029 1415.96 754.756 1404.7 754.737 C 1392.97 770.815 1384 801.497 1375.81 820.752 C 1367.27 840.832 1358.53 855.173 1345.64 872.984 C 1342.15 877.805 1339.94 886.483 1337.33 890.084 C 1322.29 910.836 1303.35 930.586 1285.07 948.322 C 1279.91 948.307 1277.64 950.161 1273.91 948.263 L 1273.81 944.18 C 1278.5 938.259 1297.17 921.28 1304.77 912.262 C 1349.4 859.31 1374.07 812.488 1391.66 746.109 z"/>
<path transform="translate(0,0)" fill="rgb(17,128,206)" fill-opacity="0.247059" d="M 1246.24 967.882 L 1250.49 967.459 L 1252.05 968.924 C 1251.29 973.499 1240.11 982.835 1236.32 985.35 C 1138.98 1049.94 1007.1 1066.26 896.724 1029.29 L 897.153 1027.72 L 896.711 1027.61 L 902.343 1026.06 C 916.228 1029.42 934.39 1034.08 948.234 1036.25 C 1033.13 1049.53 1124.11 1040.05 1200 997.775 C 1216.96 988.329 1230.48 978.896 1246.24 967.882 z"/>
<path transform="translate(0,0)" fill="url(#Gradient2)" d="M 1646.15 655.77 C 1648.89 658.75 1648.19 657.273 1648.72 661.374 C 1646.84 667.231 1594.21 700.725 1585.4 704.998 C 1541.73 726.2 1491.8 744.229 1442.88 745.042 C 1434.15 745.187 1398.77 750.561 1392.95 749.413 C 1392.82 748.094 1392.27 747.351 1391.66 746.109 C 1392.07 744.685 1392.47 741.859 1393.45 741.605 C 1396.83 740.904 1401.32 740.994 1404.86 740.98 C 1492.24 740.625 1577.88 710.706 1646.15 655.77 z"/>
<path transform="translate(0,0)" fill="rgb(25,136,211)" fill-opacity="0.203922" d="M 1670.09 642.363 C 1676.68 639.24 1679.55 633.999 1685.72 632.868 L 1685.59 636.478 C 1683.3 638.206 1681.42 639.375 1679.74 641.698 C 1629.08 687.301 1588.03 715.357 1522.68 736.094 C 1503.28 742.251 1484.1 744.698 1466.16 750.009 C 1446.75 749.864 1423.26 752.699 1404.64 751.615 C 1401.6 753.452 1398.83 755.749 1395.53 755.456 C 1392.92 752.604 1393.73 753.915 1392.95 749.413 C 1398.77 750.561 1434.15 745.187 1442.88 745.042 C 1491.8 744.229 1541.73 726.2 1585.4 704.998 C 1594.21 700.725 1646.84 667.231 1648.72 661.374 C 1648.19 657.273 1648.89 658.75 1646.15 655.77 L 1654.63 649.266 C 1654.05 651.187 1653.68 651.728 1654.01 653.7 C 1659.04 654.792 1666.95 645.775 1670.09 642.363 z"/>
<path transform="translate(0,0)" fill="url(#Gradient1)" d="M 1747.45 541.791 L 1748.52 541.411 C 1750.17 540.806 1751.03 540.273 1752.56 539.404 L 1754.03 539.812 C 1756.33 552.116 1697.7 625.077 1685.59 636.478 L 1685.72 632.868 C 1686.85 632.014 1693.33 623.645 1694.39 622.119 C 1701.66 611.711 1717.11 598.887 1720.52 586.754 C 1717.7 586.208 1718.21 587.525 1714.48 589.1 L 1713.33 589.571 C 1725.96 573.308 1736.01 556.613 1747.45 541.791 z"/>
<path transform="translate(0,0)" fill="rgb(17,128,206)" fill-opacity="0.270588" d="M 460.909 706.444 C 487.214 705.832 540.84 709.326 566.324 715.942 L 564.428 719.344 C 550.76 720.965 523.003 713.692 507.976 714.399 C 504.051 714.584 489.961 711.071 487.137 711.514 C 472.535 713.8 474.06 711.974 462.102 706.939 L 460.909 706.444 z"/>
<path transform="translate(0,0)" fill="rgb(25,136,211)" fill-opacity="0.0823529" d="M 1758.48 522.911 C 1760.07 523.217 1761.49 523.143 1763.09 523.013 C 1771.27 534.258 1697.7 638.476 1679.74 641.698 C 1681.42 639.375 1683.3 638.206 1685.59 636.478 C 1697.7 625.077 1756.33 552.116 1754.03 539.812 L 1752.56 539.404 C 1751.03 540.273 1750.17 540.806 1748.52 541.411 L 1747.45 541.791 C 1751.08 535.283 1754.42 529.174 1758.48 522.911 z"/>
<path transform="translate(0,0)" fill="rgb(25,136,211)" fill-opacity="0.211765" d="M 1713.33 589.571 L 1714.48 589.1 C 1718.21 587.525 1717.7 586.208 1720.52 586.754 C 1717.11 598.887 1701.66 611.711 1694.39 622.119 C 1693.33 623.645 1686.85 632.014 1685.72 632.868 C 1679.55 633.999 1676.68 639.24 1670.09 642.363 C 1668.82 640.188 1670.35 640.669 1667.64 637.809 C 1677.2 628.434 1686.45 619.386 1695.57 609.556 C 1700.93 603.768 1707.87 594.578 1713.33 589.571 z"/>
<path transform="translate(0,0)" fill="rgb(25,136,211)" fill-opacity="0.113725" d="M 784.247 964.225 C 796.322 972.948 807.19 980.878 819.988 988.459 C 819.594 990.131 819.444 990.805 819.284 992.508 L 815.623 991.67 L 814.898 992.747 C 816.867 993.801 821.471 995.19 821.705 995.401 C 826.921 1000.1 832.841 1005.43 837.145 1010.82 C 820.714 1001.25 801.281 988.848 787.09 976.338 C 783.437 973.118 784.266 969.211 784.247 964.225 z"/>
<path transform="translate(0,0)" fill="rgb(25,136,211)" fill-opacity="0.133333" d="M 819.988 988.459 C 825.643 991.729 831.671 995.373 837.408 998.405 C 835.847 1012.43 844.886 1006.75 848.337 1016.03 C 842.927 1014.28 841.842 1013.94 837.145 1010.82 C 832.841 1005.43 826.921 1000.1 821.705 995.401 C 821.471 995.19 816.867 993.801 814.898 992.747 L 815.623 991.67 L 819.284 992.508 C 819.444 990.805 819.594 990.131 819.988 988.459 z"/>
<path transform="translate(0,0)" fill="rgb(25,136,211)" fill-opacity="0.223529" d="M 1654.63 649.266 C 1658.64 645.341 1663.35 641.479 1667.64 637.809 C 1670.35 640.669 1668.82 640.188 1670.09 642.363 C 1666.95 645.775 1659.04 654.792 1654.01 653.7 C 1653.68 651.728 1654.05 651.187 1654.63 649.266 z"/>
</svg>