<?xml version="1.0" encoding="UTF-8"?>
<svg version="1.1" xmlns="http://www.w3.org/2000/svg" width="1536" height="1024">
<path d="M0,0 L1536,0 L1536,1024 L0,1024 Z " fill="#89CDE6" transform="translate(0,0)"/>
<path d="M0,0 L14,0 L27,4 L37,9 L47,18 L52,26 L54,33 L54,42 L65,42 L65,90 L171,90 L171,430 L-1365,430 L-1365,90 L-392,90 L-388,131 L-384,156 L-378,168 L-371,174 L-362,178 L-360,221 L-358,247 L-358,267 L-373,271 L-386,278 L-396,287 L-403,298 L-403,310 L-402,313 L-398,315 L-390,319 L-379,322 L-366,324 L-342,324 L-323,321 L-305,315 L-295,309 L-290,303 L-290,293 L-294,262 L-295,247 L-295,189 L-285,189 L-262,191 L-260,205 L-256,256 L-254,282 L-267,289 L-279,301 L-284,309 L-286,315 L-286,322 L-284,327 L-278,329 L-268,332 L-247,334 L-224,334 L-208,332 L-193,327 L-185,322 L-182,319 L-183,307 L-187,283 L-190,253 L-191,239 L-191,189 L-181,184 L-174,175 L-170,164 L-166,141 L-162,114 L-161,114 L-159,131 L-158,146 L-158,163 L-167,170 L-177,183 L-186,198 L-188,204 L-188,213 L-185,220 L-181,224 L-177,225 L-168,225 L-171,238 L-170,247 L-167,252 L-164,255 L-161,256 L-144,256 L-136,260 L-128,260 L-118,256 L-111,250 L-102,249 L-96,245 L-92,240 L-87,228 L-84,213 L-84,192 L-89,178 L-96,169 L-97,168 L-98,138 L-100,114 L-104,90 L-48,90 L-48,42 L-39,42 L-39,33 L-35,23 L-31,17 L-23,9 L-15,4 L-6,1 Z " fill="#FEDFA9" transform="translate(1365,594)"/>
<path d="M0,0 L9,0 L19,3 L28,10 L34,19 L36,25 L36,35 L33,45 L27,53 L19,59 L9,62 L3,62 L-1,81 L-5,96 L19,100 L44,106 L63,113 L79,121 L91,129 L101,138 L108,145 L118,160 L126,177 L133,202 L135,214 L136,232 L141,233 L150,239 L156,248 L160,259 L161,264 L161,279 L158,299 L152,315 L145,326 L137,332 L129,335 L119,335 L118,342 L110,357 L102,367 L92,376 L76,384 L56,390 L41,392 L17,393 L39,398 L50,402 L59,409 L64,416 L67,421 L77,430 L86,440 L97,456 L105,472 L112,491 L118,516 L121,539 L122,553 L123,583 L129,590 L134,600 L136,607 L136,628 L133,643 L128,655 L121,663 L117,665 L108,666 L101,672 L91,676 L83,676 L75,672 L58,672 L53,669 L49,665 L47,659 L48,648 L51,640 L49,641 L42,641 L35,638 L31,632 L30,628 L30,619 L34,609 L42,597 L51,585 L59,578 L61,578 L58,534 L55,548 L51,574 L48,586 L41,597 L36,601 L30,604 L28,604 L29,654 L32,689 L36,715 L38,728 L38,734 L30,741 L18,746 L5,749 L-5,750 L-28,750 L-49,748 L-62,744 L-67,739 L-68,737 L-68,730 L-64,721 L-58,713 L-48,703 L-37,697 L-35,697 L-36,695 L-41,636 L-43,606 L-58,606 L-76,604 L-75,662 L-73,685 L-70,708 L-70,718 L-77,726 L-91,733 L-109,738 L-123,740 L-147,740 L-164,737 L-175,733 L-183,728 L-185,725 L-185,713 L-178,702 L-170,694 L-160,688 L-151,684 L-139,682 L-141,648 L-143,615 L-143,593 L-148,592 L-157,586 L-163,578 L-167,567 L-171,538 L-173,513 L-174,494 L-174,477 L-189,482 L-203,485 L-212,486 L-232,486 L-244,484 L-259,478 L-270,472 L-284,462 L-294,453 L-306,441 L-318,438 L-329,432 L-341,421 L-352,405 L-360,392 L-365,380 L-366,375 L-366,367 L-362,361 L-357,357 L-351,356 L-351,344 L-345,335 L-338,331 L-332,331 L-331,325 L-326,319 L-319,316 L-309,316 L-298,320 L-289,327 L-282,335 L-276,345 L-273,354 L-265,348 L-257,345 L-250,345 L-244,349 L-241,357 L-241,365 L-244,380 L-249,395 L-251,401 L-242,413 L-233,421 L-223,426 L-220,427 L-205,427 L-195,424 L-182,417 L-168,407 L-161,397 L-154,391 L-142,385 L-128,383 L-102,384 L-101,382 L-117,380 L-148,374 L-171,368 L-184,363 L-197,356 L-209,345 L-216,336 L-222,324 L-226,308 L-227,302 L-227,265 L-223,222 L-219,199 L-213,178 L-205,160 L-198,148 L-189,136 L-176,123 L-163,114 L-147,106 L-129,100 L-109,96 L-97,94 L-84,93 L-31,93 L-16,94 L-15,85 L-9,61 L-8,59 L-13,57 L-19,52 L-24,44 L-26,37 L-26,24 L-22,14 L-18,9 L-8,2 Z " fill="#13385F" transform="translate(1146,179)"/>
<path d="M0,0 L51,0 L83,4 L111,10 L138,19 L157,28 L173,40 L182,49 L192,64 L199,80 L203,92 L207,111 L208,119 L208,129 L198,131 L190,137 L184,144 L178,157 L175,168 L174,177 L174,198 L177,214 L183,225 L191,230 L190,238 L184,250 L173,262 L163,269 L152,274 L129,280 L119,281 L71,281 L24,277 L-16,272 L-60,264 L-81,259 L-96,254 L-111,246 L-122,236 L-129,225 L-134,213 L-137,197 L-137,153 L-133,117 L-127,90 L-120,71 L-110,52 L-100,39 L-91,30 L-77,20 L-58,11 L-41,6 L-19,2 Z " fill="#4EA1CE" transform="translate(1065,281)"/>
<path d="M0,0 L9,0 L19,3 L28,10 L34,19 L36,25 L36,35 L33,45 L27,53 L19,59 L9,62 L3,62 L-1,81 L-5,96 L19,100 L44,106 L63,113 L79,121 L91,129 L101,138 L108,145 L118,160 L126,177 L133,202 L135,214 L136,232 L141,233 L150,239 L156,248 L160,259 L161,264 L161,279 L158,299 L152,315 L145,326 L137,332 L129,335 L119,335 L118,342 L110,357 L102,367 L92,376 L76,384 L56,390 L41,392 L17,393 L39,398 L50,402 L59,409 L64,416 L67,421 L77,430 L86,440 L97,456 L104,470 L103,473 L101,476 L100,483 L99,484 L92,484 L92,482 L99,482 L92,466 L83,451 L75,442 L62,442 L54,446 L48,454 L46,461 L45,472 L44,472 L44,460 L45,455 L43,449 L43,445 L48,439 L56,434 L68,432 L60,426 L53,423 L42,423 L36,427 L31,433 L28,442 L28,461 L33,473 L33,476 L31,472 L30,476 L28,476 L27,478 L22,471 L19,462 L18,454 L18,445 L21,432 L27,422 L36,415 L48,412 L35,407 L18,403 L-14,397 L-15,401 L-20,405 L-29,408 L-43,410 L-67,410 L-80,408 L-92,404 L-98,399 L-99,395 L-110,394 L-116,393 L-132,393 L-145,397 L-154,403 L-160,412 L-164,425 L-165,433 L-165,478 L-164,505 L-161,540 L-157,567 L-154,574 L-149,580 L-139,585 L-113,590 L-94,593 L-98,598 L-91,600 L-91,601 L-100,601 L-125,598 L-135,596 L-135,610 L-137,612 L-140,613 L-140,648 L-141,648 L-143,615 L-143,593 L-148,592 L-157,586 L-163,578 L-167,567 L-171,538 L-173,513 L-174,494 L-174,477 L-189,482 L-203,485 L-212,486 L-232,486 L-244,484 L-259,478 L-270,472 L-284,462 L-294,453 L-306,441 L-318,438 L-329,432 L-341,421 L-352,405 L-360,392 L-365,380 L-366,375 L-366,367 L-362,361 L-357,357 L-351,356 L-351,344 L-345,335 L-338,331 L-332,331 L-331,325 L-326,319 L-319,316 L-309,316 L-298,320 L-289,327 L-282,335 L-276,345 L-273,354 L-265,348 L-257,345 L-250,345 L-244,349 L-241,357 L-241,365 L-244,380 L-249,395 L-251,401 L-242,413 L-233,421 L-223,426 L-220,427 L-205,427 L-195,424 L-182,417 L-168,407 L-161,397 L-154,391 L-142,385 L-128,383 L-102,384 L-101,382 L-117,380 L-148,374 L-171,368 L-184,363 L-197,356 L-209,345 L-216,336 L-222,324 L-226,308 L-227,302 L-227,265 L-223,222 L-219,199 L-213,178 L-205,160 L-198,148 L-189,136 L-176,123 L-163,114 L-147,106 L-129,100 L-109,96 L-97,94 L-84,93 L-31,93 L-16,94 L-15,85 L-9,61 L-8,59 L-13,57 L-19,52 L-24,44 L-26,37 L-26,24 L-22,14 L-18,9 L-8,2 Z M-81,102 L-105,105 L-130,110 L-146,116 L-161,124 L-174,134 L-183,143 L-193,157 L-203,178 L-209,196 L-214,219 L-218,255 L-218,299 L-215,315 L-208,331 L-200,341 L-192,348 L-177,356 L-158,362 L-131,368 L-97,374 L-57,379 L-10,383 L38,383 L53,381 L74,375 L87,368 L97,359 L104,350 L109,340 L110,332 L101,326 L96,316 L93,300 L93,279 L95,265 L100,252 L106,242 L115,234 L119,232 L127,231 L127,221 L124,204 L120,187 L112,168 L103,154 L94,144 L86,137 L72,128 L55,120 L26,111 L2,106 L-30,102 Z " fill="#133459" transform="translate(1146,179)"/>
<path d="M0,0 L16,0 L33,3 L37,9 L45,13 L56,16 L65,17 L89,17 L107,14 L115,10 L118,5 L129,6 L156,11 L176,17 L181,20 L181,21 L168,24 L160,30 L154,40 L151,53 L151,62 L153,73 L154,79 L153,118 L150,167 L147,202 L146,207 L102,207 L69,205 L33,201 L8,197 L-7,194 L-17,189 L-24,181 L-27,170 L-31,137 L-33,113 L-34,86 L-34,41 L-31,25 L-25,13 L-17,6 L-4,1 Z " fill="#4DA0CD" transform="translate(1014,571)"/>
<path d="M0,0 L11,0 L21,5 L27,10 L27,11 L14,13 L5,19 L1,25 L2,29 L4,34 L4,35 L8,27 L15,21 L20,19 L33,19 L42,29 L52,46 L57,58 L57,60 L50,60 L50,62 L57,61 L58,54 L60,49 L63,50 L70,69 L76,94 L79,117 L80,131 L81,161 L87,168 L92,178 L94,185 L94,206 L91,221 L86,233 L79,241 L75,243 L66,244 L59,250 L49,254 L41,254 L33,250 L16,250 L11,247 L7,243 L5,237 L6,226 L9,218 L7,219 L0,219 L-7,216 L-11,210 L-12,206 L-12,197 L-8,187 L0,175 L9,163 L17,156 L19,156 L16,112 L13,118 L11,132 L8,134 L5,134 L4,132 L-1,159 L-6,167 L-13,173 L-22,176 L-28,176 L-25,137 L-22,88 L-21,49 L-18,50 L-15,55 L-12,54 L-13,50 L-11,50 L-10,51 L-15,39 L-15,20 L-11,10 L-4,2 Z " fill="#14365B" transform="translate(1188,601)"/>
<path d="M0,0 L10,0 L21,4 L30,11 L37,19 L43,29 L46,38 L54,32 L62,29 L69,29 L75,33 L78,41 L78,49 L75,64 L70,79 L68,85 L77,97 L86,105 L96,110 L99,111 L114,111 L123,110 L128,109 L131,106 L133,106 L134,110 L136,111 L144,106 L147,104 L146,113 L146,149 L148,144 L152,144 L152,171 L151,171 L150,166 L148,163 L148,184 L147,184 L147,161 L130,166 L116,169 L107,170 L87,170 L75,168 L60,162 L49,156 L35,146 L25,137 L13,125 L1,122 L-10,116 L-22,105 L-33,89 L-41,76 L-46,64 L-47,59 L-47,51 L-43,45 L-38,41 L-32,40 L-32,28 L-26,19 L-19,15 L-13,15 L-12,9 L-7,3 Z " fill="#123459" transform="translate(827,495)"/>
<path d="M0,0 L10,0 L33,2 L35,16 L39,67 L41,93 L28,100 L16,112 L11,120 L9,126 L9,133 L11,138 L17,140 L27,143 L48,145 L71,145 L87,143 L102,138 L110,133 L113,130 L112,118 L110,104 L134,106 L174,111 L200,117 L210,122 L212,124 L211,129 L203,134 L185,139 L161,143 L137,146 L79,150 L-39,150 L-83,148 L-132,144 L-164,139 L-185,133 L-194,127 L-193,123 L-188,119 L-170,113 L-149,109 L-127,106 L-108,105 L-108,121 L-107,124 L-103,126 L-95,130 L-84,133 L-71,135 L-47,135 L-28,132 L-10,126 L0,120 L5,114 L5,104 L1,73 L0,58 Z " fill="#E9BF87" transform="translate(1070,783)"/>
<path d="M0,0 L1,0 L3,9 L-10,21 L-18,31 L-26,45 L-32,58 L-38,76 L-43,99 L-47,135 L-47,179 L-44,195 L-37,211 L-29,221 L-19,229 L-2,237 L24,244 L55,250 L82,254 L113,258 L160,262 L160,263 L173,264 L202,265 L203,270 L206,271 L184,272 L213,279 L223,284 L231,291 L236,300 L248,311 L259,324 L269,339 L274,350 L273,353 L271,356 L270,363 L269,364 L262,364 L262,362 L269,362 L262,346 L253,331 L245,322 L232,322 L224,326 L218,334 L216,341 L215,352 L214,352 L214,340 L215,335 L213,329 L213,325 L218,319 L226,314 L238,312 L230,306 L223,303 L212,303 L206,307 L201,313 L198,322 L198,341 L203,353 L203,356 L201,352 L200,356 L198,356 L197,358 L192,351 L189,342 L188,334 L188,325 L191,312 L197,302 L206,295 L218,292 L205,287 L188,283 L156,277 L155,281 L150,285 L141,288 L127,290 L103,290 L90,288 L78,284 L72,279 L71,275 L60,274 L54,273 L38,273 L25,277 L16,283 L10,292 L6,305 L5,313 L5,358 L6,385 L9,420 L13,447 L16,454 L21,460 L31,465 L57,470 L76,473 L72,478 L79,480 L79,481 L70,481 L45,478 L35,476 L35,490 L33,492 L30,493 L30,528 L29,528 L27,495 L27,473 L22,472 L13,466 L7,458 L3,447 L-1,418 L-3,393 L-4,374 L-4,357 L-2,357 L-1,359 L1,360 L2,361 L2,341 L-1,341 L-3,347 L-4,347 L-4,309 L-3,301 L-9,306 L-14,309 L-16,308 L-15,306 L-16,302 L-20,306 L-29,307 L-25,304 L-12,297 L2,287 L9,277 L16,271 L28,265 L42,263 L68,264 L69,262 L53,260 L22,254 L-1,248 L-14,243 L-27,236 L-39,225 L-46,216 L-52,204 L-56,188 L-57,182 L-57,145 L-53,102 L-49,79 L-43,58 L-35,40 L-28,28 L-19,16 L-6,3 L-1,1 Z " fill="#123358" transform="translate(976,299)"/>
<path d="M0,0 L1,0 L2,30 L2,56 L1,56 L0,42 L-2,41 L-4,43 L-5,28 L-6,28 L-5,53 L-9,57 L-11,57 L-10,63 L-4,63 L1,107 L4,120 L4,126 L-2,130 L-18,135 L-23,136 L-59,136 L-74,134 L-84,130 L-83,124 L-76,114 L-68,106 L-60,101 L-64,102 L-63,95 L-59,93 L-64,40 L-66,16 L-66,8 L-63,3 L-6,3 L-5,9 L-3,3 L-1,3 Z " fill="#13375E" transform="translate(1171,783)"/>
<path d="M0,0 L19,0 L78,6 L99,8 L104,11 L105,13 L105,74 L102,78 L81,77 L13,69 L4,68 L-1,65 L-3,61 L-3,4 Z " fill="#FBB75B" transform="translate(1019,626)"/>
<path d="M0,0 L33,0 L47,41 L66,98 L70,110 L70,112 L43,112 L37,90 L37,87 L-5,87 L-7,96 L-12,112 L-37,112 L-36,106 L-24,70 L-8,24 Z " fill="#1A3B60" transform="translate(192,247)"/>
<path d="M0,0 L10,0 L20,5 L29,14 L37,28 L40,39 L39,43 L31,50 L26,60 L25,65 L25,75 L27,78 L31,78 L33,63 L39,53 L47,47 L53,35 L58,30 L68,29 L69,30 L69,43 L67,54 L59,73 L53,87 L46,96 L39,102 L31,106 L27,107 L11,107 L0,103 L-10,96 L-17,88 L-32,65 L-38,53 L-38,43 L-33,39 L-25,39 L-19,44 L-13,52 L-7,57 L-7,49 L-17,35 L-23,31 L-23,20 L-18,15 L-10,14 L-2,18 L5,27 L12,39 L14,40 L14,33 L11,22 L5,14 L-4,7 L-3,3 Z " fill="#4692BC" transform="translate(827,504)"/>
<path d="M0,0 L5,1 L24,10 L40,22 L49,31 L59,46 L66,62 L70,74 L74,93 L75,101 L75,111 L65,113 L57,119 L51,126 L45,139 L42,150 L41,159 L41,180 L44,196 L50,207 L58,212 L57,220 L51,232 L40,244 L30,251 L19,256 L-4,262 L-14,263 L-36,263 L-36,261 L-65,261 L-65,260 L-37,259 L-21,255 L-15,252 L-2,242 L5,235 L13,224 L20,212 L26,197 L31,178 L37,146 L40,122 L41,98 L41,69 L39,57 L35,45 L29,34 L21,23 L10,11 L-2,2 Z " fill="#387BA4" transform="translate(1198,299)"/>
<path d="M0,0 L72,0 L72,19 L25,19 L25,46 L67,46 L67,65 L25,65 L25,93 L72,93 L72,112 L0,112 Z " fill="#193A5F" transform="translate(479,247)"/>
<path d="M0,0 L14,0 L30,4 L39,10 L45,18 L47,22 L47,26 L32,32 L26,33 L20,24 L13,21 L3,21 L-3,24 L-5,28 L-4,37 L2,42 L20,49 L33,54 L42,60 L47,68 L48,72 L48,88 L43,100 L37,107 L26,113 L17,115 L-4,115 L-16,112 L-25,106 L-31,98 L-34,90 L-34,87 L-16,81 L-13,81 L-9,89 L-3,94 L0,95 L13,95 L19,92 L22,88 L22,78 L17,73 L9,69 L-11,62 L-21,56 L-27,48 L-31,35 L-31,26 L-28,17 L-19,7 L-9,2 Z " fill="#1A3C60" transform="translate(596,245)"/>
<path d="M0,0 L24,0 L34,3 L43,9 L49,17 L51,25 L41,29 L31,32 L26,24 L22,21 L19,20 L7,20 L2,22 L0,27 L0,34 L3,39 L16,45 L34,51 L43,57 L49,64 L52,73 L52,84 L49,95 L43,103 L36,109 L26,113 L20,114 L-2,114 L-14,110 L-22,104 L-28,95 L-30,90 L-30,86 L-13,81 L-9,81 L-4,89 L-4,91 L1,93 L7,95 L16,95 L24,91 L27,85 L26,77 L21,72 L13,68 L-4,62 L-15,56 L-22,48 L-26,38 L-26,23 L-20,11 L-11,4 Z " fill="#1A3B60" transform="translate(684,246)"/>
<path d="M0,0 L13,0 L29,4 L39,10 L46,17 L52,28 L52,32 L41,36 L30,39 L26,29 L21,24 L16,21 L0,21 L-8,26 L-14,35 L-16,41 L-17,50 L-17,70 L-14,82 L-8,91 L-1,95 L1,96 L12,96 L21,94 L26,90 L31,80 L52,89 L47,98 L37,108 L27,113 L15,116 L-1,116 L-13,113 L-24,107 L-32,100 L-40,87 L-44,74 L-45,69 L-45,49 L-42,34 L-36,22 L-27,12 L-17,5 L-6,1 Z " fill="#1B3C60" transform="translate(313,245)"/>
<path d="M0,0 L15,0 L28,3 L38,9 L47,18 L53,30 L52,33 L34,39 L31,39 L27,29 L23,24 L16,21 L2,21 L-4,24 L-9,29 L-13,36 L-15,44 L-15,73 L-10,86 L-4,93 L2,96 L16,96 L23,94 L29,87 L32,81 L48,87 L52,89 L50,95 L43,104 L31,112 L15,116 L0,116 L-12,113 L-23,107 L-33,97 L-38,89 L-42,78 L-44,68 L-44,50 L-41,34 L-34,21 L-25,11 L-15,5 L-8,2 Z " fill="#1A3C60" transform="translate(415,245)"/>
<path d="M0,0 L25,0 L34,4 L43,12 L49,23 L50,27 L50,49 L46,65 L40,74 L36,76 L38,58 L38,49 L34,48 L32,61 L29,73 L22,83 L15,87 L8,87 L6,86 L8,82 L12,74 L15,61 L15,49 L12,48 L6,67 L2,75 L-3,81 L-9,84 L-15,84 L-20,79 L-19,71 L-13,54 L-11,43 L-11,32 L-16,37 L-23,47 L-29,52 L-36,51 L-38,48 L-38,41 L-31,27 L-21,14 L-14,7 L-8,3 Z " fill="#3F84AC" transform="translate(1222,759)"/>
<path d="M0,0 L37,4 L74,7 L74,8 L87,9 L116,10 L117,15 L120,16 L98,17 L127,24 L137,29 L145,36 L150,45 L162,56 L173,69 L183,84 L188,95 L187,98 L185,101 L184,108 L183,109 L176,109 L176,107 L183,107 L176,91 L167,76 L159,67 L146,67 L138,71 L132,79 L130,86 L129,97 L128,97 L128,85 L129,80 L127,74 L127,70 L132,64 L140,59 L152,57 L144,51 L137,48 L126,48 L120,52 L115,58 L112,67 L112,86 L117,98 L117,101 L115,97 L114,101 L112,101 L111,103 L106,96 L103,87 L102,79 L102,70 L105,57 L111,47 L120,40 L132,37 L119,32 L102,28 L70,22 L69,26 L64,30 L55,33 L41,35 L17,35 L4,33 L0,31 L-9,27 L-8,22 L-4,21 L-1,22 L-6,19 L-8,16 L-8,9 L-5,4 L-7,1 Z " fill="#12375E" transform="translate(1062,554)"/>
<path d="M0,0 L1,0 L4,36 L7,57 L6,62 L-2,67 L-14,72 L-31,76 L-38,77 L-61,77 L-76,74 L-88,69 L-92,65 L-89,57 L-82,49 L-72,42 L-60,37 L-56,36 L-32,36 L-21,37 L-30,32 L-45,29 L-46,17 L-46,3 L-13,3 L-2,1 Z " fill="#4182A7" transform="translate(1061,833)"/>
<path d="M0,0 L14,0 L27,4 L37,9 L47,18 L52,26 L54,33 L54,42 L65,42 L65,90 L41,90 L41,42 L-39,42 L-39,33 L-35,23 L-31,17 L-23,9 L-15,4 L-6,1 Z " fill="#ECC189" transform="translate(1365,594)"/>
<path d="M0,0 L4,0 L9,44 L12,57 L12,63 L6,67 L-10,72 L-15,73 L-51,73 L-66,71 L-76,67 L-75,61 L-68,51 L-60,43 L-49,37 L-38,34 L-21,34 L-10,37 L-11,36 L-16,32 L-27,28 L-44,28 L-46,9 L-46,1 L-33,3 L-13,3 Z " fill="#4081A6" transform="translate(1163,846)"/>
<path d="M0,0 L1,2 L0,9 L0,45 L2,40 L6,40 L6,67 L5,67 L4,62 L2,59 L2,80 L1,80 L1,57 L-16,62 L-30,65 L-39,66 L-59,66 L-71,64 L-84,59 L-84,56 L-80,57 L-80,59 L-72,58 L-71,56 L-73,55 L-73,53 L-79,52 L-86,48 L-83,46 L-73,39 L-67,31 L-63,23 L-60,13 L-57,12 L-53,13 L-55,11 L-54,7 L-43,9 L-33,9 L-32,7 L-23,6 L-18,5 L-15,2 L-13,2 L-12,6 L-10,7 L-2,2 Z " fill="#12355B" transform="translate(973,599)"/>
<path d="M0,0 L34,0 L44,3 L53,9 L58,16 L61,25 L61,44 L58,54 L52,62 L44,68 L35,71 L27,72 L0,72 Z " fill="#18395D" transform="translate(693,390)"/>
<path d="M0,0 L51,0 L83,4 L111,10 L132,17 L133,21 L145,30 L152,38 L150,39 L136,31 L119,23 L99,17 L79,13 L53,10 L40,9 L10,9 L-21,12 L-46,17 L-64,24 L-77,31 L-87,39 L-97,49 L-106,63 L-114,80 L-120,101 L-123,113 L-125,127 L-126,150 L-129,174 L-130,186 L-130,220 L-133,216 L-136,203 L-137,197 L-137,153 L-133,117 L-127,90 L-120,71 L-110,52 L-100,39 L-91,30 L-77,20 L-58,11 L-41,6 L-19,2 Z " fill="#77C0DC" transform="translate(1065,281)"/>
<path d="M0,0 L1,0 L1,8 L-4,41 L-7,53 L-14,64 L-19,68 L-25,71 L-27,71 L-26,121 L-23,156 L-19,182 L-17,195 L-17,201 L-25,208 L-37,213 L-50,216 L-60,217 L-83,217 L-104,215 L-117,211 L-122,206 L-123,204 L-123,197 L-119,188 L-113,180 L-103,170 L-92,164 L-90,164 L-91,162 L-96,103 L-98,73 L-113,73 L-110,72 L-110,70 L-106,67 L-96,65 L-41,65 L-28,62 L-20,56 L-15,48 L-9,17 L-8,17 L-8,23 L-2,21 L-1,7 Z M-30,71 L-31,74 L-34,75 L-35,80 L-36,74 L-93,74 L-96,79 L-95,99 L-90,156 L-89,164 L-93,166 L-94,173 L-91,173 L-100,179 L-108,187 L-114,197 L-113,202 L-99,206 L-89,207 L-53,207 L-38,203 L-28,199 L-26,197 L-27,188 L-30,171 L-34,134 L-40,134 L-41,128 L-37,126 L-35,124 L-36,99 L-35,99 L-34,114 L-32,112 L-30,113 L-29,127 L-28,127 L-28,101 L-29,71 Z " fill="#153357" transform="translate(1201,712)"/>
<path d="M0,0 L10,0 L33,2 L35,16 L39,67 L41,93 L28,100 L25,101 L5,100 L4,99 L1,73 L0,58 Z " fill="#FCE0AB" transform="translate(1070,783)"/>
<path d="M0,0 L8,0 L19,4 L28,13 L33,24 L34,32 L34,41 L30,54 L23,63 L16,69 L10,72 L5,73 L-3,73 L-13,69 L-19,64 L-25,54 L-27,49 L-27,27 L-23,17 L-14,7 L-6,2 Z " fill="#193B60" transform="translate(1146,402)"/>
<path d="M0,0 L10,0 L18,5 L25,13 L29,25 L29,41 L25,60 L20,73 L14,81 L8,86 L5,87 L-6,87 L-12,84 L-16,79 L-19,72 L-21,63 L-21,37 L-17,22 L-10,8 L-2,1 Z " fill="#337299" transform="translate(1269,418)"/>
<path d="M0,0 L9,0 L20,1 L20,2 L-9,3 L-18,5 L-22,7 L-23,36 L-21,37 L-24,38 L-27,43 L-20,42 L-13,41 L-16,43 L-26,47 L-38,58 L-47,71 L-53,83 L-53,90 L-50,93 L-43,92 L-36,84 L-29,74 L-26,74 L-26,85 L-29,99 L-35,117 L-34,123 L-31,125 L-22,124 L-17,120 L-13,113 L-8,100 L-5,90 L-1,90 L0,91 L0,103 L-3,116 L-7,124 L-10,128 L-1,128 L6,124 L12,115 L18,90 L23,91 L23,100 L21,117 L26,112 L29,107 L33,91 L33,69 L29,59 L28,52 L29,48 L31,48 L32,46 L39,55 L44,69 L44,90 L41,105 L36,117 L29,125 L25,127 L16,128 L9,134 L-1,138 L-9,138 L-17,134 L-34,134 L-39,131 L-43,127 L-45,121 L-44,110 L-41,102 L-43,103 L-50,103 L-57,100 L-61,94 L-62,90 L-62,81 L-58,71 L-50,59 L-41,47 L-33,40 L-31,40 L-32,23 L-32,8 L-29,8 L-25,6 L-16,2 Z " fill="#143457" transform="translate(1238,717)"/>
<path d="M0,0 L9,0 L19,4 L25,9 L31,19 L33,26 L33,42 L29,53 L23,62 L13,69 L7,71 L-4,71 L-14,66 L-22,57 L-26,46 L-26,29 L-22,18 L-16,10 L-8,3 Z " fill="#193B60" transform="translate(999,388)"/>
<path d="M0,0 L2,3 L9,17 L19,32 L28,44 L37,51 L46,55 L50,56 L66,56 L76,52 L83,49 L87,45 L89,46 L86,51 L89,53 L96,44 L101,35 L106,40 L116,50 L119,52 L116,65 L113,71 L114,74 L117,75 L115,81 L110,87 L100,93 L112,98 L112,100 L115,101 L113,104 L107,105 L105,104 L105,102 L99,103 L88,97 L74,87 L64,78 L52,66 L40,63 L29,57 L17,46 L6,30 L-2,17 L-4,11 L1,7 L1,5 L-1,4 Z " fill="#12345A" transform="translate(788,554)"/>
<path d="M0,0 L36,0 L46,4 L52,11 L53,13 L53,29 L48,37 L40,42 L57,70 L57,72 L39,72 L34,64 L23,45 L15,44 L15,72 L0,72 Z " fill="#193A5E" transform="translate(406,390)"/>
<path d="M0,0 L35,0 L45,4 L52,12 L53,15 L53,28 L49,36 L43,41 L40,41 L44,49 L57,70 L57,72 L39,72 L34,64 L24,47 L24,45 L15,45 L15,72 L0,72 Z " fill="#18395E" transform="translate(159,390)"/>
<path d="M0,0 L3,1 L10,11 L12,15 L16,17 L25,22 L32,34 L29,55 L23,95 L20,110 L15,118 L8,124 L-1,127 L-7,127 L-4,88 L-1,39 Z " fill="#387AA2" transform="translate(1167,650)"/>
<path d="M0,0 L20,0 L82,5 L104,7 L112,11 L116,18 L116,84 L111,92 L108,94 L94,94 L42,88 L15,85 L0,82 L-5,77 L-7,73 L-7,8 L-3,2 Z M3,8 L0,12 L0,69 L3,74 L7,76 L76,84 L96,86 L105,86 L108,82 L108,21 L105,17 L94,15 L41,10 L22,8 Z " fill="#16345D" transform="translate(1016,618)"/>
<path d="M0,0 L1,0 L2,38 L4,74 L8,105 L8,115 L1,123 L-13,130 L-31,135 L-45,137 L-69,137 L-86,134 L-97,130 L-105,125 L-107,122 L-107,110 L-100,99 L-92,91 L-82,85 L-73,81 L-61,79 L-62,59 L-62,46 L-61,46 L-59,71 L-56,72 L-54,59 L-53,59 L-52,68 L-52,80 L-40,81 L-31,85 L-27,89 L-39,88 L-63,88 L-75,92 L-85,98 L-92,104 L-97,112 L-98,117 L-91,121 L-80,125 L-68,127 L-45,127 L-29,124 L-13,119 L-2,113 L-1,108 L-4,87 L-7,52 L-12,54 L-20,55 L-41,55 L-41,54 L-26,54 L-25,50 L-39,49 L-39,48 L-19,46 L-7,43 L-6,16 L-1,15 Z " fill="#153356" transform="translate(1068,782)"/>
<path d="M0,0 L14,2 L18,8 L26,12 L37,15 L46,16 L70,16 L88,13 L96,9 L99,4 L110,5 L137,10 L157,16 L162,19 L162,20 L149,23 L145,26 L141,27 L125,28 L91,28 L27,22 L5,19 L-15,15 L-28,11 L-25,8 L-17,4 L-10,1 Z " fill="#397CA5" transform="translate(1033,572)"/>
<path d="M0,0 L47,0 L47,12 L16,12 L16,29 L44,29 L44,42 L16,42 L16,60 L47,60 L47,72 L0,72 Z " fill="#18375B" transform="translate(226,390)"/>
<path d="M0,0 L11,0 L22,4 L28,9 L31,15 L31,17 L20,21 L17,21 L15,15 L9,13 L3,13 L-2,17 L-2,23 L2,27 L22,35 L29,40 L32,45 L32,59 L28,67 L22,72 L13,75 L-4,75 L-14,70 L-20,63 L-22,57 L-15,54 L-7,53 L-3,60 L1,62 L11,62 L16,57 L16,51 L11,47 L-4,42 L-12,37 L-17,31 L-19,25 L-19,17 L-15,9 L-8,3 Z " fill="#193A5E" transform="translate(302,388)"/>
<path d="M0,0 L47,0 L47,12 L16,12 L16,30 L43,30 L43,42 L16,42 L16,60 L47,60 L47,72 L0,72 Z " fill="#193C62" transform="translate(634,390)"/>
<path d="M0,0 L10,0 L20,3 L26,7 L33,15 L34,19 L26,22 L19,24 L16,18 L11,14 L9,13 L1,13 L-5,16 L-9,21 L-11,26 L-11,49 L-6,59 L0,62 L9,62 L15,59 L19,52 L24,53 L34,57 L32,63 L25,70 L17,74 L13,75 L-5,75 L-15,71 L-21,66 L-27,56 L-29,49 L-29,28 L-26,18 L-19,9 L-10,3 Z " fill="#193A5E" transform="translate(532,388)"/>
<path d="M0,0 L14,0 L27,4 L33,19 L33,36 L-39,36 L-37,27 L-32,18 L-23,9 L-15,4 L-6,1 Z " fill="#FDE0AB" transform="translate(1365,594)"/>
<path d="M0,0 L8,1 L19,5 L28,12 L33,19 L36,24 L46,33 L55,43 L66,59 L73,73 L72,76 L70,79 L69,86 L68,87 L61,87 L61,85 L68,85 L61,69 L52,54 L44,45 L31,45 L23,49 L17,57 L15,64 L14,75 L13,75 L13,63 L14,58 L12,52 L12,48 L17,42 L25,37 L37,35 L29,29 L22,26 L11,26 L5,30 L0,36 L-3,45 L-3,64 L2,76 L2,79 L0,75 L-1,79 L-3,79 L-4,81 L-9,74 L-12,65 L-13,57 L-13,48 L-10,35 L-4,25 L5,18 L17,15 L4,10 L-11,6 L-11,5 L-6,5 L-5,1 L0,1 Z " fill="#123458" transform="translate(1177,576)"/>
<path d="M0,0 L10,0 L20,5 L29,14 L37,28 L40,39 L39,43 L31,50 L29,54 L18,52 L-2,46 L-9,44 L-14,39 L-19,33 L-23,31 L-23,20 L-18,15 L-10,14 L-2,18 L5,27 L12,39 L14,40 L14,33 L11,22 L5,14 L-4,7 L-3,3 Z " fill="#2D698D" transform="translate(827,504)"/>
<path d="M0,0 L13,0 L22,10 L32,27 L37,39 L37,41 L19,43 L9,47 L1,53 L-4,57 L-14,39 L-16,33 L-16,16 L-12,8 L-5,2 Z " fill="#448EB8" transform="translate(1208,620)"/>
<path d="M0,0 L10,3 L26,5 L31,13 L32,16 L32,28 L28,38 L24,44 L21,45 L-1,45 L-11,43 L-24,38 L-27,35 L-19,31 L-13,26 L-6,16 L-1,1 Z " fill="#2C688D" transform="translate(914,611)"/>
<path d="M0,0 L17,0 L20,8 L25,30 L26,41 L-4,42 L-18,45 L-22,21 L-22,15 L-16,8 L-6,2 Z " fill="#448DB7" transform="translate(1231,670)"/>
<path d="M0,0 L4,0 L9,44 L12,57 L12,63 L6,67 L3,66 L-1,48 L-4,36 L-7,13 L-7,9 L-8,10 L-8,18 L-6,22 L-6,30 L-8,30 L-7,33 L-11,34 L-17,30 L-24,29 L-27,28 L-44,28 L-46,9 L-46,1 L-33,3 L-13,3 Z " fill="#4182A7" transform="translate(1163,846)"/>
<path d="M0,0 L58,0 L58,12 L37,12 L37,72 L22,72 L22,12 L0,12 Z " fill="#16385D" transform="translate(567,390)"/>
<path d="M0,0 L58,0 L58,12 L37,12 L37,72 L22,72 L22,12 L0,12 Z " fill="#16375C" transform="translate(338,390)"/>
<path d="M0,0 L1,2 L6,3 L8,5 L0,11 L-4,19 L-6,28 L-6,106 L-4,130 L-1,150 L3,166 L7,180 L8,184 L13,185 L9,186 L1,182 L-6,174 L-9,163 L-13,130 L-15,106 L-16,79 L-16,34 L-13,18 L-7,6 Z " fill="#77C1DD" transform="translate(996,578)"/>
<path d="M0,0 L9,0 L17,3 L24,9 L27,15 L27,28 L23,36 L15,42 L13,43 L-2,43 L-11,37 L-16,28 L-16,15 L-10,6 L-3,1 Z " fill="#4286AE" transform="translate(1145,188)"/>
<path d="M0,0 L21,0 L21,1 L7,1 L11,3 L10,8 L14,8 L15,4 L17,3 L18,8 L16,11 L17,17 L14,18 L13,23 L11,26 L9,26 L8,33 L7,36 L5,35 L5,39 L8,38 L9,41 L-5,41 L-20,38 L-32,33 L-36,29 L-33,21 L-26,13 L-16,6 L-4,1 Z " fill="#4182A7" transform="translate(1005,869)"/>
<path d="M0,0 L16,2 L35,2 L51,0 L52,25 L47,28 L38,31 L19,31 L6,28 L2,26 L0,7 Z " fill="#3F80A6" transform="translate(1114,811)"/>
<path d="M0,0 L5,5 L15,15 L18,17 L15,30 L9,39 L5,44 L-9,53 L-13,51 L-24,43 L-36,32 L-37,30 L-25,27 L-12,18 L-5,9 Z " fill="#1F5678" transform="translate(889,589)"/>
<path d="M0,0 L22,0 L29,1 L30,7 L30,36 L16,32 L-7,32 L-14,34 L-14,5 L-6,1 Z " fill="#438DB7" transform="translate(1229,719)"/>
<path d="M0,0 L8,1 L43,1 L49,0 L49,28 L37,31 L11,31 L2,27 L0,6 Z " fill="#4082A8" transform="translate(1012,798)"/>
<path d="M0,0 L15,0 L23,3 L28,9 L30,16 L30,32 L26,40 L21,45 L9,48 L0,48 Z " fill="#89CBE4" transform="translate(708,402)"/>
<path d="M0,0 L16,0 L16,72 L0,72 Z " fill="#19395D" transform="translate(474,390)"/>
<path d="M0,0 L1,0 L4,36 L7,57 L6,62 L-2,67 L-8,70 L-14,70 L-13,52 L-13,3 L-2,1 Z " fill="#2E6A8D" transform="translate(1061,833)"/>
<path d="M0,0 L10,0 L18,5 L18,6 L9,8 L3,12 L-2,18 L-8,32 L-11,46 L-11,63 L-8,73 L-5,78 L-5,80 L-3,80 L2,85 L2,87 L-6,87 L-12,84 L-16,79 L-19,72 L-21,63 L-21,37 L-17,22 L-10,8 L-2,1 Z " fill="#4B9AC6" transform="translate(1269,418)"/>
<path d="M0,0 L53,0 L53,16 L50,18 L39,20 L22,20 L1,17 Z " fill="#296587" transform="translate(1112,786)"/>
<path d="M0,0 L1,2 L0,9 L-1,46 L-6,49 L-19,54 L-26,55 L-22,46 L-21,41 L-21,29 L-24,19 L-26,14 L-13,9 L-3,3 Z " fill="#245E80" transform="translate(973,599)"/>
<path d="M0,0 L11,0 L21,5 L27,10 L27,11 L14,13 L5,19 L-1,27 L-3,32 L-3,57 L-8,54 L-14,42 L-15,39 L-15,20 L-11,10 L-4,2 Z " fill="#4591BC" transform="translate(1188,601)"/>
<path d="M0,0 L5,2 L7,7 L7,27 L4,43 L-3,51 L-6,53 L-11,52 L-14,46 L-14,22 L-11,12 L-5,3 Z " fill="#13375E" transform="translate(1282,437)"/>
<path d="M0,0 L3,1 L10,11 L12,15 L16,17 L25,22 L32,34 L29,55 L28,63 L26,66 L24,68 L23,64 L23,54 L23,53 L22,51 L19,50 L20,44 L19,42 L19,40 L17,41 L16,31 L12,32 L8,34 L6,33 L5,30 L3,30 L2,28 L1,42 L0,42 Z M18,43 Z " fill="#35749A" transform="translate(1167,650)"/>
<path d="M0,0 L13,1 L61,6 L68,7 L69,11 L64,14 L52,17 L27,17 L14,15 L5,12 L0,7 Z " fill="#245E80" transform="translate(1054,563)"/>
<path d="M0,0 L16,0 L87,7 L90,9 L90,14 L89,15 L69,15 L7,9 L0,7 L-1,6 L-1,1 Z " fill="#D67B2A" transform="translate(1022,670)"/>
<path d="M0,0 L14,0 L61,4 L88,7 L90,9 L89,14 L88,15 L75,15 L30,11 L6,9 L-1,7 L-1,1 Z " fill="#D67B2A" transform="translate(1022,644)"/>
<path d="M0,0 L3,3 L12,33 L16,48 L-14,48 L-12,39 Z " fill="#8BCDE5" transform="translate(207,267)"/>
<path d="M0,0 L4,1 L12,8 L22,13 L31,15 L42,15 L54,12 L63,7 L68,8 L69,9 L69,14 L63,19 L51,24 L47,25 L26,25 L14,21 L4,15 L-3,7 L-2,2 Z " fill="#13335C" transform="translate(1035,483)"/>
<path d="M0,0 L7,1 L7,3 L4,4 L2,3 L1,7 L-1,7 L-1,9 L5,8 L7,9 L7,11 L10,12 L5,15 L0,20 L-3,19 L-7,19 L-8,15 L-8,20 L-11,19 L-11,16 L-13,15 L-13,19 L-15,20 L-13,21 L-14,25 L-17,24 L-16,27 L-19,33 L-22,33 L-22,36 L-19,37 L-18,38 L-18,36 L-14,36 L-16,41 L-24,50 L-31,51 L-35,47 L-35,40 L-28,26 L-18,13 L-11,6 L-5,2 Z M3,9 L4,11 L5,9 Z M6,11 Z M-6,13 Z " fill="#4187B0" transform="translate(1219,760)"/>
<path d="M0,0 L8,1 L14,5 L21,15 L26,23 L26,25 L21,26 L22,29 L25,29 L23,32 L25,33 L16,33 L7,31 L2,26 L-4,19 L-8,17 L-8,6 L-3,1 Z " fill="#327095" transform="translate(812,518)"/>
<path d="M0,0 L4,1 L12,7 L18,15 L22,25 L22,47 L18,63 L12,72 L8,74 L10,56 L11,56 L11,46 L10,45 L8,21 L4,9 L0,2 Z " fill="#2E6A8D" transform="translate(1250,761)"/>
<path d="M0,0 L4,0 L9,44 L12,57 L12,63 L6,67 L3,66 L-1,48 L-4,36 L-7,13 L-7,3 L-9,2 Z " fill="#2E6A8D" transform="translate(1163,846)"/>
<path d="M0,0 L10,1 L50,6 L50,15 L40,17 L19,17 L3,15 L0,14 Z " fill="#225B7C" transform="translate(1011,775)"/>
<path d="M0,0 L16,2 L39,3 L39,4 L11,4 L11,13 L16,12 L17,9 L19,9 L20,13 L20,17 L22,17 L24,13 L26,14 L25,16 L24,17 L29,18 L32,23 L34,22 L34,27 L30,29 L35,30 L35,31 L19,31 L6,28 L2,26 L0,7 Z M28,19 L29,21 Z M28,23 Z M19,6 L21,10 L19,9 Z " fill="#4183A9" transform="translate(1114,811)"/>
<path d="M0,0 L5,1 L24,10 L40,22 L49,31 L59,46 L66,62 L65,65 L57,47 L56,47 L54,48 L51,47 L49,42 L52,39 L45,30 L42,34 L40,36 L31,37 L21,23 L10,11 L-2,2 Z M49,47 L51,48 L49,49 Z " fill="#3C81AA" transform="translate(1198,299)"/>
<path d="M0,0 L9,0 L14,4 L15,6 L15,26 L-7,26 L-7,8 L-4,3 Z " fill="#EBC086" transform="translate(1361,658)"/>
<path d="M0,0 L60,0 L63,3 L63,1 L73,1 L73,2 L67,2 L67,4 L65,5 L71,6 L71,7 L58,7 L56,6 L48,7 L48,8 L13,9 L-5,9 L-5,5 L-8,3 L0,2 Z " fill="#153961" transform="translate(1049,273)"/>
<path d="M0,0 L1,0 L3,17 L4,32 L4,49 L-5,56 L-15,69 L-24,84 L-26,90 L-28,89 L-29,75 L-19,70 L-12,61 L-8,50 L-4,27 Z " fill="#F6DEAD" transform="translate(1203,708)"/>
<path d="M0,0 L11,0 L24,3 L39,11 L45,18 L44,22 L43,23 L37,23 L29,17 L18,12 L10,10 L1,9 L-2,7 L-2,2 Z " fill="#13345B" transform="translate(1143,357)"/>
<path d="M0,0 L53,5 L53,6 L43,8 L39,10 L39,12 L28,12 L18,11 L18,48 L17,48 L17,9 L14,10 L14,12 L11,13 L10,19 L8,18 L9,9 L0,9 L-3,7 L-5,5 Z " fill="#12355C" transform="translate(1052,772)"/>
<path d="M0,0 L8,0 L11,5 L10,7 L8,6 L9,12 L7,12 L6,14 L3,14 L1,20 L-1,20 L-1,15 L-4,15 L-4,17 L-2,18 L-3,20 L-5,20 L-5,22 L-3,22 L-5,28 L-7,28 L-8,30 L-11,26 L-12,29 L-16,30 L-16,16 L-12,8 L-5,2 Z " fill="#458FB9" transform="translate(1208,620)"/>
<path d="M0,0 L5,5 L15,15 L18,17 L16,25 L14,25 L12,27 L7,27 L3,23 L-2,24 L-2,22 L-6,24 L-9,24 L-13,23 L-12,18 L-5,9 Z " fill="#235E80" transform="translate(889,589)"/>
<path d="M0,0 L13,0 L20,4 L21,6 L21,16 L16,21 L13,22 L0,22 Z " fill="#8BCDE5" transform="translate(174,401)"/>
<path d="M0,0 L16,2 L36,3 L36,4 L29,4 L29,6 L27,6 L26,10 L22,11 L20,15 L16,18 L16,21 L11,21 L8,18 L5,19 L4,21 L6,21 L7,24 L5,24 L5,26 L7,27 L2,27 L0,6 Z " fill="#4082A8" transform="translate(1012,798)"/>
<path d="M0,0 L12,0 L18,3 L21,7 L21,14 L17,20 L12,22 L0,22 Z " fill="#8BCEE5" transform="translate(422,401)"/>
<path d="M0,0 L31,0 L41,2 L47,6 L48,10 L45,10 L44,14 L43,74 L42,74 L41,15 L39,12 L28,10 L6,8 L4,5 L9,4 L8,2 L0,1 Z " fill="#1A3963" transform="translate(1082,624)"/>
<path d="M0,0 L7,0 L11,4 L9,9 L-6,12 L-17,18 L-23,23 L-28,23 L-30,21 L-29,16 L-20,8 L-8,2 Z " fill="#15365D" transform="translate(1009,350)"/>
<path d="M0,0 L44,0 L44,10 L14,10 L14,3 L15,2 L1,1 L1,69 L0,69 Z " fill="#1A4168" transform="translate(228,391)"/>
<path d="M0,0 L1,0 L1,12 L-3,22 L-7,28 L-10,29 L-32,29 L-34,26 L-30,22 L-26,26 L-25,21 L-21,22 L-20,19 L-18,22 L-13,19 L-14,12 L-12,9 L-11,7 L-8,7 L-8,5 L-3,7 L-1,6 Z " fill="#2A6589" transform="translate(945,627)"/>
<path d="M0,0 L1,0 L1,28 L-5,30 L-11,30 L-12,3 L-32,3 L-32,2 L-5,1 Z " fill="#2C688B" transform="translate(1060,798)"/>
<path d="M0,0 L8,0 L11,8 L16,30 L17,41 L-2,41 L-2,40 L9,40 L3,12 Z " fill="#317095" transform="translate(1240,670)"/>
<path d="M0,0 L15,0 L15,1 L6,2 L5,5 L12,6 L12,7 L4,8 L1,12 L0,70 L-1,70 L-2,19 L-4,18 L-4,74 L-1,79 L5,80 L11,80 L10,83 L3,83 L-3,80 L-7,73 L-7,8 L-3,2 Z " fill="#102B51" transform="translate(1016,618)"/>
<path d="M0,0 L5,5 L8,10 L5,31 L4,39 L2,42 L0,44 L-1,40 L-1,30 L-1,29 L-2,27 L-5,26 L-4,20 L-5,18 L-5,16 L-7,17 L-7,4 L-5,5 L-4,8 L-2,8 L0,4 L0,7 L0,3 Z M-6,19 Z " fill="#337195" transform="translate(1191,674)"/>
<path d="M0,0 L10,0 L20,5 L29,14 L28,16 L25,16 L22,16 L13,15 L8,17 L-1,9 L-4,7 L-3,3 Z " fill="#2F6C90" transform="translate(827,504)"/>
<path d="M0,0 L2,0 L3,25 L-2,28 L-8,30 L-10,13 L-10,3 L-14,2 Z " fill="#2E698C" transform="translate(1163,811)"/>
<path d="M0,0 L1,0 L2,47 L3,74 L3,91 L2,91 L1,81 L-1,80 L-3,82 L-4,93 L-5,93 L-7,63 L-7,46 L-5,46 L-4,48 L-2,49 L-1,50 Z " fill="#0E284B" transform="translate(979,610)"/>
<path d="M0,0 L10,3 L26,5 L30,11 L30,14 L13,14 L3,12 L-3,10 L-1,1 Z " fill="#4693BF" transform="translate(914,611)"/>
<path d="M0,0 L5,0 L14,10 L24,27 L29,39 L29,41 L21,41 L16,28 L10,16 L2,5 Z " fill="#327298" transform="translate(1216,620)"/>
<path d="M0,0 L47,0 L47,16 L44,18 L34,19 L33,18 L34,1 L0,1 Z " fill="#21597A" transform="translate(1118,786)"/>
<path d="M0,0 L7,1 L6,11 L4,12 L1,31 L0,39 L-1,39 L-1,34 L-5,34 L-6,37 L-6,23 L-5,21 L-6,12 L-5,10 L-3,10 L-2,5 L1,5 L-1,4 Z " fill="#153A62" transform="translate(1246,432)"/>
<path d="M0,0 L7,0 L8,5 L9,5 L9,34 L2,31 L1,29 Z " fill="#316F92" transform="translate(1250,721)"/>
<path d="M0,0 L1,2 L-1,12 L-14,21 L-19,23 L-21,26 L-26,16 L-26,14 L-13,9 L-3,3 Z " fill="#4792BE" transform="translate(973,599)"/>
<path d="M0,0 L46,0 L46,1 L1,1 L1,71 L20,70 L45,70 L45,61 L16,61 L16,60 L47,60 L47,72 L0,72 Z " fill="#091A36" transform="translate(634,390)"/>
<path d="M0,0 L2,2 L2,8 L4,6 L4,57 L2,55 L2,63 L6,62 L6,64 L4,65 L6,70 L2,68 L0,64 Z " fill="#173C68" transform="translate(1011,628)"/>
<path d="M0,0 L10,1 L13,4 L15,7 L16,15 L25,15 L29,17 L19,17 L3,15 L0,14 Z " fill="#2A6587" transform="translate(1011,775)"/>
<path d="M0,0 L5,1 L4,8 L1,16 L1,23 L4,27 L4,29 L2,31 L4,33 L0,32 L-6,28 L-6,14 L-4,9 L-3,5 L-2,2 L0,2 Z " fill="#143961" transform="translate(1201,816)"/>
<path d="M0,0 L18,1 L19,3 L18,5 L21,7 L20,9 L-1,9 L-9,11 L-11,10 L-9,5 L-5,4 L-5,2 Z " fill="#163C63" transform="translate(1222,750)"/>
<path d="M0,0 L2,3 L2,9 L0,16 L-3,22 L-4,32 L-6,34 L-9,34 L-10,32 L-10,18 L-5,6 L-1,4 Z " fill="#12365F" transform="translate(1188,778)"/>
<path d="M0,0 L1,0 L7,69 L8,78 L3,79 L2,86 L6,84 L9,85 L-2,91 L-4,93 L-9,92 L-9,88 L-2,84 L1,81 L0,79 L6,77 L5,75 L0,16 Z " fill="#182945" transform="translate(1105,799)"/>
<path d="M0,0 L2,0 L2,14 L-1,15 L-2,18 L-4,13 L-9,15 L-12,18 L-16,17 L-15,24 L-17,20 L-18,14 L-16,10 L-6,5 Z " fill="#306E94" transform="translate(970,611)"/>
<path d="M0,0 L1,0 L2,9 L3,13 L5,13 L5,15 L8,14 L10,35 L10,42 L9,42 L9,36 L7,36 L6,42 L4,40 L3,35 L2,35 L0,15 Z " fill="#123559" transform="translate(1062,834)"/>
<path d="M0,0 L12,0 L34,2 L34,3 L24,5 L20,7 L20,9 L9,9 L-1,8 L-1,45 L-2,45 L-2,6 L9,6 L12,5 L12,3 L8,4 L6,2 L0,1 Z " fill="#344458" transform="translate(1071,775)"/>
<path d="M0,0 L8,1 L13,4 L11,6 L3,9 L-3,16 L-2,19 L-8,17 L-8,6 L-3,1 Z " fill="#4691BC" transform="translate(812,518)"/>
<path d="M0,0 L10,0 L20,1 L16,2 L15,6 L10,8 L10,9 L-14,9 L-13,6 L-8,5 L-11,3 L0,1 Z " fill="#72BBD9" transform="translate(1065,281)"/>
<path d="M0,0 L16,0 L19,2 L9,3 L0,7 L-8,11 L-14,10 L-17,9 L-17,6 L-4,1 Z " fill="#66B3D4" transform="translate(1014,571)"/>
<path d="M0,0 L1,0 L3,17 L4,17 L3,35 L1,31 L-3,33 L-4,27 L-5,23 L-4,6 L-1,8 Z " fill="#173C64" transform="translate(979,680)"/>
<path d="M0,0 L9,0 L51,5 L72,6 L75,3 L75,9 L71,11 L71,8 L60,8 L41,6 L32,6 L31,10 L35,11 L27,11 L21,10 L25,7 L25,4 L8,3 L7,5 L3,5 L3,2 Z " fill="#13244C" transform="translate(1049,697)"/>
<path d="M0,0 L26,0 L26,6 L2,6 L1,2 Z " fill="#E4AA70" transform="translate(1393,630)"/>
<path d="M0,0 L15,0 L17,2 L2,2 L2,46 L13,46 L9,48 L0,48 Z " fill="#86C1D5" transform="translate(708,402)"/>
<path d="M0,0 L4,1 L0,5 L-5,8 L-7,8 L-6,12 L-3,14 L-11,23 L-12,21 L-14,21 L-15,16 L-20,21 L-18,16 L-5,3 Z " fill="#132F4E" transform="translate(1103,879)"/>
<path d="M0,0 L7,0 L6,2 L7,5 L-9,10 L-14,13 L-16,13 L-17,9 L-21,10 L-18,7 L-10,3 Z " fill="#143A64" transform="translate(1001,863)"/>
<path d="M0,0 L2,2 L6,0 L0,8 L-10,22 L-17,34 L-19,38 L-20,37 L-21,23 L-11,18 L-4,9 Z " fill="#F4E0B4" transform="translate(1195,760)"/>
<path d="M0,0 L11,0 L19,4 L21,9 L18,9 L17,13 L16,73 L15,73 L14,14 L12,11 L1,9 L1,8 L10,8 L13,9 L13,7 L15,7 L15,3 L0,1 Z " fill="#3E3E48" transform="translate(1109,625)"/>
<path d="M0,0 L2,1 L-2,7 L-3,70 L-4,70 L-5,9 L-7,10 L-6,12 L-10,13 L-11,12 L-12,14 L-14,13 L-11,9 L-10,4 L-8,2 L-1,1 Z " fill="#5AB4DF" transform="translate(1012,619)"/>
<path d="M0,0 L8,0 L13,5 L15,11 L15,19 L12,34 L10,36 L12,24 L12,15 L8,16 L7,24 L6,24 L5,9 L-3,8 L1,6 L7,6 L10,4 L7,2 L0,1 Z " fill="#0F294B" transform="translate(890,525)"/>
<path d="M0,0 L2,1 L3,5 L2,7 L-8,9 L-22,8 L-23,6 L-21,4 L-21,3 L-4,1 Z " fill="#14385F" transform="translate(1158,841)"/>
<path d="M0,0 L1,0 L2,10 L1,10 L-1,34 L-2,34 L-2,20 L-5,20 L-5,31 L-6,31 L-7,6 L-4,3 L-1,3 Z " fill="#143A62" transform="translate(927,424)"/>
<path d="M0,0 L2,2 L2,4 L5,5 L7,2 L7,25 L3,24 L3,30 L5,31 L2,31 L1,26 L0,23 Z " fill="#72BCDA" transform="translate(983,682)"/>
<path d="M0,0 L4,2 L1,11 L-1,21 L-2,35 L-3,35 L-3,14 L-6,14 L-3,16 L-7,17 L-10,13 L-9,7 L-4,6 L-2,2 L0,2 Z " fill="#35769D" transform="translate(1269,443)"/>
<path d="M0,0 L7,0 L12,5 L11,7 L2,8 L0,10 L-6,10 L-8,7 L-10,9 L-10,6 L-7,3 L-4,1 Z " fill="#173A60" transform="translate(889,524)"/>
<path d="M0,0 L18,1 L14,3 L11,8 L-5,9 L-5,5 L-8,3 L0,2 Z " fill="#173C66" transform="translate(1049,273)"/>
<path d="M0,0 L17,0 L27,3 L22,10 L-1,8 L-1,7 L11,6 L12,2 L0,1 Z " fill="#102F53" transform="translate(1228,750)"/>
<path d="M0,0 L17,0 L24,1 L24,2 L9,2 L10,5 L7,6 L10,8 L-4,8 L-24,6 L-24,5 L-3,5 Z " fill="#1A2E55" transform="translate(1081,623)"/>
<path d="M0,0 L6,0 L2,2 L-2,4 L-3,7 L-2,13 L-4,18 L-5,24 L-6,24 L-6,15 L-8,15 L-9,17 L-11,17 L-12,25 L-13,25 L-13,13 L-7,4 Z " fill="#112D4E" transform="translate(808,510)"/>
<path d="M0,0 L1,4 L-2,9 L-6,11 L-7,14 L-9,15 L-9,17 L-2,20 L-3,22 L-9,23 L-10,20 L-13,20 L-13,22 L2,26 L2,27 L-5,27 L-15,23 L-14,17 L-7,7 Z " fill="#4488AD" transform="translate(1102,890)"/>
<path d="M0,0 L1,0 L2,20 L-3,17 L-9,5 L-9,3 L-6,3 L-5,1 L-1,1 Z " fill="#4591BC" transform="translate(1183,638)"/>
<path d="M0,0 L10,0 L20,5 L21,7 L1,7 L-3,8 L-4,4 Z " fill="#3F86B0" transform="translate(827,504)"/>
<path d="M0,0 L13,0 L13,9 L3,11 L0,11 L0,6 L3,4 L3,2 L0,3 Z " fill="#1D5374" transform="translate(1048,781)"/>
<path d="M0,0 L2,0 L5,17 L7,35 L3,31 L3,29 L-2,31 L-2,29 L-7,28 L-3,27 L-2,27 L-7,23 L-10,20 L-4,22 L0,24 L2,19 L1,10 L0,8 Z " fill="#4589AF" transform="translate(1154,855)"/>
<path d="M0,0 L14,2 L12,5 L10,11 L8,11 L8,8 L3,9 L4,27 L2,27 L0,6 Z " fill="#468AB1" transform="translate(1012,798)"/>
<path d="M0,0 L13,0 L16,4 L17,8 L7,8 L7,5 L5,3 L5,6 L-3,6 L-1,1 Z " fill="#418BB6" transform="translate(926,617)"/>
<path d="M0,0 L3,1 L10,11 L12,15 L7,13 L5,16 L7,16 L7,18 L4,20 L5,22 L2,21 L0,19 Z " fill="#3A7EA6" transform="translate(1167,650)"/>
<path d="M0,0 L5,1 L24,10 L25,12 L13,9 L12,12 L3,6 L-2,1 Z " fill="#438AB5" transform="translate(1198,299)"/>
<path d="M0,0 L4,1 L6,5 L8,7 L-4,12 L-6,13 L-12,12 L-12,11 L-7,10 L-9,5 L-2,5 Z " fill="#163A61" transform="translate(1165,913)"/>
<path d="M0,0 L2,1 L-4,7 L2,3 L2,5 L13,2 L10,5 L2,11 L-5,22 L-6,20 L-2,12 L-8,11 L-6,6 Z " fill="#102A4A" transform="translate(989,572)"/>
<path d="M0,0 L4,0 L5,10 L5,22 L4,22 L3,18 L0,20 L-1,16 L1,13 L3,13 L3,7 L-6,9 L-5,5 L-6,2 Z " fill="#316F94" transform="translate(1163,846)"/>
<path d="M0,0 L11,0 L13,3 L1,3 L0,7 L-17,8 L-14,7 L-14,5 L-10,2 Z " fill="#1A3D64" transform="translate(1105,777)"/>
<path d="M0,0 L9,0 L23,2 L23,3 L16,3 L15,6 L2,7 L-1,5 Z " fill="#173C67" transform="translate(1081,702)"/>
<path d="M0,0 L1,2 L-1,12 L-5,14 L-4,10 L-2,11 L-2,9 L-8,9 L-11,12 L-15,17 L-18,18 L-18,16 L-21,15 L-20,12 L-4,4 Z " fill="#4C99C3" transform="translate(973,599)"/>
<path d="M0,0 L5,1 L13,6 L11,7 L6,6 L4,9 L12,13 L19,15 L19,16 L11,15 L0,9 L-8,2 L-5,2 L-2,4 Z " fill="#0F2A4C" transform="translate(817,602)"/>
<path d="M0,0 L32,0 L32,1 L13,2 L11,6 L30,7 L30,8 L-3,8 L-3,7 L4,6 L6,2 L0,1 Z " fill="#84CEE5" transform="translate(1075,281)"/>
<path d="M0,0 L12,1 L28,4 L27,7 L-3,5 L-3,4 L4,3 L4,1 Z " fill="#9ADFF1" transform="translate(1017,557)"/>
<path d="M0,0 L1,0 L1,14 L-1,18 L-3,18 L-6,20 L-7,12 L-6,12 L-4,5 L-1,4 Z M-7,20 L-5,22 L-7,24 Z " fill="#153A62" transform="translate(902,535)"/>
<path d="M0,0 L1,0 L2,34 L-1,30 L-4,17 L-4,8 L-3,12 L-1,12 Z " fill="#7FC6DE" transform="translate(933,467)"/>
<path d="M0,0 L10,0 L15,1 L11,2 L11,4 L13,6 L2,7 L-2,5 L-9,4 L-9,3 L-4,3 L-4,1 Z " fill="#173B67" transform="translate(1064,700)"/>
<path d="M0,0 L12,0 L11,5 L9,5 L9,2 L6,6 L6,9 L6,11 L-3,11 L-1,8 L-1,4 L-3,4 L-3,2 Z M-1,3 Z " fill="#36779F" transform="translate(1110,587)"/>
<path d="M0,0 L1,0 L3,19 L3,26 L2,26 L2,20 L0,20 L-1,26 L-3,24 L-4,19 L-5,16 L-1,9 Z " fill="#153B63" transform="translate(1069,850)"/>
<path d="M0,0 L53,0 L63,1 L63,2 L50,2 L50,4 L47,3 L47,2 L-7,2 L-7,1 Z " fill="#081A3A" transform="translate(1062,272)"/>
<path d="M0,0 L9,0 L9,1 L-2,3 L1,10 L-4,11 L-7,10 L-7,12 L-10,13 L-13,17 L-12,11 L-4,2 Z " fill="#4793BE" transform="translate(1188,601)"/>
<path d="M0,0 L1,0 L1,12 L-30,12 L-30,11 L-2,11 L-3,6 L-2,2 L-23,2 L-23,1 Z " fill="#102C50" transform="translate(680,390)"/>
<path d="M0,0 L1,2 L3,2 L7,10 L6,14 L4,16 L0,16 L-1,12 L-1,3 Z " fill="#163B63" transform="translate(963,891)"/>
<path d="M0,0 L1,3 L-5,13 L-8,14 L-28,14 L-27,11 L-27,13 L-11,13 L-10,6 L-8,4 L-4,5 L-6,7 L-3,6 Z " fill="#2D6C91" transform="translate(943,642)"/>
<path d="M0,0 L3,2 L2,8 L1,12 L-1,12 L-1,19 L3,17 L4,22 L1,24 L-1,23 L-1,21 L-3,21 L-5,12 L-4,7 L-2,9 Z " fill="#1A3353" transform="translate(984,731)"/>
<path d="M0,0 L2,1 L1,14 L1,38 L0,66 L-1,66 L-2,4 Z " fill="#183E66" transform="translate(1127,632)"/>
<path d="M0,0 L6,0 L7,3 L4,6 L2,6 L1,10 L0,11 L-1,19 L-2,19 L-3,5 L-14,5 L-14,4 L-1,4 Z " fill="#172F4F" transform="translate(1106,780)"/>
<path d="M0,0 L8,0 L6,1 L5,5 L10,6 L10,7 L5,8 L-16,8 L-16,7 L-1,7 L0,3 L-14,2 L-14,1 Z " fill="#0D2B4F" transform="translate(1043,829)"/>
<path d="M0,0 L2,0 L3,4 L3,15 L-2,16 L-3,15 L-3,2 L-1,2 Z " fill="#306E92" transform="translate(1255,737)"/>
<path d="M0,0 L4,1 L8,3 L6,4 L10,5 L11,8 L10,11 L5,11 L-2,5 L-2,3 L0,3 Z " fill="#143962" transform="translate(991,758)"/>
<path d="M0,0 L40,0 L40,3 L4,3 Z " fill="#73ABC6" transform="translate(1072,269)"/>
<path d="M0,0 L11,0 L18,1 L18,2 L11,3 L12,9 L-1,8 L0,6 L4,3 L7,3 L7,1 L0,1 Z " fill="#7BC6E1" transform="translate(1112,282)"/>
<path d="M0,0 L2,3 L4,2 L5,6 L7,6 L6,11 L0,18 L-2,17 Z " fill="#316F93" transform="translate(1260,817)"/>
<path d="M0,0 L1,0 L5,13 L8,18 L7,20 L5,16 L4,20 L2,20 L1,22 L-4,15 L-3,12 L-2,14 L-1,11 L1,11 Z " fill="#0F2E4F" transform="translate(1172,635)"/>
<path d="M0,0 L5,0 L4,3 L9,2 L12,3 L13,0 L21,0 L20,2 L16,2 L16,4 L23,6 L23,7 L14,7 L1,5 L1,3 L-1,1 Z " fill="#103158" transform="translate(1044,699)"/>
<path d="M0,0 L1,2 L4,3 L2,3 L2,8 L-10,8 L-12,6 L-15,4 L-12,3 L-7,5 L-6,1 Z " fill="#163B63" transform="translate(1008,545)"/>
<path d="M0,0 L5,2 L12,6 L10,12 L4,10 L1,7 L1,3 Z " fill="#143A62" transform="translate(953,528)"/>
<path d="M0,0 L2,3 L3,8 L-7,12 L-13,13 L-11,11 L-6,10 L-6,5 L-3,1 Z " fill="#173557" transform="translate(732,263)"/>
<path d="M0,0 L3,1 L3,9 L8,8 L22,9 L22,11 L0,11 Z " fill="#122F51" transform="translate(338,391)"/>
<path d="M0,0 L2,1 L2,12 L-1,25 L-2,25 L-1,15 L0,8 L-3,7 L-8,14 L-8,11 L-1,1 Z " fill="#102E4C" transform="translate(1210,790)"/>
<path d="M0,0 L2,0 L2,11 L-19,11 L-19,9 L-14,9 L-13,7 L-13,9 L-1,9 L-1,1 Z " fill="#122E51" transform="translate(623,391)"/>
<path d="M0,0 L33,0 L39,17 L38,21 L37,16 L35,16 L32,4 L31,2 L1,1 L0,3 Z " fill="#0F213E" transform="translate(192,247)"/>
<path d="M0,0 L8,1 L9,4 L15,4 L13,6 L10,7 L8,9 L4,9 L2,11 L0,8 Z " fill="#3F7FA2" transform="translate(1117,847)"/>
<path d="M0,0 L20,0 L20,1 L11,2 L9,6 L11,6 L10,8 L4,7 L2,8 L3,3 L5,1 L0,1 Z M12,3 L14,5 L13,8 L11,4 Z " fill="#458DB7" transform="translate(1224,759)"/>
<path d="M0,0 L2,1 L-3,5 L-5,5 L-7,13 L-12,14 L-15,11 L-19,8 L-19,3 L-17,2 L-17,7 L-16,8 L-11,8 L-2,1 Z M-12,11 Z " fill="#56AAD4" transform="translate(997,364)"/>
<path d="M0,0 L6,1 L12,5 L15,7 L14,9 L3,6 L-14,6 L-22,7 L-20,5 L-15,4 L7,4 L0,3 Z " fill="#0D2847" transform="translate(1139,875)"/>
<path d="M0,0 L2,1 L5,2 L2,9 L-3,14 L-5,14 L-4,5 Z " fill="#438EB9" transform="translate(1178,626)"/>
<path d="M0,0 L6,2 L8,1 L8,9 L-1,10 L-2,7 L-2,4 L1,2 Z " fill="#36779E" transform="translate(1265,399)"/>
<path d="M0,0 L1,0 L2,5 L1,22 L-1,25 L-3,25 L-2,12 Z " fill="#E5D5AF" transform="translate(1203,708)"/>
<path d="M0,0 L5,5 L5,8 L3,11 L-1,10 L-5,4 L-5,1 L0,2 Z " fill="#133960" transform="translate(900,590)"/>
<path d="M0,0 L7,1 L15,5 L15,6 L2,8 L3,6 L-1,4 L1,2 Z " fill="#3D84AE" transform="translate(1180,586)"/>
<path d="M0,0 L4,1 L5,3 L-4,4 L-7,7 L-11,7 L-13,3 L-16,1 Z " fill="#163C65" transform="translate(1040,563)"/>
<path d="M0,0 L1,2 L-4,8 L-11,12 L-23,12 L-23,11 L-13,10 L-10,3 L-7,3 L-5,6 Z " fill="#4A8FB6" transform="translate(1169,219)"/>
<path d="M0,0 L10,0 L10,1 L4,1 L4,3 L6,3 L7,8 L4,10 L-2,10 L2,8 L4,5 L3,2 L-25,2 L-25,1 Z M6,2 Z " fill="#3D85AE" transform="translate(1103,588)"/>
<path d="M0,0 L2,0 L2,23 L1,23 L0,13 L-1,15 L-5,15 L-8,14 L-8,11 L-6,11 L-5,8 L-2,9 L-4,10 L-4,12 L0,9 L1,2 L-2,1 Z " fill="#34749A" transform="translate(1163,811)"/>
<path d="M0,0 L3,1 L3,16 L1,19 L-1,21 L-2,17 L-2,7 L-2,6 L0,4 Z " fill="#306D91" transform="translate(1192,697)"/>
<path d="M0,0 L8,0 L13,2 L13,6 L2,6 L1,2 Z " fill="#E6B57C" transform="translate(1393,630)"/>
<path d="M0,0 L1,0 L2,10 L5,9 L6,14 L4,18 L2,17 L1,19 L0,29 L-1,29 L-1,18 Z " fill="#6DB3CF" transform="translate(982,655)"/>
<path d="M0,0 L3,2 L3,12 L2,19 L0,17 L0,14 L-2,14 L-1,3 Z " fill="#3779A2" transform="translate(1234,454)"/>
<path d="M0,0 L1,0 L0,33 L-1,33 L-2,18 L-2,10 L-4,6 L-3,2 L-1,2 Z " fill="#3E87B1" transform="translate(1238,448)"/>
<path d="M0,0 L5,0 L1,3 L1,6 L5,7 L9,8 L1,10 L-5,10 L-4,5 L-6,4 L-3,4 L-3,1 Z " fill="#122D51" transform="translate(1036,907)"/>
<path d="M0,0 L3,1 L-3,3 L-5,7 L-11,14 L-16,15 L-17,9 L-14,11 L-7,4 Z " fill="#112E4F" transform="translate(1219,665)"/>
<path d="M0,0 L1,3 L-5,19 L-8,18 L-7,7 L-6,5 L-2,6 Z M-5,6 Z " fill="#3B7FA8" transform="translate(1245,428)"/>
<path d="M0,0 L2,2 L6,0 L0,8 L-11,23 L-12,19 L-6,12 Z " fill="#F0E8C9" transform="translate(1195,760)"/>
<path d="M0,0 L2,1 L-2,10 L-6,13 L-20,12 L-26,10 L-25,7 L-19,10 L-10,10 L-4,7 Z " fill="#142B4B" transform="translate(551,440)"/>
<path d="M0,0 L8,0 L16,4 L16,8 L26,5 L28,2 L29,6 L18,10 L15,10 L13,4 L7,2 L1,2 L-3,3 Z " fill="#0F2341" transform="translate(304,399)"/>
<path d="M0,0 L4,1 L6,3 L1,4 L0,7 L-7,7 L-7,2 L-9,1 Z " fill="#71BAD8" transform="translate(1130,283)"/>
<path d="M0,0 L3,3 L7,9 L11,11 L20,12 L20,13 L10,13 L4,12 L2,13 L3,10 L5,10 L5,8 L1,10 L0,9 Z " fill="#1A2F55" transform="translate(1012,682)"/>
<path d="M0,0 L2,0 L3,4 L-1,5 L-1,7 L-9,9 L-10,4 L-4,4 L-3,1 Z M3,1 Z " fill="#2A658A" transform="translate(964,624)"/>
<path d="M0,0 L1,0 L1,6 L3,7 L-10,11 L-16,11 L-12,8 L-9,3 L-6,5 L-6,7 L-1,7 Z M-6,6 Z " fill="#4488AE" transform="translate(1046,897)"/>
<path d="M0,0 L1,0 L1,5 L-3,7 L2,8 L2,9 L-14,9 L-18,7 L-8,7 L-6,6 L-6,3 Z " fill="#468CB2" transform="translate(1147,833)"/>
<path d="M0,0 L4,2 L8,7 L5,8 L4,10 L2,10 L-2,4 L-2,1 Z " fill="#143A62" transform="translate(1213,603)"/>
<path d="M0,0 L4,5 L5,8 L0,16 L-1,14 L0,12 L0,6 L-5,9 L-3,4 Z " fill="#0F3052" transform="translate(1189,775)"/>
<path d="M0,0 L1,0 L1,29 L-3,27 L0,26 L-1,11 L-3,10 L-1,6 L-3,6 L-2,3 Z " fill="#37789E" transform="translate(1258,726)"/>
<path d="M0,0 L22,1 L27,1 L29,4 L20,4 L13,3 L12,5 L9,4 L9,2 L1,3 Z M8,4 Z " fill="#4898C5" transform="translate(1083,710)"/>
<path d="M0,0 L1,0 L2,10 L7,6 L7,15 L1,14 L0,20 L-1,20 L-1,7 Z " fill="#0A2446" transform="translate(922,414)"/>
<path d="M0,0 L7,0 L9,2 L9,1 L17,1 L17,2 L12,2 L12,4 L9,6 L-2,5 L2,3 L3,2 Z " fill="#153C67" transform="translate(1071,776)"/>
<path d="M0,0 L6,1 L6,3 L4,3 L3,6 L-2,9 L-4,9 L-5,6 L-2,1 Z " fill="#428DB7" transform="translate(965,607)"/>
<path d="M0,0 L4,1 L5,8 L3,10 L-2,11 L-3,4 L1,2 Z M-3,11 Z " fill="#2E6C91" transform="translate(1290,467)"/>
<path d="M0,0 L2,2 L5,2 L-2,8 L-7,8 L-9,6 L-8,2 L-7,5 L-4,1 L-2,1 L-1,3 Z " fill="#112F52" transform="translate(988,365)"/>
<path d="M0,0 L2,1 L-1,6 L4,7 L0,12 L-2,11 L1,7 L-2,7 L-2,5 L-10,12 L-14,15 L-12,11 L-3,2 Z " fill="#85CEE4" transform="translate(977,309)"/>
<path d="M0,0 L1,0 L2,17 L-3,14 L-5,7 L-3,7 L-1,3 Z " fill="#37799E" transform="translate(1183,641)"/>
<path d="M0,0 L5,1 L5,3 L2,6 L4,10 L0,10 L0,8 L-3,9 L-5,7 L-3,3 Z " fill="#4896C3" transform="translate(1269,418)"/>
<path d="M0,0 L2,2 L14,3 L14,4 L-8,4 L-24,3 L-24,2 L0,2 Z " fill="#071F43" transform="translate(1105,277)"/>
<path d="M0,0 L16,0 L19,2 L9,3 L0,6 L-1,2 Z " fill="#559FC4" transform="translate(1014,571)"/>
<path d="M0,0 L19,0 L19,3 L14,7 L13,2 L0,1 Z " fill="#E7B87D" transform="translate(1076,883)"/>
<path d="M0,0 L19,0 L19,2 L21,3 L14,4 L0,1 Z " fill="#82BDD3" transform="translate(1159,571)"/>
<path d="M0,0 L12,2 L11,5 L-6,4 L-6,1 Z " fill="#89CBDF" transform="translate(1033,559)"/>
<path d="M0,0 L4,1 L3,3 L2,4 L5,4 L5,11 L0,10 L1,15 L-1,15 L-1,6 Z M3,8 Z " fill="#73BBD8" transform="translate(933,404)"/>
<path d="M0,0 L7,1 L3,4 L4,7 L3,9 L-3,8 L-5,6 L-3,6 L-1,2 Z " fill="#79C3DF" transform="translate(1178,293)"/>
<path d="M0,0 L2,4 L-1,7 L0,8 L0,11 L-8,8 L-2,1 Z " fill="#153961" transform="translate(1238,544)"/>
<path d="M0,0 L3,1 L1,14 L0,28 L-1,28 L-1,7 L-3,5 L-1,5 Z " fill="#3A80AA" transform="translate(1267,450)"/>
<path d="M0,0 L2,3 L4,5 L3,9 L0,10 L-2,6 L-3,10 L-5,6 L-4,1 L0,2 Z " fill="#2A6588" transform="translate(1268,781)"/>
<path d="M0,0 L2,2 L3,13 L-16,13 L-16,12 L1,11 L1,6 L-1,5 Z " fill="#37769C" transform="translate(1254,698)"/>
<path d="M0,0 L4,2 L9,7 L8,9 L5,9 L2,9 L-2,8 L1,7 L-1,5 L1,5 Z " fill="#33739A" transform="translate(847,511)"/>
<path d="M0,0 L7,1 L8,6 L6,7 L-1,6 Z " fill="#183C67" transform="translate(1011,352)"/>
<path d="M0,0 L1,3 L-3,6 L-5,6 L-6,9 L-8,10 L-7,13 L-13,11 L-14,9 L-6,5 Z " fill="#2C6C92" transform="translate(901,637)"/>
<path d="M0,0 L3,1 L2,12 L-3,11 L-4,9 L-2,9 L-3,6 L-1,6 L-2,3 Z " fill="#4184AB" transform="translate(1169,202)"/>
<path d="M0,0 L10,0 L10,1 L3,2 L-1,4 L-10,6 L-14,7 L-11,4 Z " fill="#478BAF" transform="translate(1121,881)"/>
<path d="M0,0 L1,0 L3,20 L5,19 L14,19 L14,20 L1,22 L0,11 Z " fill="#4A90B7" transform="translate(1118,852)"/>
<path d="M0,0 L1,3 L-1,7 L-2,5 L-1,3 L-8,2 L-8,4 L-6,5 L-9,6 L-11,4 L-12,3 L-20,2 L-20,1 Z " fill="#296486" transform="translate(944,624)"/>
<path d="M0,0 L6,0 L3,3 L5,3 L5,5 L-1,8 L-4,7 L-3,3 Z " fill="#4793BF" transform="translate(827,504)"/>
<path d="M0,0 L3,1 L-3,4 L-7,9 L-13,12 L-15,11 L-7,4 Z " fill="#10294C" transform="translate(996,354)"/>
<path d="M0,0 L14,5 L15,7 L10,6 L3,4 L-3,8 L-1,1 Z " fill="#142B4B" transform="translate(447,326)"/>
<path d="M0,0 L18,0 L18,1 L4,1 L8,3 L7,6 L5,6 L4,9 L2,2 Z " fill="#478BB1" transform="translate(1008,869)"/>
<path d="M0,0 L1,0 L1,16 L-1,17 L-3,21 L-4,17 L-4,8 L-3,12 L-1,12 Z " fill="#86CEE6" transform="translate(933,467)"/>
<path d="M0,0 L1,0 L2,8 L2,20 L0,17 L-1,12 L-1,1 Z " fill="#0E2A4E" transform="translate(921,475)"/>
<path d="M0,0 L5,3 L7,1 L10,1 L10,9 L7,9 L0,2 Z " fill="#0E2947" transform="translate(811,552)"/>
<path d="M0,0 L2,3 L-4,8 L-8,12 L-11,16 L-10,11 L-1,1 Z " fill="#132B4A" transform="translate(1133,408)"/>
<path d="M0,0 L5,5 L12,5 L11,7 L4,8 L0,10 L0,8 L-2,7 L0,3 Z " fill="#0E2D4F" transform="translate(1183,805)"/>
<path d="M0,0 L2,3 L3,12 L-1,15 L-4,14 L0,11 L-2,5 L0,4 Z " fill="#327298" transform="translate(1172,897)"/>
<path d="M0,0 L0,3 L-1,8 L-1,12 L-3,12 L-4,10 L-6,15 L-8,15 L-6,9 Z " fill="#4691BC" transform="translate(1195,781)"/>
<path d="M0,0 L6,2 L13,8 L13,9 L8,9 L8,7 L4,5 L0,2 Z " fill="#34759A" transform="translate(1202,603)"/>
<path d="M0,0 L7,2 L6,5 L4,8 L1,8 Z " fill="#2F6D90" transform="translate(1242,674)"/>
<path d="M0,0 L1,0 L2,10 L6,9 L7,14 L2,16 L2,13 L0,13 Z " fill="#50A3CF" transform="translate(1248,461)"/>
<path d="M0,0 L1,2 L1,11 L0,20 L-2,17 L-2,4 Z " fill="#112745" transform="translate(1122,199)"/>
<path d="M0,0 L4,1 L2,4 L-1,6 L-1,4 L-6,5 L-10,6 L-7,3 Z " fill="#4789AD" transform="translate(998,871)"/>
<path d="M0,0 L1,0 L2,12 L-3,10 L-4,13 L-4,4 L0,6 Z " fill="#163C64" transform="translate(1174,858)"/>
<path d="M0,0 L9,0 L24,2 L24,3 L13,4 L13,2 L0,1 Z " fill="#58B3DE" transform="translate(1022,702)"/>
<path d="M0,0 L7,1 L9,3 L3,5 L-2,3 Z " fill="#71BCDA" transform="translate(995,580)"/>
<path d="M0,0 L2,1 L-8,7 L-13,8 L-11,5 L-11,2 L-7,2 L-7,4 Z " fill="#3E83AD" transform="translate(1232,545)"/>
<path d="M0,0 L1,0 L1,5 L3,5 L4,12 L4,15 L7,16 L5,16 L4,18 L1,11 Z " fill="#56A8D3" transform="translate(1249,479)"/>
<path d="M0,0 L3,1 L-1,3 L-6,8 L-11,9 L-6,4 Z " fill="#17304E" transform="translate(675,249)"/>
<path d="M0,0 L1,2 L0,7 L-3,8 L-3,5 L-14,5 L-15,3 L-2,3 Z " fill="#292E49" transform="translate(1123,700)"/>
<path d="M0,0 L4,0 L3,3 L10,4 L10,5 L2,6 L-1,8 L-2,3 Z " fill="#112E62" transform="translate(1018,620)"/>
<path d="M0,0 L2,1 L-1,5 L-1,8 L-6,9 L-5,1 Z " fill="#173C63" transform="translate(1168,280)"/>
<path d="M0,0 L2,2 L5,1 L6,6 L10,9 L4,8 L-1,3 Z " fill="#468BB2" transform="translate(970,895)"/>
<path d="M0,0 L1,0 L2,10 L2,23 L1,23 L0,17 L-2,15 L0,15 Z " fill="#35759A" transform="translate(1061,839)"/>
<path d="M0,0 L2,2 L3,7 L5,5 L7,13 L4,12 L2,16 Z " fill="#3778A1" transform="translate(1288,441)"/>
<path d="M0,0 L6,1 L4,6 L1,7 L-2,4 L0,4 Z " fill="#163A67" transform="translate(1172,366)"/>
<path d="M0,0 L12,0 L21,1 L21,2 L10,3 L8,4 L6,2 L0,1 Z " fill="#092242" transform="translate(1071,775)"/>
<path d="M0,0 L2,4 L2,6 L6,4 L7,9 L4,11 L1,8 Z " fill="#113763" transform="translate(981,744)"/>
<path d="M0,0 L5,2 L11,5 L17,3 L14,6 L9,8 L0,1 Z " fill="#236083" transform="translate(869,634)"/>
<path d="M0,0 L1,0 L1,11 L-1,15 L-1,9 L-4,8 L-2,4 L-1,5 Z " fill="#4D9DC9" transform="translate(895,536)"/>
<path d="M0,0 L3,0 L3,7 L1,10 L1,5 L-4,6 L-4,2 Z " fill="#0E2B50" transform="translate(1302,465)"/>
<path d="M0,0 L2,0 L3,4 L13,10 L15,12 L10,11 L1,5 L-2,1 Z " fill="#142845" transform="translate(389,345)"/>
<path d="M0,0 L4,0 L4,6 L0,6 L-1,9 Z " fill="#102E50" transform="translate(1256,807)"/>
<path d="M0,0 L1,0 L1,13 L0,18 L-1,18 L-2,4 L0,4 Z " fill="#50A5D4" transform="translate(1161,749)"/>
<path d="M0,0 L2,1 L0,5 L-2,5 L-2,7 L-7,8 L-5,4 Z " fill="#163B64" transform="translate(1198,617)"/>
<path d="M0,0 L6,2 L2,5 L0,9 L-3,10 L-1,1 Z " fill="#4B99C5" transform="translate(914,611)"/>
<path d="M0,0 L4,1 L6,2 L6,4 L8,5 L-2,5 Z " fill="#82C4DD" transform="translate(1015,556)"/>
<path d="M0,0 L3,0 L4,2 L4,9 L1,12 Z " fill="#84C0D6" transform="translate(439,406)"/>
<path d="M0,0 L5,0 L2,2 L1,5 L4,6 L-7,7 L-7,4 L-1,4 Z " fill="#1B4069" transform="translate(1151,359)"/>
<path d="M0,0 L8,6 L10,10 L6,8 L-2,2 Z " fill="#4A92B9" transform="translate(1198,299)"/>
<path d="M0,0 L3,3 L1,7 L-1,7 L-2,9 L-4,9 L-5,6 L-4,4 L-2,4 L-1,2 Z " fill="#183C63" transform="translate(1128,218)"/>
<path d="M0,0 L2,1 L2,4 L4,6 L0,8 L-2,3 L-4,2 Z " fill="#113358" transform="translate(1171,911)"/>
<path d="M0,0 L3,1 L4,4 L-3,5 L-15,4 L-15,3 L0,2 Z " fill="#0B284D" transform="translate(1026,864)"/>
<path d="M0,0 L3,1 L1,4 L-11,4 L-11,3 L-6,2 L-6,1 Z " fill="#163B64" transform="translate(1025,863)"/>
<path d="M0,0 L2,1 L-4,4 L-4,6 L-7,6 L-8,10 L-9,7 L-8,2 Z " fill="#337195" transform="translate(1059,834)"/>
<path d="M0,0 L1,0 L1,9 L-1,12 L-3,12 L-3,6 L-1,4 Z " fill="#EED5A7" transform="translate(1203,721)"/>
<path d="M0,0 L4,1 L0,3 L0,4 L-6,4 L-7,7 L-11,6 L-3,1 Z " fill="#0E2647" transform="translate(1002,565)"/>
<path d="M0,0 L2,0 L2,3 L-7,5 L-11,3 Z " fill="#88C6DA" transform="translate(1216,564)"/>
<path d="M0,0 L9,1 L5,4 L5,8 L1,9 L2,2 Z " fill="#0C274A" transform="translate(1159,279)"/>
<path d="M0,0 L2,0 L1,11 L1,16 L-1,15 L-2,1 Z " fill="#F5DAA7" transform="translate(1176,782)"/>
<path d="M0,0 L5,0 L5,2 L1,4 L-3,4 L-4,10 L-5,10 L-5,3 Z " fill="#4D9BC6" transform="translate(1220,721)"/>
<path d="M0,0 L6,1 L12,0 L10,2 L-1,5 L-3,4 Z " fill="#28668A" transform="translate(950,649)"/>
<path d="M0,0 L9,0 L5,2 L6,6 L-1,5 L1,2 Z " fill="#122E56" transform="translate(1071,622)"/>
<path d="M0,0 L1,2 L6,3 L6,5 L10,6 L1,5 L-4,2 L-2,1 L0,2 Z " fill="#93D2E4" transform="translate(919,600)"/>
<path d="M0,0 L2,0 L1,5 L-1,6 L-2,15 L-3,15 L-3,2 L-1,2 Z " fill="#2C688A" transform="translate(1255,737)"/>
<path d="M0,0 L13,1 L13,2 L2,3 L-8,3 L-8,2 Z " fill="#4D9DC9" transform="translate(1236,708)"/>
<path d="M0,0 L6,0 L5,3 L-12,2 L-12,1 Z " fill="#1B4069" transform="translate(1069,621)"/>
<path d="M0,0 L2,3 L3,9 L2,13 L0,12 L-1,7 Z " fill="#448BB4" transform="translate(790,548)"/>
<path d="M0,0 L1,2 L3,3 L0,3 L1,6 L1,9 L-2,10 L-4,13 L-3,6 Z " fill="#102F50" transform="translate(1246,429)"/>
<path d="M0,0 L3,0 L4,8 L2,12 L1,8 Z " fill="#87C3D8" transform="translate(708,323)"/>
<path d="M0,0 L6,0 L3,3 L-9,3 L-5,1 Z " fill="#96D4E6" transform="translate(948,662)"/>
<path d="M0,0 L1,2 L0,5 L-6,5 L-10,6 L-6,2 Z " fill="#4D99C3" transform="translate(971,603)"/>
<path d="M0,0 Z M-8,1 L-4,2 L0,1 L-1,6 L-4,5 L-5,7 L-8,3 Z " fill="#4A97C0" transform="translate(810,577)"/>
<path d="M0,0 L5,2 L4,5 L1,4 L-6,6 L-5,3 Z " fill="#133251" transform="translate(1282,437)"/>
<path d="M0,0 L2,1 L-7,7 L-14,8 L-11,6 L-4,4 L-3,1 Z " fill="#0F2441" transform="translate(723,350)"/>
<path d="M0,0 L3,3 L5,7 L5,11 L-1,12 L3,9 L1,8 Z " fill="#122847" transform="translate(360,266)"/>
<path d="M0,0 L7,0 L9,3 L4,2 L2,5 L-1,5 Z " fill="#458AB0" transform="translate(1034,871)"/>
<path d="M0,0 L1,3 L-3,11 L-5,12 L-4,6 L-4,3 L-1,2 Z " fill="#468DB6" transform="translate(1227,823)"/>
<path d="M0,0 L4,3 L4,6 L6,6 L6,8 L4,8 L3,10 L0,5 L-1,3 Z " fill="#3F85AD" transform="translate(1194,652)"/>
<path d="M0,0 L12,0 L12,1 L4,1 L5,4 L-2,4 Z " fill="#9ADEF0" transform="translate(1178,571)"/>
<path d="M0,0 L2,1 L-2,3 L-3,6 L-5,6 L-6,8 L-9,5 Z " fill="#54A9D3" transform="translate(1163,469)"/>
<path d="M0,0 L8,6 L9,11 L7,12 L3,5 L0,2 Z " fill="#56AED9" transform="translate(979,448)"/>
<path d="M0,0 L9,1 L10,3 L0,3 Z " fill="#8AC8DA" transform="translate(305,400)"/>
<path d="M0,0 L4,2 L0,3 L-1,5 L-5,4 L-7,2 Z " fill="#88C5DB" transform="translate(443,357)"/>
<path d="M0,0 L1,4 L3,4 L2,13 L-2,15 L0,12 Z " fill="#0F2E4D" transform="translate(1067,882)"/>
<path d="M0,0 L9,1 L8,3 L-1,6 Z " fill="#337196" transform="translate(1156,835)"/>
<path d="M0,0 L0,3 L0,7 L-3,8 L-6,12 L-5,6 Z " fill="#4F9DC8" transform="translate(1181,606)"/>
<path d="M0,0 L1,2 L5,3 L1,4 L-13,4 L-13,3 L-2,2 Z " fill="#33749C" transform="translate(1166,595)"/>
<path d="M0,0 L6,4 L3,6 L-1,6 Z M-3,6 L-1,7 Z " fill="#54A8D2" transform="translate(1127,466)"/>
<path d="M0,0 L3,0 L1,4 L-5,9 L-7,8 Z " fill="#97D8EB" transform="translate(749,446)"/>
<path d="M0,0 L4,4 L4,17 L3,17 L3,6 L1,6 Z " fill="#0E2241" transform="translate(330,429)"/>
<path d="M0,0 L5,1 L14,6 L12,7 L4,4 L4,2 Z " fill="#0E2647" transform="translate(1166,361)"/>
<path d="M0,0 L4,2 L0,4 L-1,6 L-6,7 L-5,4 L0,1 Z M-7,7 Z M-8,8 Z " fill="#183C67" transform="translate(998,353)"/>
<path d="M0,0 L3,1 L-2,7 L-4,5 L-3,2 Z " fill="#DBB884" transform="translate(1093,883)"/>
<path d="M0,0 L6,2 L7,5 L1,4 L-1,1 Z " fill="#13355B" transform="translate(1029,864)"/>
<path d="M0,0 L5,0 L3,5 L-2,4 Z " fill="#3C80A8" transform="translate(1192,805)"/>
<path d="M0,0 L7,0 L6,2 L6,9 L5,9 L5,3 L-1,3 Z " fill="#EACE9D" transform="translate(1096,785)"/>
<path d="M0,0 L7,3 L16,4 L16,5 L6,5 L0,3 Z " fill="#0B1E3E" transform="translate(525,447)"/>
<path d="M0,0 L4,1 L5,3 L8,4 L8,6 L11,7 L7,7 L0,2 Z " fill="#3B7DA4" transform="translate(1199,299)"/>
<path d="M0,0 L1,3 L-2,9 L-5,9 L-4,5 Z " fill="#142E4D" transform="translate(573,256)"/>
<path d="M0,0 L9,0 L10,3 L-1,3 Z " fill="#214367" transform="translate(1146,179)"/>
<path d="M0,0 L1,3 L-1,8 L-5,7 L-3,2 Z " fill="#3B7EA5" transform="translate(1223,829)"/>
<path d="M0,0 L2,0 L-1,10 L-2,7 L0,2 L-8,2 L-8,1 Z " fill="#F7EFC8" transform="translate(1195,819)"/>
<path d="M0,0 L5,0 L4,2 L2,2 L3,6 L-4,5 L0,4 Z " fill="#255F81" transform="translate(1131,798)"/>
<path d="M0,0 L7,1 L7,3 L4,4 L2,3 L2,5 L0,5 L0,2 L-2,1 Z " fill="#458EB8" transform="translate(1219,760)"/>
<path d="M0,0 L3,3 L4,11 L2,9 L1,5 L-1,7 Z " fill="#9DD9EB" transform="translate(207,267)"/>
<path d="M0,0 L3,1 L0,4 L-8,4 L-6,2 Z " fill="#0F2F51" transform="translate(1163,914)"/>
<path d="M0,0 L2,1 L-2,5 L-7,8 L-9,7 Z " fill="#143C67" transform="translate(1105,879)"/>
<path d="M0,0 L1,4 L0,8 L-4,10 L-2,5 Z " fill="#11304F" transform="translate(1252,827)"/>
<path d="M0,0 L2,1 L3,3 L1,5 L-1,6 L-4,5 L-3,2 Z " fill="#163C67" transform="translate(1123,706)"/>
<path d="M0,0 L6,0 L4,1 L4,5 L-1,5 Z " fill="#153E6B" transform="translate(1048,698)"/>
<path d="M0,0 L4,1 L9,0 L5,3 L-1,5 Z " fill="#4B9AC6" transform="translate(1214,663)"/>
<path d="M0,0 L2,1 L-1,5 L-1,7 L-6,8 L-3,3 Z " fill="#2E6A8D" transform="translate(814,527)"/>
<path d="M0,0 L12,0 L15,2 L8,3 L8,2 L0,1 Z " fill="#4187AC" transform="translate(1067,508)"/>
<path d="M0,0 L1,0 L2,8 L-1,9 L-3,3 Z " fill="#1A4067" transform="translate(933,381)"/>
<path d="M0,0 L3,1 L2,4 L-3,6 L-6,8 L-4,4 Z " fill="#102848" transform="translate(961,311)"/>
<path d="M0,0 L3,1 L-1,6 L-6,5 L-3,3 L-3,1 Z " fill="#163C66" transform="translate(1194,289)"/>
<path d="M0,0 L2,3 L-1,3 L-2,8 L-5,9 L-3,4 Z " fill="#1D2A45" transform="translate(1189,775)"/>
<path d="M0,0 L2,2 L6,0 L1,6 L-2,5 Z " fill="#FAF0C7" transform="translate(1195,760)"/>
<path d="M0,0 L4,0 L2,4 L1,13 L0,13 Z " fill="#347398" transform="translate(1251,737)"/>
<path d="M0,0 L6,3 L2,5 L0,9 Z " fill="#72BAD8" transform="translate(983,671)"/>
<path d="M0,0 L1,3 L-7,8 L-9,7 Z " fill="#31739A" transform="translate(901,637)"/>
<path d="M0,0 L2,1 L-3,7 L-4,5 L-3,2 L-7,1 Z " fill="#54A8D4" transform="translate(1174,598)"/>
<path d="M0,0 L9,1 L11,3 L4,4 L3,2 Z " fill="#3C84AE" transform="translate(1168,583)"/>
<path d="M0,0 L1,0 L1,7 L3,8 L0,9 L-1,11 L-1,3 Z " fill="#37779D" transform="translate(1289,461)"/>
<path d="M0,0 L1,0 L2,7 L0,13 L-1,13 L-1,2 Z " fill="#0E2D4D" transform="translate(1240,447)"/>
<path d="M0,0 L3,0 L2,6 L4,7 L-1,7 Z " fill="#89C6DC" transform="translate(1142,267)"/>
<path d="M0,0 L1,0 L0,9 L-2,12 L-2,3 L0,3 Z " fill="#0D2345" transform="translate(1147,242)"/>
<path d="M0,0 L2,0 L2,8 L0,8 L0,6 L-2,5 Z " fill="#215A7D" transform="translate(1059,782)"/>
<path d="M0,0 L4,1 L1,2 L-2,7 L-4,6 L-2,2 Z " fill="#4E9EC9" transform="translate(809,519)"/>
<path d="M0,0 L5,0 L5,3 L2,3 L3,6 L0,8 Z " fill="#86C4DB" transform="translate(1265,514)"/>
<path d="M0,0 L2,0 L3,3 L3,10 L0,7 Z " fill="#4995BE" transform="translate(1248,474)"/>
<path d="M0,0 L1,0 L1,9 L-1,11 L-2,9 L-2,3 Z " fill="#1F4367" transform="translate(922,427)"/>
<path d="M0,0 L8,0 L5,2 L0,4 L-4,3 Z " fill="#7EC5E0" transform="translate(1014,296)"/>
<path d="M0,0 L3,0 L4,7 L3,10 Z " fill="#142E4C" transform="translate(212,279)"/>
<path d="M0,0 L4,1 L5,3 L-6,2 L-6,1 Z " fill="#DDB781" transform="translate(989,917)"/>
<path d="M0,0 L3,2 L2,8 L-1,8 Z " fill="#1B4168" transform="translate(984,731)"/>
<path d="M0,0 L1,3 L1,8 L-4,9 L-2,4 Z " fill="#4899C6" transform="translate(1165,610)"/>
<path d="M0,0 L3,2 L4,8 L3,10 L1,10 Z " fill="#4189B1" transform="translate(804,524)"/>
<path d="M0,0 L1,3 L-1,10 L-3,6 L-2,1 Z " fill="#85C6DD" transform="translate(187,339)"/>
<path d="M0,0 L2,1 L-2,5 L-5,6 L-6,3 Z " fill="#173051" transform="translate(335,338)"/>
<path d="M0,0 L4,1 L1,5 L-2,4 L-2,1 Z " fill="#162F50" transform="translate(564,331)"/>
<path d="M0,0 L4,1 L4,4 L2,7 L0,3 Z " fill="#6EB5D1" transform="translate(1144,285)"/>
<path d="M0,0 L2,4 L-1,7 L-2,1 Z M-2,7 L-1,11 Z " fill="#1B3F67" transform="translate(1137,247)"/>
<path d="M0,0 L1,0 L1,5 L-3,7 L-3,2 L0,2 Z " fill="#132C50" transform="translate(1071,897)"/>
<path d="M0,0 L1,3 L-3,9 L-4,9 L-4,4 L-1,4 Z " fill="#347296" transform="translate(1266,823)"/>
<path d="M0,0 L6,0 L7,5 L2,4 L3,2 Z " fill="#52A7D5" transform="translate(1063,707)"/>
<path d="M0,0 L2,1 L-5,6 L-5,1 Z " fill="#4E9EC9" transform="translate(1196,615)"/>
<path d="M0,0 L1,4 L-1,6 L-3,6 L-4,1 Z " fill="#256184" transform="translate(905,608)"/>
<path d="M0,0 L6,1 L8,2 L8,4 L0,3 Z " fill="#F4DEA3" transform="translate(1384,596)"/>
<path d="M0,0 L10,1 L10,2 L1,3 Z " fill="#1A3F66" transform="translate(1028,556)"/>
<path d="M0,0 L7,1 L10,3 L2,4 L2,1 Z " fill="#95D8EC" transform="translate(978,548)"/>
<path d="M0,0 L2,1 L1,8 L-2,7 L-2,2 L0,2 Z " fill="#73B5CF" transform="translate(930,471)"/>
<path d="M0,0 L1,0 L1,8 L-2,8 L-2,3 Z " fill="#87C6DD" transform="translate(1308,455)"/>
<path d="M0,0 L4,1 L-1,7 L-4,6 L0,2 Z " fill="#1E4267" transform="translate(318,445)"/>
<path d="M0,0 L3,1 L2,7 L-1,4 Z " fill="#153A63" transform="translate(1254,423)"/>
<path d="M0,0 L3,0 L5,6 L2,6 Z " fill="#8CC8DD" transform="translate(298,325)"/>
<path d="M0,0 L3,4 L2,7 L-4,8 L-3,6 L0,5 Z " fill="#98D9EC" transform="translate(734,266)"/>
<path d="M0,0 L1,0 L2,7 L0,11 L-1,4 Z " fill="#1D4063" transform="translate(1144,249)"/>
<path d="M0,0 L1,2 L4,3 L0,7 L-1,3 Z " fill="#163B65" transform="translate(1139,239)"/>
</svg>
